<svg preserveAspectRatio="none" width="100%" height="100%" overflow="visible" style="display: block;" viewBox="0 0 15.36 15.36" fill="none" xmlns="http://www.w3.org/2000/svg">
<g id="Group">
<path id="Vector" d="M5.16672 3.11424C5.10144 2.97024 4.95744 2.88 4.80096 2.88C4.64544 2.88 4.50144 2.97024 4.43616 3.11424L3.10848 5.98848L0.23424 7.31328C0.0902399 7.37856 0 7.52256 0 7.68096C0 7.84032 0.0902399 7.98144 0.23424 8.04672L3.10848 9.3744L4.43328 12.2458C4.49856 12.3888 4.64256 12.48 4.79904 12.48C4.95456 12.48 5.09856 12.3888 5.16384 12.2458L6.49152 9.37152L9.36576 8.04384C9.5088 7.97856 9.6 7.83456 9.6 7.67904C9.6 7.52256 9.5088 7.37856 9.36576 7.31328L6.4944 5.98848L5.16672 3.11424Z" fill="#0288FD"/>
<path id="Vector_2" opacity="0.4" d="M9.7872 2.13024L11.2003 1.60032L11.7302 0.1872C11.7725 0.0748802 11.88 0 12 0C12.12 0 12.2275 0.0748802 12.2698 0.1872L12.7997 1.60032L14.2128 2.13024C14.3251 2.17248 14.4 2.28 14.4 2.4C14.4 2.52 14.3251 2.62752 14.2128 2.66976L12.7997 3.19968L12.2698 4.6128C12.2275 4.72512 12.12 4.8 12 4.8C11.88 4.8 11.7725 4.72512 11.7302 4.6128L11.2003 3.19968L9.7872 2.66976C9.67488 2.62752 9.6 2.52 9.6 2.4C9.6 2.28 9.67488 2.17248 9.7872 2.13024Z" fill="#0288FD"/>
<path id="Vector_3" opacity="0.4" d="M11.52 11.52L9.82464 12.1565C9.69024 12.2074 9.6 12.336 9.6 12.48C9.6 12.624 9.69024 12.7526 9.82464 12.8035L11.52 13.44L12.1565 15.1354C12.2074 15.2698 12.336 15.36 12.48 15.36C12.624 15.36 12.7526 15.2698 12.8035 15.1354L13.44 13.44L15.1354 12.8035C15.2698 12.7526 15.36 12.624 15.36 12.48C15.36 12.336 15.2698 12.2074 15.1354 12.1565L13.44 11.52L12.8035 9.82464C12.7526 9.69024 12.624 9.6 12.48 9.6C12.336 9.6 12.2074 9.69024 12.1565 9.82464L11.52 11.52Z" fill="#0288FD"/>
</g>
</svg>
