<svg preserveAspectRatio="none" width="100%" height="100%" overflow="visible" style="display: block;" viewBox="0 0 201.316 53.7455" fill="none" xmlns="http://www.w3.org/2000/svg">
<g id="Frame 14">
<path id="Vector" fill-rule="evenodd" clip-rule="evenodd" d="M75.4829 19.2638C71.0426 20.2486 66.6425 23.3498 64.224 27.1983C62.437 30.0415 61.7803 32.1725 61.6288 35.6165C61.3911 41.0084 62.9183 44.939 66.7123 48.6996C69.3061 51.2717 71.7201 52.579 75.3017 53.3499C78.4599 54.0284 82.9878 53.8145 85.7435 52.8545C91.0617 51.002 94.9077 47.2561 96.6711 42.2116C97.5252 39.7656 97.7392 34.8295 97.1019 32.3117C95.646 26.5681 91.0602 21.6966 85.3097 19.7826C82.5956 18.8798 78.2475 18.6497 75.4829 19.2638ZM114.2 19.2814C111.151 19.9277 107.96 21.6746 105.694 23.9404C98.8028 30.8271 98.8563 41.9463 105.812 48.8081C109.301 52.2507 113.144 53.7427 118.517 53.7427C123.983 53.7427 127.775 52.2492 131.33 48.6982C134.885 45.1456 136.31 41.6942 136.33 36.578C136.353 31.4939 134.722 27.5633 131.083 23.9345C126.879 19.7415 120.425 17.9623 114.2 19.2814ZM139.826 36.3039V53.2033H147.068V41.1124L149.366 41.1153L151.664 41.1168L155.145 47.1579L158.627 53.1989L162.456 53.2004C164.563 53.2019 166.283 53.111 166.28 52.9967C166.276 52.8838 164.594 49.9586 162.541 46.4969L158.811 40.2008L160.39 39.4637C164.151 37.705 165.949 33.8711 165.411 28.746C164.924 24.1075 161.769 20.8847 156.67 19.8192C155.238 19.5202 152.771 19.4118 147.277 19.4089L139.826 19.4045V36.3039ZM180.308 19.7357C180.158 19.9306 179.267 22.0689 178.326 24.487C175.984 30.509 170.585 44.2502 168.685 49.0265C167.827 51.1882 167.122 53.0128 167.122 53.0802C167.122 53.1476 168.804 53.2033 170.859 53.2033H174.595L175.351 51.2116C175.767 50.1154 176.374 48.5384 176.7 47.7075L177.292 46.1965H190.87L192.25 49.6992L193.629 53.2033H197.536C200.547 53.2033 201.412 53.1242 201.308 52.8604C201.233 52.6713 199.482 48.3127 197.415 43.173C195.348 38.0347 192.429 30.7391 190.927 26.9609C189.423 23.1827 188.086 19.9496 187.954 19.7752C187.595 19.3033 180.666 19.2682 180.308 19.7357ZM13.0162 20.1519C12.8915 20.5725 7.99365 32.9316 1.78858 48.4813C0.80516 50.9464 9.83852e-07 53.0494 9.83852e-07 53.152C-0.00148483 53.2561 1.68014 53.303 3.73463 53.2576L7.47075 53.174L8.65323 49.96C9.30241 48.1926 9.95604 46.5907 10.1046 46.4016C10.3066 46.1437 12.0492 46.0587 17.1015 46.0587H23.8294L25.214 49.6303L26.6 53.2004L34.4673 53.2033L28.6871 38.8452C25.5081 30.9487 22.4776 23.4362 21.9532 22.1524L20.998 19.8163L17.0792 19.7401C13.5258 19.6712 13.147 19.7093 13.0162 20.1519ZM28.3455 20.8744C28.6114 21.5325 31.6493 29.0743 35.0957 37.6346L41.3632 53.1975L48.8829 53.1945L51.802 45.8491C54.0274 40.258 56.2616 34.6727 58.5062 29.0904L62.2914 19.6785H54.6914L51.6639 27.4416C49.9986 31.7108 47.8535 37.2433 46.8983 39.7348C45.3682 43.7226 45.1275 44.1842 44.8958 43.5819C44.4962 42.5472 36.0004 20.7117 35.7835 20.1592C35.6157 19.7327 35.1507 19.6785 31.728 19.6785H27.8627L28.3455 20.8744ZM77.016 25.8192C71.6071 27.2086 68.5143 31.5349 68.8738 37.2081C69.1367 41.3747 71.2684 44.5755 74.9258 46.299C76.3059 46.9483 76.7783 47.0201 79.6617 47.0201C82.6506 47.0201 82.973 46.9673 84.4748 46.217C86.4595 45.2248 88.3744 43.2477 89.3608 41.1725C90.0352 39.7524 90.1065 39.2951 90.1065 36.4358C90.1065 33.4138 90.0649 33.1852 89.1944 31.4411C86.9809 27.0034 81.7682 24.5984 77.016 25.8192ZM115.644 25.8779C112.505 26.7118 110.31 28.595 108.815 31.7357C108.038 33.3698 107.949 33.8212 107.946 36.1661C107.942 40.2756 109.225 43.0176 112.177 45.2057C114.18 46.6889 116.173 47.2341 119.149 47.1124C123.231 46.9439 126.203 45.1398 127.857 41.8261C129.512 38.5066 129.582 34.7152 128.048 31.4104C125.935 26.8569 120.72 24.531 115.644 25.8779ZM147.068 30.3171V35.108L151.037 35.0186C154.332 34.9453 155.194 34.8369 156.112 34.3796C157.612 33.6351 158.301 32.3791 158.301 30.3962C158.301 28.3004 157.627 27.1573 155.881 26.3014C154.69 25.7166 154.118 25.636 150.804 25.5833L147.068 25.5261V30.3171ZM16.482 28.6536C15.7303 30.6981 14.9831 32.744 14.2403 34.7929C13.3341 37.2858 12.5022 39.5428 12.3938 39.8066C12.2096 40.2536 12.5334 40.2873 16.9796 40.2873H21.7631L21.5685 39.6703C21.46 39.3303 20.4068 36.3508 19.2258 33.0503L17.0777 27.0488L16.482 28.6536ZM184.013 27.3727C183.922 27.5999 182.888 30.4431 181.716 33.6937C180.544 36.9429 179.525 39.7553 179.452 39.9444C179.348 40.2111 180.391 40.2873 184.113 40.2873C188.568 40.2873 188.894 40.2536 188.715 39.8066C188.559 39.4182 184.839 28.8984 184.319 27.3727C184.194 27.0063 184.16 27.0063 184.013 27.3727Z" fill="#0288FD"/>
<path id="Vector_2" d="M17.1125 0.0527375L17.1482 0.0629966C17.2908 0.105498 17.426 0.177311 17.5418 0.268175L17.5701 0.291624C17.625 0.334126 17.625 0.334126 17.6458 0.353178V0.37223H17.6651V0.391283L17.683 0.398611C17.7156 0.416198 17.7349 0.445509 17.7572 0.476286C17.7617 0.482148 17.7676 0.489476 17.7721 0.495338C17.8865 0.653619 17.9504 0.820694 17.9756 1.01268C17.983 1.08743 17.9815 1.16217 17.9815 1.23691C17.9815 1.26623 17.9815 1.297 17.9815 1.32631C17.9815 1.34537 17.9801 1.36442 17.9801 1.38347V1.45821C17.9786 1.48166 17.9741 1.50365 17.9697 1.52563C17.9682 1.54175 17.9667 1.55641 17.9667 1.57253L17.9652 1.59891L17.9637 1.62822V1.659C17.9622 1.69124 17.9608 1.72348 17.9593 1.75572C17.9578 1.80702 17.9563 1.85978 17.9533 1.91254C17.9504 1.98289 17.9474 2.0547 17.94 2.12651H17.9221L17.9236 2.14996C17.9296 2.19979 17.9325 2.24522 17.9221 2.29505C17.9147 2.35074 17.9117 2.4035 17.9117 2.4592C17.9117 2.56032 17.9117 2.56032 17.8924 2.59549C17.8909 2.61894 17.8894 2.64239 17.888 2.66437C17.885 2.73179 17.885 2.73179 17.879 2.75524C17.8731 2.77576 17.8716 2.79481 17.8701 2.81533L17.8672 2.84024C17.8672 2.85783 17.8657 2.87395 17.8642 2.89007C17.8597 2.9399 17.8523 2.98826 17.8419 3.03809C17.8241 3.1187 17.8152 3.19931 17.8063 3.28138C17.8033 3.30922 17.8003 3.33853 17.7973 3.36638L17.7959 3.3869C17.7914 3.42793 17.781 3.46604 17.7691 3.50561C17.7676 3.5188 17.7661 3.53052 17.7647 3.54371L17.7617 3.56277L17.7572 3.60087C17.7528 3.64044 17.7439 3.67415 17.732 3.71225C17.729 3.73277 17.7275 3.75329 17.726 3.77234C17.7246 3.81045 17.7201 3.84269 17.7082 3.87933C17.6948 3.92916 17.6889 3.98045 17.68 4.03028L17.6666 4.10356L17.6607 4.13873C17.6532 4.18123 17.6473 4.22227 17.6399 4.26331L17.6339 4.29701C17.6265 4.33072 17.6206 4.3659 17.6131 4.3996C17.6072 4.42745 17.6013 4.4553 17.5968 4.48314L17.5775 4.57401C17.5671 4.62384 17.5567 4.67513 17.5463 4.72496C17.5389 4.7572 17.5314 4.78798 17.5255 4.82022L17.5225 4.83927L17.5121 4.88471H17.4943L17.4898 4.91988C17.4794 5.00781 17.4661 5.09282 17.4438 5.17782C17.4245 5.2511 17.4081 5.32438 17.3903 5.39912C17.3784 5.45041 17.3651 5.50171 17.3472 5.55154C17.3383 5.57938 17.3324 5.6087 17.3279 5.63654C17.2952 5.80362 17.2952 5.80362 17.264 5.87543C17.2551 5.90181 17.2522 5.92526 17.2507 5.9531L17.2477 5.98095L17.2462 6.00147C17.2744 5.95603 17.3027 5.90914 17.3279 5.86224C17.4958 5.55593 17.6934 5.26282 17.885 4.97117C17.9088 4.93307 17.9325 4.89496 17.9578 4.85833C18.0187 4.76306 18.0811 4.66927 18.1464 4.57547C18.1717 4.53883 18.197 4.50219 18.2222 4.46555C18.3708 4.25158 18.5223 4.03761 18.6783 3.82803C18.7065 3.79139 18.7347 3.75329 18.7615 3.71518C18.8209 3.63311 18.8833 3.55397 18.9486 3.47483C18.9828 3.4338 19.0155 3.39129 19.0482 3.34879C19.066 3.32681 19.0823 3.30483 19.1002 3.28284L19.115 3.26526C19.1239 3.255 19.1328 3.24327 19.1417 3.23301C19.1611 3.20663 19.1804 3.18172 19.1982 3.15534L19.2145 3.13042H19.2339L19.2413 3.11577C19.2576 3.08499 19.2799 3.06008 19.3022 3.03516L19.317 3.01758C19.3423 2.98826 19.369 2.95895 19.3958 2.92964C19.4136 2.90912 19.4285 2.89007 19.4433 2.86809C19.4656 2.83585 19.4923 2.81093 19.5206 2.78309C19.5399 2.76403 19.5399 2.76403 19.5577 2.73472C19.5785 2.70688 19.5978 2.68929 19.626 2.66731C19.6453 2.65118 19.6453 2.65118 19.6602 2.62627C19.6869 2.5867 19.7196 2.55739 19.7538 2.52515L19.7805 2.49877C19.7969 2.48264 19.7969 2.48264 19.8117 2.45773C19.8355 2.42256 19.8637 2.39618 19.8934 2.36686L19.9113 2.34928C19.935 2.32583 19.9588 2.30238 19.984 2.27893C20.0702 2.19686 20.0702 2.19686 20.146 2.10306C20.1846 2.0503 20.2351 2.01073 20.2901 1.97702L20.3183 1.95064C20.4119 1.8715 20.5263 1.81874 20.6421 1.77917L20.6674 1.77038C20.8471 1.71469 21.0685 1.71615 21.2512 1.75572C21.4681 1.80702 21.6538 1.89788 21.8217 2.04151L21.8469 2.06349C21.8692 2.08401 21.893 2.10599 21.9167 2.12651L21.9346 2.14263C21.9821 2.18807 22.0237 2.24083 22.0593 2.29505V2.3141H22.0772L22.089 2.33462L22.1202 2.39031C22.1292 2.4079 22.1396 2.42549 22.15 2.44307C22.1633 2.46506 22.1737 2.48704 22.1826 2.51196V2.5486H22.2019C22.2673 2.73472 22.2673 2.73472 22.2777 2.82119L22.2807 2.84757C22.297 3.00878 22.2985 3.19344 22.2391 3.34586C22.2376 3.35319 22.2346 3.36052 22.2317 3.36785C22.2227 3.39129 22.2138 3.41621 22.2019 3.43966C22.1871 3.46897 22.1752 3.49975 22.1633 3.53052C22.1544 3.55251 22.1544 3.55251 22.1351 3.58035H22.1158V3.60966H22.0965L22.0905 3.62872C22.0237 3.77674 21.8469 3.91304 21.7251 4.01563C21.6954 4.04201 21.6657 4.06839 21.6374 4.09623C21.5869 4.14166 21.5364 4.1871 21.4859 4.23106C21.4681 4.24572 21.4681 4.24572 21.4592 4.26624L21.4369 4.27943C21.4116 4.29262 21.4116 4.29262 21.3908 4.3146L21.3745 4.33219H21.3552L21.3478 4.34831C21.3359 4.36883 21.3359 4.36883 21.3151 4.38055C21.2883 4.39667 21.275 4.41133 21.2557 4.43478C21.2289 4.46702 21.2007 4.48754 21.165 4.50952C21.1487 4.52271 21.1338 4.5359 21.1175 4.54909C21.0774 4.58427 21.0358 4.61797 20.9942 4.65022L20.966 4.6722C20.9586 4.67953 20.9496 4.68685 20.9407 4.69418L20.917 4.71177L20.8991 4.72642H20.8798V4.74401C20.865 4.75867 20.8486 4.77186 20.8323 4.78358L20.8041 4.80703C20.7654 4.83634 20.7268 4.86565 20.6897 4.89496L20.6496 4.92574C20.5307 5.01661 20.4134 5.10601 20.2916 5.19247C20.2678 5.21006 20.2425 5.22765 20.2188 5.24523L20.1727 5.27748L20.1504 5.29506C20.1148 5.31998 20.0836 5.34196 20.042 5.35369V5.37274C20.0286 5.38446 20.0286 5.38446 20.0093 5.39912L19.9885 5.41378L19.941 5.44602C19.9172 5.4636 19.8949 5.47973 19.8711 5.49585L19.8533 5.50757C19.8251 5.52809 19.7954 5.54714 19.7657 5.56766C19.7449 5.58085 19.7256 5.5955 19.7048 5.60869C19.6186 5.66732 19.531 5.72594 19.4433 5.7831C19.4225 5.79629 19.4032 5.80948 19.3824 5.82267C19.3052 5.87396 19.2264 5.92526 19.1462 5.97655C19.115 5.9956 19.0853 6.01612 19.0556 6.03664C19.0303 6.05423 19.0051 6.07035 18.9769 6.085C18.9353 6.10845 18.8952 6.13483 18.8536 6.16121C18.7867 6.20371 18.7199 6.24475 18.653 6.28579C18.607 6.31363 18.5624 6.34294 18.5163 6.37225C18.4926 6.38691 18.4673 6.4001 18.4435 6.41329C18.4124 6.43234 18.3826 6.4514 18.3514 6.47045C18.2995 6.50269 18.246 6.53347 18.1925 6.56131C18.1613 6.57743 18.1346 6.59649 18.1048 6.61554C18.0588 6.64631 18.0083 6.6727 17.9578 6.69614L17.94 6.70494L17.931 6.72399L17.9474 6.71959C18.1568 6.66537 18.3663 6.61407 18.5772 6.56424L18.5966 6.55838C18.6337 6.54959 18.6708 6.54079 18.7095 6.532C18.7243 6.52907 18.7377 6.52467 18.7525 6.52174C18.8818 6.49097 19.0125 6.46165 19.1417 6.43381L19.17 6.42795C19.326 6.39424 19.4819 6.36493 19.6379 6.33562C19.6914 6.32682 19.7434 6.31656 19.7969 6.30484C19.8815 6.28872 19.9677 6.2726 20.0554 6.25794C20.0628 6.25648 20.0717 6.25501 20.0791 6.25354L20.1014 6.24915C20.1192 6.24622 20.1192 6.24622 20.1371 6.23596C20.1564 6.23303 20.1742 6.2301 20.192 6.22863L20.2262 6.22423L20.2975 6.21397C20.3569 6.20518 20.4178 6.19639 20.4787 6.18466C20.5604 6.16854 20.6451 6.15828 20.7283 6.14656C20.7506 6.14363 20.7729 6.14069 20.7937 6.13776C20.8085 6.1363 20.8234 6.13337 20.8367 6.1319C20.8798 6.12604 20.9214 6.12018 20.9645 6.11431C21.0388 6.10406 21.1145 6.09673 21.1903 6.0894C21.3032 6.07914 21.4161 6.06742 21.529 6.05276C21.7741 6.02198 22.0237 6.01026 22.2703 6.0044H22.303L22.3312 6.00293C22.355 6.00293 22.355 6.00293 22.3817 5.99267C22.4025 5.99121 22.4233 5.99121 22.4441 5.99121H22.4634C22.4842 5.99121 22.505 5.99121 22.5258 5.99121L22.5466 5.98974C22.5852 5.98974 22.6224 5.98974 22.661 5.98974C22.6996 5.98974 22.7382 5.98974 22.7768 5.98974C22.808 5.98974 22.8378 5.98974 22.8675 5.98974C22.8823 5.98974 22.8957 5.98974 22.9105 5.98974C23.0903 5.98828 23.2537 6.02638 23.4127 6.11285C23.536 6.1832 23.6533 6.26673 23.7424 6.37665L23.7618 6.40157C23.9029 6.5789 23.9994 6.79287 24.0336 7.0171C24.0529 7.149 24.0529 7.27797 24.0277 7.40987L24.0232 7.43919C24.0188 7.4597 24.0143 7.48169 24.0084 7.50367L23.9994 7.54324C23.992 7.58281 23.9772 7.61652 23.9608 7.65316L23.946 7.69419C23.9044 7.79678 23.8479 7.89205 23.787 7.98438L23.7751 8.0005C23.7514 8.03567 23.7261 8.06498 23.6949 8.09429L23.6801 8.11041C23.5894 8.20421 23.478 8.2687 23.3621 8.32878L23.3339 8.34344C23.1987 8.40792 23.0532 8.42405 22.9061 8.42405H22.866C22.8229 8.42551 22.7798 8.42551 22.7367 8.42551H22.7145C22.4411 8.42551 22.1693 8.41525 21.8974 8.39473L21.8662 8.3918C21.7563 8.38448 21.6449 8.37568 21.5335 8.36103C21.4562 8.35223 21.3804 8.34491 21.3032 8.33758C21.1814 8.32732 21.0596 8.31559 20.9407 8.29361C20.8665 8.28042 20.7922 8.27163 20.7179 8.26283C20.6288 8.25257 20.5411 8.24085 20.4535 8.22326C20.397 8.213 20.3406 8.20568 20.2826 8.19835C20.1801 8.18369 20.0761 8.16611 19.9736 8.14559C19.9231 8.1368 19.8726 8.128 19.8221 8.11774C19.7672 8.10895 19.7137 8.09869 19.6587 8.08843C19.4493 8.05033 19.2428 8.00343 19.0348 7.95653C18.9798 7.94334 18.9263 7.93162 18.8714 7.91989C18.7184 7.88765 18.5668 7.85248 18.4153 7.81584L18.3886 7.80851C18.2935 7.78506 18.1984 7.76161 18.1048 7.7367C18.0558 7.72351 18.0083 7.71178 17.9593 7.70006V7.681L17.931 7.70006C17.983 7.73523 18.035 7.76601 18.09 7.79532C18.1316 7.8173 18.1717 7.84075 18.2133 7.8642L18.2356 7.87739C18.2816 7.90377 18.3247 7.93015 18.3678 7.95946C18.3916 7.97412 18.4153 7.98731 18.4406 8.0005C18.4792 8.02102 18.5163 8.04446 18.5535 8.06938C18.5847 8.0899 18.6159 8.10748 18.6486 8.12654L18.6679 8.13826C18.6946 8.15438 18.7228 8.1705 18.7511 8.18662L18.7763 8.20128L18.8001 8.21447L18.8149 8.22619V8.24378L18.8625 8.25404V8.27309L18.8788 8.27456C18.9055 8.28335 18.9234 8.29654 18.9457 8.31266C18.9769 8.33318 19.0066 8.3537 19.0392 8.37129C19.0808 8.39327 19.1195 8.41965 19.1581 8.44603C19.1759 8.46068 19.1759 8.46068 19.1967 8.46948V8.48853L19.2145 8.49293C19.2339 8.49732 19.2339 8.49732 19.2532 8.50758V8.52517L19.2695 8.5281C19.2948 8.53689 19.3141 8.54862 19.3364 8.56327L19.3646 8.58086C19.4106 8.61017 19.4567 8.64095 19.5027 8.67173C19.5265 8.68638 19.5488 8.70104 19.5726 8.71716L19.6037 8.73621L19.632 8.75526L19.6528 8.76992V8.78897L19.6721 8.79483C19.7077 8.81096 19.7374 8.83147 19.7686 8.85199L19.788 8.86665C19.8607 8.91501 19.9306 8.96631 20.0019 9.0176C20.0301 9.03812 20.0598 9.05717 20.088 9.07769C20.1014 9.08795 20.1163 9.09821 20.1296 9.10846C20.1683 9.13484 20.2054 9.16269 20.244 9.18907L20.2678 9.20519C20.2826 9.21692 20.299 9.22718 20.3138 9.23743L20.3346 9.25209L20.3525 9.26528L20.3658 9.277V9.29459L20.3851 9.30192C20.4208 9.31804 20.4475 9.34002 20.4787 9.36494C20.5307 9.40744 20.5842 9.44848 20.6392 9.48805L20.6585 9.5027L20.6763 9.51589L20.6926 9.52762C20.706 9.53788 20.7194 9.54667 20.7313 9.55546L20.7461 9.56719V9.58624L20.7625 9.59357C20.7847 9.60529 20.8026 9.61702 20.8219 9.63167L20.8427 9.64779L20.865 9.66391L20.8858 9.6815C20.9006 9.69176 20.914 9.70202 20.9274 9.71228C20.9437 9.724 20.9586 9.73719 20.9749 9.74892L20.9942 9.76504V9.78262L21.0091 9.78995C21.0343 9.80314 21.0551 9.8178 21.0774 9.83539L21.0997 9.85151L21.1175 9.86763V9.88668L21.165 9.90573V9.92332L21.1799 9.93065C21.2111 9.94677 21.2349 9.97022 21.2601 9.99367C21.2883 10.02 21.3136 10.0435 21.3448 10.064V10.0831L21.3626 10.086L21.3834 10.0933C21.3894 10.105 21.3968 10.1182 21.4027 10.13C21.4146 10.1373 21.428 10.1432 21.4399 10.149C21.4518 10.1578 21.4622 10.1651 21.4711 10.1739L21.4889 10.1886L21.5067 10.2047L21.5483 10.2399L21.5676 10.256C21.584 10.2707 21.584 10.2707 21.5929 10.2985C21.6048 10.3058 21.6181 10.3117 21.6315 10.3176C21.6523 10.3381 21.6731 10.3601 21.6939 10.3806C21.7162 10.4026 21.7162 10.4026 21.7429 10.4187C21.7771 10.4421 21.8038 10.467 21.8335 10.4964L21.8499 10.5125C21.8603 10.5227 21.8722 10.5345 21.884 10.5462C21.9019 10.5623 21.9182 10.5799 21.936 10.5975C21.9969 10.6561 22.0504 10.7162 22.0965 10.7865C22.1039 10.7968 22.1113 10.8071 22.1188 10.8173C22.2198 10.9624 22.2718 11.1222 22.2851 11.2951C22.297 11.4929 22.297 11.4929 22.2777 11.5662C22.2747 11.5853 22.2733 11.6043 22.2703 11.6234C22.2539 11.7406 22.2138 11.8564 22.1544 11.9605L22.1396 11.9868C22.1009 12.0528 22.0579 12.1143 22.0118 12.1759L21.9984 12.192C21.9256 12.2873 21.8558 12.3767 21.7489 12.4353C21.7266 12.447 21.7087 12.4602 21.688 12.4749L21.6597 12.4954H21.6315V12.513C21.6062 12.5262 21.5795 12.5394 21.5543 12.5511L21.529 12.5643C21.3181 12.6654 21.0997 12.6947 20.8679 12.6815C20.7045 12.6683 20.5352 12.6097 20.4 12.5218C20.3079 12.4573 20.3079 12.4573 20.2752 12.4236C20.2604 12.4075 20.2604 12.4075 20.2321 12.4016C20.2188 12.3869 20.2188 12.3869 20.2039 12.3693C20.1757 12.3356 20.146 12.3049 20.1148 12.2741L20.0999 12.2609C20.0851 12.2462 20.0717 12.2316 20.0568 12.2184C19.9959 12.1583 19.9365 12.0997 19.8815 12.0352C19.8667 12.0205 19.8533 12.0044 19.8399 11.9898L19.8221 11.9692C19.8117 11.9575 19.8013 11.9473 19.7909 11.937C19.7672 11.9136 19.7464 11.8886 19.7256 11.8637C19.7107 11.8461 19.7107 11.8461 19.6899 11.8373L19.678 11.8168C19.6617 11.7904 19.6453 11.7729 19.6231 11.7523C19.583 11.7142 19.5488 11.6732 19.5131 11.6307C19.4894 11.6014 19.4641 11.5721 19.4389 11.5428C19.3987 11.4959 19.3586 11.449 19.32 11.4021C19.3037 11.3816 19.2858 11.361 19.268 11.342C19.222 11.2907 19.1804 11.235 19.1388 11.1808C19.0734 11.0958 19.0081 11.0122 18.9353 10.9316C18.9234 10.9184 18.913 10.9038 18.9011 10.8906V10.8627H18.8818C18.8521 10.829 18.8268 10.7909 18.8045 10.7514C18.7882 10.7235 18.7719 10.7059 18.7496 10.6839L18.7199 10.637C18.7109 10.6253 18.702 10.6121 18.6916 10.6004C18.6278 10.5198 18.5654 10.4363 18.5074 10.3498C18.4837 10.3146 18.4584 10.2795 18.4332 10.2457C18.4094 10.212 18.3856 10.1798 18.3633 10.1476C18.3009 10.0596 18.3009 10.0596 18.2356 9.97608C18.2148 9.9497 18.2029 9.92478 18.188 9.89547C18.1732 9.87349 18.1583 9.85151 18.1435 9.82952L18.1301 9.81047C18.1227 9.79728 18.1138 9.78556 18.1048 9.77237C18.0558 9.70202 18.0083 9.63021 17.9622 9.55839C17.9414 9.52469 17.9177 9.49244 17.8954 9.4602C17.8731 9.43089 17.8538 9.40158 17.8375 9.36934C17.8241 9.34735 17.8092 9.32537 17.7959 9.30338C17.7379 9.21398 17.6815 9.12312 17.6265 9.03226C17.5864 8.96484 17.5448 8.89742 17.5032 8.83001C17.4646 8.76992 17.4274 8.70836 17.3903 8.64681C17.3799 8.62922 17.368 8.61017 17.3561 8.59112L17.3443 8.57207C17.3383 8.56034 17.3309 8.54862 17.3235 8.53689C17.3131 8.52077 17.3041 8.50465 17.2937 8.48853L17.2833 8.47094C17.2729 8.45482 17.264 8.4387 17.2566 8.42258V8.40353H17.2373C17.2418 8.44456 17.2492 8.47827 17.2655 8.51638C17.27 8.53543 17.2759 8.55448 17.2804 8.57353L17.2878 8.60284L17.2937 8.62922C17.2967 8.64095 17.2997 8.65414 17.3041 8.66586C17.3101 8.69078 17.3101 8.69078 17.3131 8.71276L17.3041 8.74207H17.322L17.3279 8.77138L17.3368 8.80949L17.3398 8.83001C17.3457 8.85785 17.3517 8.88423 17.3606 8.91061L17.3517 8.92967H17.3695V9.00441H17.3888L17.3933 9.02932C17.4007 9.0601 17.4066 9.09234 17.4126 9.12312C17.4156 9.13631 17.417 9.1495 17.42 9.16269C17.4245 9.18321 17.4274 9.20226 17.4319 9.22131L17.4393 9.25649C17.4453 9.28726 17.4453 9.28726 17.4646 9.31364C17.4705 9.34002 17.475 9.36494 17.478 9.38985C17.4884 9.45141 17.4987 9.51149 17.5136 9.57305L17.5181 9.59357C17.5225 9.60969 17.527 9.62581 17.5314 9.64193L17.5418 9.65219L17.5448 9.68736C17.5493 9.73426 17.5597 9.77676 17.573 9.82219C17.579 9.85004 17.5834 9.87642 17.5894 9.90573C17.5953 9.94091 17.6027 9.97754 17.6102 10.0127C17.628 10.0992 17.6443 10.1857 17.6607 10.2707C17.6711 10.3293 17.683 10.3864 17.6948 10.4451C17.7364 10.6488 17.7364 10.6488 17.7216 10.6927H17.7409L17.7439 10.7206C17.7513 10.7953 17.7632 10.8686 17.778 10.9419C17.8018 11.0621 17.8152 11.1822 17.83 11.3039C17.8389 11.3874 17.8493 11.471 17.8642 11.553C17.8746 11.6131 17.8805 11.6747 17.8865 11.7362C17.8909 11.7846 17.8954 11.833 17.9028 11.8813C17.9117 11.9443 17.9162 12.0059 17.9177 12.0689C17.9206 12.1055 17.9236 12.1393 17.931 12.1759C17.934 12.2037 17.934 12.2301 17.9355 12.258C17.9385 12.3005 17.94 12.343 17.9459 12.3869C17.9504 12.4324 17.9533 12.4793 17.9548 12.5262L17.9563 12.554C17.9578 12.6068 17.9608 12.661 17.9622 12.7152L17.9637 12.7504C17.9637 12.7724 17.9652 12.7958 17.9652 12.8178L17.9667 12.8501V12.8779C17.9682 12.9087 17.9682 12.9087 17.9741 12.9424C17.9801 12.9878 17.9801 13.0318 17.9801 13.0757V13.1036C17.9801 13.1212 17.9801 13.1402 17.9801 13.1578C17.9801 13.1871 17.9801 13.215 17.9815 13.2428C17.9815 13.4583 17.9815 13.4583 17.94 13.555C17.9385 13.5682 17.9355 13.5799 17.9325 13.5931C17.9058 13.7162 17.8389 13.832 17.7602 13.9302L17.7394 13.9551C17.7008 14.0064 17.7008 14.0064 17.6844 14.024H17.6651V14.043H17.6458V14.0621H17.6265L17.6176 14.0899C17.5983 14.106 17.579 14.1222 17.5597 14.1383L17.5418 14.1515C17.3621 14.2863 17.1407 14.3728 16.9179 14.4021C16.6683 14.4285 16.4232 14.4021 16.19 14.3054C16.0994 14.2643 16.0147 14.2145 15.9345 14.1559C15.9211 14.1471 15.9077 14.1383 15.8944 14.1295L15.8676 14.109V14.0899L15.8498 14.0826C15.829 14.0709 15.8142 14.0591 15.7978 14.0416L15.7815 14.0269C15.6448 13.873 15.5527 13.6971 15.5037 13.4978C15.4844 13.4084 15.4859 13.3176 15.4859 13.2267V13.2062C15.4859 13.1651 15.4859 13.1226 15.4873 13.0801C15.4873 13.0655 15.4873 13.0508 15.4873 13.0362C15.4903 12.6522 15.5215 12.2712 15.5586 11.8901L15.5616 11.8608C15.5765 11.7054 15.5928 11.5501 15.6196 11.3977C15.6359 11.3009 15.6493 11.2057 15.6611 11.109C15.6656 11.0826 15.6686 11.0547 15.673 11.0284L15.676 11.002C15.6819 10.9609 15.6879 10.9214 15.6968 10.8803C15.7057 10.8334 15.7117 10.788 15.7176 10.7396C15.7325 10.6283 15.7547 10.5198 15.777 10.4084C15.7815 10.382 15.7874 10.3542 15.7919 10.3278C15.8246 10.13 15.8647 9.93504 15.9122 9.74012C15.9241 9.69469 15.9315 9.64926 15.9389 9.60383C15.9449 9.56572 15.9553 9.53055 15.9642 9.49537C15.9716 9.4646 15.9776 9.43529 15.985 9.40597C16.0028 9.3239 16.0221 9.24183 16.0414 9.15976L16.0474 9.13631C16.0712 9.03958 16.0949 8.94286 16.1187 8.84466L16.1261 8.81828C16.1335 8.78604 16.1425 8.75233 16.1529 8.71862C16.1662 8.67026 16.1781 8.6219 16.19 8.57207C16.2063 8.51345 16.2212 8.45336 16.2375 8.39473C16.2093 8.42111 16.19 8.44749 16.1707 8.48267L16.1558 8.50905C16.1425 8.53689 16.1276 8.56474 16.1142 8.59112H16.0949L16.0934 8.60724C16.0845 8.63509 16.0697 8.65854 16.0533 8.68492C16.0325 8.71862 16.0147 8.75087 15.9998 8.78897H15.982L15.9746 8.80802C15.9597 8.84173 15.9404 8.87251 15.9211 8.90475L15.9092 8.9238C15.8929 8.95165 15.8751 8.97949 15.8572 9.00588C15.8409 9.02932 15.826 9.05424 15.8127 9.07915C15.7518 9.192 15.6775 9.29752 15.6047 9.40304C15.5809 9.43675 15.5586 9.47046 15.5393 9.5071C15.52 9.54374 15.4963 9.57451 15.4695 9.60676C15.4561 9.62434 15.4561 9.62434 15.4487 9.65219H15.4294L15.422 9.67271C15.4101 9.69909 15.3967 9.72107 15.3774 9.74452C15.3536 9.77823 15.3328 9.81047 15.315 9.84857H15.2972C15.2927 9.85883 15.2927 9.85883 15.2898 9.86909C15.2779 9.89694 15.263 9.91746 15.2452 9.94237L15.2274 9.96729L15.211 9.98927C15.1917 10.0171 15.1739 10.042 15.1635 10.0743H15.1442L15.1382 10.0919C15.1204 10.1329 15.0937 10.1666 15.0669 10.2018L15.0506 10.2252C15.0343 10.2457 15.0179 10.2677 15.0016 10.2897C14.9496 10.3601 14.9496 10.3601 14.8991 10.4319C14.8708 10.4758 14.8396 10.5198 14.8099 10.5623L14.7936 10.5843L14.7787 10.6048L14.7669 10.6239L14.755 10.637H14.7357L14.7297 10.6561C14.7178 10.681 14.7074 10.6942 14.6896 10.7147C14.654 10.7528 14.6242 10.7953 14.593 10.8378C14.5515 10.8979 14.5069 10.9551 14.4593 11.0122C14.4133 11.0694 14.3672 11.1265 14.3227 11.1852C14.3004 11.213 14.2781 11.2409 14.2543 11.2672C14.2321 11.2907 14.2321 11.2907 14.2217 11.3127H14.2024L14.1964 11.3273C14.1741 11.3684 14.1474 11.405 14.1147 11.4372C14.0909 11.4607 14.0716 11.4856 14.0523 11.5135C14.0256 11.5501 13.9973 11.5823 13.9632 11.6146C13.9201 11.6571 13.883 11.7069 13.8458 11.7538C13.8354 11.767 13.8235 11.7787 13.8131 11.7904H13.7938V11.8095H13.7745V11.8286H13.7552L13.7493 11.8432C13.7329 11.874 13.7121 11.8974 13.6898 11.9223H13.6705L13.6631 11.9399C13.6512 11.959 13.6408 11.9736 13.6245 11.9898L13.6096 12.0059L13.5918 12.0235C13.5814 12.0337 13.571 12.0455 13.5606 12.0572L13.5443 12.0733C13.5279 12.0909 13.5116 12.1085 13.4967 12.1275C13.4536 12.1759 13.4061 12.2213 13.3601 12.2668L13.3333 12.2931C13.317 12.3093 13.3006 12.3254 13.2843 12.3415C13.268 12.3562 13.2516 12.3723 13.2368 12.3884C13.2145 12.4104 13.1907 12.4294 13.1654 12.4485L13.1417 12.4675L13.1194 12.4851L13.0986 12.5012L13.0808 12.513H13.0525V12.532C12.8238 12.6493 12.6069 12.6947 12.3484 12.683C12.1761 12.6683 12.0142 12.6038 11.8626 12.5232L11.8329 12.5071C11.723 12.447 11.619 12.3767 11.5403 12.2785C11.5254 12.2638 11.5121 12.2477 11.4972 12.233C11.4556 12.1891 11.4214 12.1422 11.3873 12.0909L11.3709 12.0689C11.316 11.9883 11.2803 11.9004 11.2447 11.8095L11.2372 11.7904C11.1644 11.6043 11.163 11.3933 11.1927 11.1984C11.1971 11.172 11.1971 11.172 11.2075 11.1441L11.212 11.1192C11.2387 10.9741 11.316 10.8554 11.4066 10.7396L11.4229 10.7191C11.4719 10.6576 11.5254 10.6019 11.5804 10.5477L11.6056 10.5227C11.6561 10.4729 11.7081 10.4289 11.7631 10.385C11.8002 10.3542 11.8329 10.3205 11.8671 10.2868C11.9057 10.2472 11.9384 10.2135 11.9874 10.1871C12.0097 10.1651 12.0305 10.1432 12.0528 10.1197C12.0795 10.0919 12.1033 10.0787 12.1389 10.064C12.1493 10.0464 12.1493 10.0464 12.1583 10.0274C12.1716 10.0127 12.1716 10.0127 12.188 10.001C12.2132 9.98048 12.237 9.95996 12.2622 9.93797C12.2949 9.91013 12.3306 9.88228 12.3647 9.8559C12.3841 9.84125 12.4034 9.82513 12.4212 9.80901C12.4554 9.77969 12.491 9.75185 12.5267 9.724C12.5712 9.69029 12.6143 9.65512 12.6574 9.61848C12.7124 9.57158 12.7703 9.52762 12.8267 9.48512C12.8535 9.46606 12.8787 9.44701 12.904 9.42649C12.9352 9.40304 12.9664 9.37959 12.9976 9.35468C13.1224 9.25795 13.2516 9.16416 13.3823 9.07476C13.4314 9.04105 13.4789 9.00587 13.5279 8.97217C13.7166 8.83733 13.9082 8.7069 14.1013 8.5794C14.1266 8.56327 14.1504 8.54715 14.1756 8.53103C14.2945 8.45189 14.4148 8.37568 14.5351 8.29947C14.5633 8.28189 14.5916 8.2643 14.6198 8.24671C14.7193 8.18369 14.8203 8.12214 14.9213 8.06352C14.9555 8.043 14.9897 8.02248 15.0239 8.0005C15.0862 7.96386 15.1486 7.92722 15.211 7.89058C15.2615 7.86127 15.312 7.83196 15.3626 7.80118L15.3952 7.78213C15.416 7.76894 15.4368 7.75721 15.4576 7.74402L15.4873 7.72644L15.5126 7.71178C15.5349 7.70006 15.5349 7.70006 15.5631 7.70006V7.681L15.5304 7.6898C15.4472 7.71178 15.364 7.7323 15.2794 7.75282C15.2244 7.76454 15.1694 7.77773 15.116 7.79385C15.0387 7.81584 14.9585 7.83489 14.8798 7.85247C14.8456 7.8598 14.8129 7.8686 14.7787 7.87592L14.7223 7.88911L14.6688 7.9023C14.6109 7.91549 14.5529 7.92722 14.4935 7.93894C14.4445 7.94774 14.397 7.95946 14.3479 7.97119C14.2603 7.99317 14.1712 8.01222 14.082 8.03127L14.0568 8.03714C13.877 8.07524 13.6988 8.10895 13.5175 8.14119L13.4819 8.14705C13.3318 8.1749 13.1818 8.19688 13.0318 8.21887C12.9634 8.22766 12.8966 8.23792 12.8282 8.25111C12.7688 8.26137 12.7109 8.2687 12.65 8.27456C12.6009 8.28042 12.5534 8.28628 12.5044 8.29508C12.3291 8.32585 12.1538 8.34051 11.977 8.35516C11.9013 8.36249 11.827 8.36835 11.7527 8.37715C11.6918 8.38301 11.6294 8.38887 11.5685 8.39473L11.5462 8.3962C11.2848 8.41965 11.0248 8.42551 10.7633 8.42551C10.7396 8.42551 10.7158 8.42551 10.692 8.42698C10.6549 8.42698 10.6163 8.42698 10.5791 8.42698C10.5658 8.42698 10.5509 8.42698 10.5375 8.42698C10.4499 8.42698 10.3697 8.41818 10.285 8.39473L10.2523 8.38594C10.1335 8.3537 10.0235 8.29801 9.92699 8.22326C9.9047 8.20568 9.9047 8.20568 9.87796 8.19102L9.85717 8.1793V8.16024H9.83786C9.82151 8.14412 9.80517 8.12947 9.79032 8.11335L9.76804 8.09136C9.65068 7.96972 9.54521 7.80411 9.4947 7.64437C9.49024 7.62238 9.48578 7.6004 9.47984 7.57841C9.47539 7.55497 9.46647 7.53445 9.45756 7.51246C9.40259 7.33513 9.39962 7.13142 9.4427 6.95115L9.44716 6.93063L9.4531 6.90719C9.48281 6.79141 9.51995 6.68735 9.58086 6.5833L9.59126 6.56424C9.64771 6.46752 9.71307 6.38398 9.79032 6.30191L9.80666 6.28432L9.81854 6.27406H9.83786V6.25501C9.86162 6.23449 9.88688 6.2169 9.91362 6.19932L9.92847 6.18759C10.0503 6.10259 10.1751 6.04104 10.3221 6.01173L10.3578 6.00147C10.4202 5.98828 10.4841 5.98974 10.5479 5.98974H10.588C10.6252 5.98974 10.6623 5.98974 10.698 5.98974C10.7217 5.98974 10.744 5.98974 10.7678 5.98974C11.0233 5.98974 11.2788 5.99854 11.5358 6.01905C11.5566 6.02052 11.5789 6.02198 11.6012 6.02345C11.6948 6.03078 11.7884 6.03957 11.8819 6.04836L11.9117 6.0513C12.442 6.10406 12.442 6.10406 12.6678 6.13776C12.7049 6.14363 12.7406 6.14802 12.7777 6.15389C13.2576 6.2213 13.2576 6.2213 13.4314 6.25941C13.4967 6.27406 13.5621 6.28579 13.6275 6.29751C13.7092 6.31217 13.7894 6.32682 13.8711 6.34294C13.9186 6.3532 13.9662 6.362 14.0152 6.37079C14.1637 6.39863 14.3108 6.42941 14.4579 6.46459C14.4891 6.47045 14.5203 6.47778 14.5529 6.4851C14.6525 6.50855 14.752 6.53054 14.8515 6.55838C14.9035 6.57157 14.9555 6.5833 15.009 6.59355C15.0788 6.60821 15.1472 6.62433 15.217 6.64338C15.269 6.65657 15.321 6.66976 15.373 6.68442L15.4071 6.69321C15.4175 6.69468 15.4294 6.69761 15.4398 6.70054L15.468 6.70787C15.4963 6.7152 15.5245 6.71959 15.5542 6.72399L15.5378 6.7152C15.4502 6.66976 15.3655 6.61994 15.2823 6.56864C15.2497 6.54959 15.217 6.53054 15.1843 6.51148L15.1501 6.49097C15.1264 6.47778 15.1026 6.46312 15.0803 6.44993C14.9778 6.38984 14.8753 6.32829 14.7758 6.26527C14.7371 6.24035 14.6985 6.2169 14.6614 6.19346C14.5589 6.13044 14.4564 6.06595 14.3554 6.00147L14.3346 5.98974C14.1563 5.87689 13.978 5.75965 13.8057 5.63508C13.7834 5.61895 13.7641 5.60723 13.7374 5.59844V5.57938L13.7151 5.57206C13.6913 5.5618 13.672 5.55007 13.6497 5.53542L13.6245 5.51783C13.5784 5.48412 13.5324 5.45041 13.4848 5.41524C13.4046 5.35662 13.3229 5.29946 13.2427 5.2423L13.2219 5.22765C13.2041 5.21446 13.1848 5.20127 13.1669 5.18808L13.1491 5.17635C13.1209 5.15584 13.1209 5.15584 13.0897 5.13825V5.1192L13.0733 5.11187C13.054 5.10161 13.0377 5.09135 13.0199 5.07816L12.9991 5.06204L12.9456 5.02247L12.9292 5.00928C12.9189 5.00195 12.9085 4.99316 12.8981 4.98436C12.8698 4.96385 12.8401 4.94333 12.8119 4.92281L12.7852 4.90376V4.88471L12.7703 4.87738C12.745 4.86565 12.7228 4.85246 12.7005 4.83781V4.82022L12.6841 4.81143C12.6619 4.80117 12.6455 4.78798 12.6277 4.77332L12.6069 4.7572L12.5876 4.74108C12.5341 4.69711 12.5341 4.69711 12.4762 4.65754L12.4524 4.64142V4.62237L12.4375 4.61651C12.4182 4.60478 12.4019 4.59452 12.3855 4.57987C12.3603 4.55788 12.3603 4.55788 12.3395 4.54763V4.52857L12.3232 4.52271C12.292 4.50512 12.2667 4.48021 12.2414 4.4553C12.2058 4.42305 12.1716 4.39081 12.1315 4.36296L12.1003 4.34098V4.32193L12.084 4.3146C12.0617 4.30288 12.0424 4.28822 12.0201 4.2721L11.9993 4.25598C11.9741 4.23546 11.9518 4.21348 11.9295 4.19149C11.9057 4.16658 11.8805 4.14166 11.8552 4.11675L11.8359 4.0977C11.7988 4.05959 11.7586 4.02442 11.7185 3.98925C11.6963 3.97019 11.6755 3.94967 11.6547 3.92769C11.6264 3.89985 11.5967 3.872 11.567 3.84709C11.4957 3.78553 11.4363 3.71958 11.3784 3.6463L11.3605 3.62432C11.313 3.5613 11.2818 3.49242 11.2521 3.42061C11.2447 3.40302 11.2372 3.3869 11.2298 3.36931C11.2164 3.33707 11.2075 3.30629 11.2016 3.27258L11.1941 3.24181C11.1808 3.16706 11.1763 3.09232 11.1763 3.01758V2.9912C11.1778 2.86223 11.1912 2.73179 11.2447 2.61455C11.2506 2.60135 11.2565 2.5867 11.261 2.57351C11.3204 2.42842 11.3962 2.27747 11.5135 2.17048C11.5299 2.15582 11.5447 2.13824 11.5596 2.12065C11.5908 2.08401 11.6264 2.0547 11.6636 2.02392L11.6888 2.00194C11.8077 1.90668 11.9458 1.83633 12.0914 1.78943L12.1226 1.77771C12.3113 1.72055 12.5252 1.71322 12.7198 1.75133C12.8401 1.77771 12.9471 1.82021 13.0525 1.88323V1.90082L13.0674 1.90375C13.1744 1.93599 13.2605 2.03711 13.3363 2.11332L13.3511 2.12651C13.4016 2.17781 13.4492 2.22764 13.4923 2.28479C13.522 2.32143 13.5576 2.35514 13.5918 2.38738C13.6067 2.40204 13.62 2.41523 13.6349 2.42842L13.6527 2.44747C13.6705 2.46506 13.6854 2.48118 13.6988 2.5017V2.52075H13.7181C13.7314 2.53394 13.7314 2.53394 13.7478 2.55299C13.7775 2.58817 13.8087 2.62187 13.8384 2.65558L13.8518 2.67024V2.68929L13.88 2.69955C13.8934 2.7142 13.9067 2.73032 13.9201 2.74645C13.9468 2.77869 13.9736 2.8124 14.0018 2.84317C14.0493 2.8974 14.0493 2.8974 14.0701 2.92378V2.94283L14.0865 2.95016C14.1102 2.96335 14.1221 2.97654 14.137 2.99999V3.01758H14.1548L14.1578 3.03663L14.1652 3.05568L14.1934 3.06447C14.2098 3.08353 14.2246 3.10111 14.2395 3.12017C14.2484 3.13189 14.2573 3.14508 14.2662 3.1568C14.2722 3.16267 14.2766 3.16853 14.2826 3.17586C14.2989 3.19784 14.3167 3.21982 14.3346 3.24181L14.3524 3.26526C14.3643 3.27991 14.3776 3.29457 14.3895 3.31069L14.4059 3.33121L14.4207 3.35026L14.4311 3.36491V3.38397H14.4504L14.4593 3.42207H14.4787C14.495 3.44259 14.5113 3.46311 14.5277 3.48363C14.5381 3.49828 14.5485 3.51147 14.5589 3.52613L14.5752 3.54811C14.599 3.58035 14.6242 3.61259 14.6495 3.64484C14.7059 3.71665 14.7609 3.78993 14.8159 3.86321L14.8322 3.88372L14.8456 3.90424L14.859 3.92036C14.8694 3.93942 14.8738 3.95407 14.8783 3.97459H14.8976C14.9154 3.99804 14.9317 4.02149 14.9496 4.04494L14.9644 4.06692C14.9808 4.09037 14.9956 4.11235 15.012 4.13434C15.0209 4.14753 15.0298 4.16072 15.0387 4.17391C15.0595 4.20468 15.0818 4.23546 15.1026 4.26624C15.1249 4.29848 15.1486 4.33072 15.1709 4.36296L15.1843 4.38202C15.2081 4.41573 15.2318 4.4509 15.2556 4.48461C15.2927 4.5359 15.3284 4.58866 15.3626 4.64142L15.3834 4.67073L15.4175 4.72349C15.4294 4.74401 15.4294 4.74401 15.4294 4.76306H15.4487L15.4576 4.80996H15.4769C15.4918 4.83048 15.5052 4.85246 15.5185 4.87445C15.5274 4.88764 15.5364 4.90083 15.5438 4.91548L15.5586 4.93747C15.5735 4.96092 15.5884 4.98436 15.6032 5.00928L15.6196 5.03273C15.6299 5.04885 15.6403 5.0635 15.6507 5.07963L15.6641 5.10161L15.676 5.12066C15.6864 5.13825 15.6923 5.15584 15.6968 5.17635H15.7146C15.7265 5.19101 15.7265 5.19101 15.7399 5.21446L15.7547 5.24084L15.7726 5.27015C15.7844 5.29067 15.7978 5.31265 15.8112 5.33317C15.8142 5.33903 15.8186 5.34489 15.8216 5.35076C15.8543 5.40498 15.8869 5.45774 15.9196 5.5105L15.936 5.53542C15.9597 5.57352 15.982 5.61016 16.0058 5.6468L16.0177 5.66292C16.0266 5.67758 16.0355 5.69223 16.0459 5.70689C16.0578 5.73034 16.0578 5.73034 16.0578 5.75818H16.0771L16.086 5.80508H16.1053L16.1454 5.87543L16.1573 5.89595C16.1647 5.90914 16.1722 5.92233 16.1796 5.93552C16.187 5.94871 16.1945 5.9619 16.2019 5.97362C16.2108 5.98974 16.2197 6.00586 16.2286 6.02052L16.2479 6.02931L16.2405 6.01173C16.2138 5.93991 16.1915 5.86663 16.1722 5.79189L16.1618 5.75379C16.138 5.66146 16.1142 5.56912 16.0919 5.47533C16.0845 5.44455 16.0771 5.41231 16.0697 5.38007C16.0236 5.18661 15.9776 4.99169 15.936 4.79531C15.9196 4.7147 15.9003 4.63556 15.881 4.55495C15.8721 4.51685 15.8676 4.48314 15.8676 4.44357C15.8617 4.42159 15.8543 4.40107 15.8483 4.37909C15.8439 4.35857 15.8394 4.33952 15.8364 4.32046L15.832 4.30288C15.8171 4.22813 15.8038 4.15485 15.7904 4.08158C15.7815 4.03175 15.7711 3.98192 15.7622 3.93062C15.7428 3.8339 15.7265 3.7357 15.7117 3.63751C15.7057 3.59354 15.6998 3.55104 15.6923 3.50707C15.6463 3.23741 15.6463 3.23741 15.6403 3.1231L15.6389 3.10258L15.6299 3.09378C15.627 3.07473 15.624 3.05568 15.621 3.03809L15.6166 3.00145L15.6121 2.96335L15.6062 2.92231C15.5913 2.79774 15.5765 2.67317 15.5631 2.5486L15.5601 2.51635C15.5408 2.33902 15.5274 2.16169 15.5156 1.98435C15.5156 1.97556 15.5141 1.96677 15.5141 1.95797C15.5126 1.94185 15.5111 1.92573 15.5111 1.90961C15.5081 1.87443 15.5052 1.83926 15.5007 1.80409C15.4948 1.75572 15.4948 1.70736 15.4933 1.65753V1.62822C15.4918 1.6077 15.4918 1.58718 15.4918 1.56667C15.4918 1.53589 15.4903 1.50511 15.4903 1.47434C15.4873 1.37028 15.4859 1.26769 15.4859 1.16364V1.13432C15.4873 1.01708 15.4963 0.91449 15.5349 0.803107C15.5364 0.797245 15.5393 0.789917 15.5408 0.784054C15.578 0.675603 15.6285 0.586203 15.6968 0.493873C15.7027 0.483613 15.7102 0.473355 15.7161 0.46163L15.7339 0.438181H15.7532L15.7607 0.42206C15.774 0.397145 15.7904 0.379559 15.8097 0.360506L15.8305 0.339988L15.8483 0.325332H15.8676V0.30628C15.8855 0.29309 15.9048 0.281366 15.9241 0.268175L15.9464 0.250589C16.1068 0.126016 16.3118 0.043944 16.5124 0.0146327C16.7174 -0.0117473 16.9149 -0.0044196 17.1125 0.0527375Z" fill="#0288FD"/>
</g>
</svg>
