<svg preserveAspectRatio="none" width="100%" height="100%" overflow="visible" style="display: block;" viewBox="0 0 43 43" fill="none" xmlns="http://www.w3.org/2000/svg">
<g id="codicon:workspace-trusted">
<path id="Vector" d="M36.0125 8.0625C31.0756 8.0625 26.6439 7.16756 22.6449 3.1605C22.3425 2.85853 21.9327 2.68892 21.5054 2.68892C21.0781 2.68892 20.6682 2.85853 20.3659 3.1605C16.3561 7.16756 11.9218 8.0625 6.99019 8.0625C6.56253 8.0625 6.15238 8.23239 5.84998 8.53479C5.54758 8.83719 5.37769 9.24734 5.37769 9.675V19.3554C5.37769 29.7345 10.6721 36.7892 20.9921 40.2319C21.3235 40.3425 21.6819 40.3425 22.0133 40.2319C32.336 36.7919 37.6277 29.7345 37.6277 19.3554V9.675C37.6277 8.78544 36.9021 8.0625 36.0125 8.0625ZM34.9375 19.3527C34.9375 28.4794 30.5408 34.4403 21.5 37.5632C12.4592 34.4403 8.0625 28.4794 8.0625 19.3527V10.7366C12.3061 10.6318 17.071 9.79863 21.5027 5.7835C25.9263 9.79594 30.6939 10.6291 34.9375 10.7366V19.3527ZM20.1536 23.6312L27.2647 16.5201C27.3896 16.3951 27.5379 16.296 27.7012 16.2284C27.8644 16.1608 28.0394 16.126 28.2161 16.126C28.3927 16.126 28.5677 16.1608 28.7309 16.2284C28.8942 16.296 29.0425 16.3951 29.1674 16.5201C29.2924 16.645 29.3915 16.7933 29.4591 16.9566C29.5267 17.1198 29.5615 17.2948 29.5615 17.4714C29.5615 17.6481 29.5267 17.8231 29.4591 17.9863C29.3915 18.1496 29.2924 18.2979 29.1674 18.4228L21.1049 26.4853C20.9801 26.6105 20.8318 26.7097 20.6686 26.7775C20.5053 26.8452 20.3303 26.8801 20.1536 26.8801C19.9768 26.8801 19.8018 26.8452 19.6385 26.7775C19.4753 26.7097 19.327 26.6105 19.2022 26.4853L15.1709 22.4541C14.9186 22.2017 14.7769 21.8595 14.7769 21.5027C14.7769 21.1459 14.9186 20.8036 15.1709 20.5513C15.4233 20.299 15.7655 20.1572 16.1223 20.1572C16.4791 20.1572 16.8214 20.299 17.0737 20.5513L20.1536 23.6312Z" fill="#036EAC"/>
</g>
</svg>
