<svg preserveAspectRatio="none" width="100%" height="100%" overflow="visible" style="display: block;" viewBox="0 0 45 45" fill="none" xmlns="http://www.w3.org/2000/svg">
<g id="uiw:message" clip-path="url(#clip0_0_72)">
<path id="Vector" d="M22.5 0C34.5195 0 45 9.9225 45 21.375C45 32.634 34.7558 41.4945 22.5 41.4945C19.8787 41.4963 17.2737 41.0816 14.7825 40.266C13.7385 41.2785 13.3807 41.6227 11.1645 43.7602C9.567 44.9662 8.064 45.3758 6.72075 44.6153C5.36625 43.8503 4.959 42.3607 5.23575 40.3987L6.13575 35.181C2.2275 31.5045 0 26.6445 0 21.375C0 9.9225 10.4783 0 22.5 0ZM22.5 3.15C12.1815 3.15 3.15 11.7 3.15 21.375C3.15 25.9763 5.202 30.213 8.82 33.3675L8.865 33.4058L9.53325 33.9862L9.3825 34.8637L9.072 36.6727L8.98875 37.1543L8.3475 40.8847C8.31075 41.136 8.28822 41.3892 8.28 41.643V41.8568C8.28 41.8673 8.2785 41.8733 8.2755 41.8748C8.29125 41.8523 8.59725 41.7555 9.1215 41.373L14.004 36.6345L14.9355 36.9855C17.3553 37.8878 19.9174 38.3489 22.5 38.3467C33.111 38.3467 41.85 30.7868 41.85 21.375C41.85 11.7023 32.8185 3.15 22.5 3.15ZM11.7608 17.5793C12.214 17.5627 12.666 17.6377 13.0897 17.7997C13.5133 17.9617 13.8999 18.2075 14.2265 18.5223C14.553 18.8372 14.8127 19.2146 14.9901 19.632C15.1675 20.0495 15.259 20.4984 15.259 20.952C15.259 21.4056 15.1675 21.8545 14.9901 22.272C14.8127 22.6894 14.553 23.0668 14.2265 23.3817C13.8999 23.6965 13.5133 23.9423 13.0897 24.1043C12.666 24.2663 12.214 24.3413 11.7608 24.3247C10.8876 24.2928 10.0608 23.9235 9.45431 23.2945C8.84784 22.6655 8.50897 21.8258 8.50897 20.952C8.50897 20.0782 8.84784 19.2385 9.45431 18.6095C10.0608 17.9805 10.8876 17.6112 11.7608 17.5793ZM23.0063 17.5793C23.4595 17.5627 23.9115 17.6377 24.3352 17.7997C24.7588 17.9617 25.1454 18.2075 25.472 18.5223C25.7985 18.8372 26.0582 19.2146 26.2356 19.632C26.413 20.0495 26.5045 20.4984 26.5045 20.952C26.5045 21.4056 26.413 21.8545 26.2356 22.272C26.0582 22.6894 25.7985 23.0668 25.472 23.3817C25.1454 23.6965 24.7588 23.9423 24.3352 24.1043C23.9115 24.2663 23.4595 24.3413 23.0063 24.3247C22.1331 24.2928 21.3063 23.9235 20.6998 23.2945C20.0933 22.6655 19.7545 21.8258 19.7545 20.952C19.7545 20.0782 20.0933 19.2385 20.6998 18.6095C21.3063 17.9805 22.1331 17.6112 23.0063 17.5793ZM34.2495 17.5793C34.7028 17.5627 35.1547 17.6377 35.5784 17.7997C36.0021 17.9617 36.3887 18.2075 36.7152 18.5223C37.0418 18.8372 37.3015 19.2146 37.4789 19.632C37.6563 20.0495 37.7477 20.4984 37.7477 20.952C37.7477 21.4056 37.6563 21.8545 37.4789 22.272C37.3015 22.6894 37.0418 23.0668 36.7152 23.3817C36.3887 23.6965 36.0021 23.9423 35.5784 24.1043C35.1547 24.2663 34.7028 24.3413 34.2495 24.3247C33.3763 24.2928 32.5495 23.9235 31.9431 23.2945C31.3366 22.6655 30.9977 21.8258 30.9977 20.952C30.9977 20.0782 31.3366 19.2385 31.9431 18.6095C32.5495 17.9805 33.3763 17.6112 34.2495 17.5793Z" fill="#0288FD"/>
</g>
<defs>
<clipPath id="clip0_0_72">
<rect width="45" height="45" fill="white"/>
</clipPath>
</defs>
</svg>
