<svg preserveAspectRatio="none" width="100%" height="100%" overflow="visible" style="display: block;" viewBox="0 0 295 295" fill="none" xmlns="http://www.w3.org/2000/svg">
<path id="Vector" d="M155.206 1.07951L155.924 1.28951C158.799 2.15948 161.524 3.62945 163.86 5.4894L164.429 5.96939C165.537 6.83938 165.537 6.83938 165.956 7.22937V7.61935H166.345V8.00935L166.705 8.15935C167.364 8.51934 167.753 9.11933 168.202 9.74931C168.292 9.86931 168.412 10.0193 168.502 10.1393C170.807 13.3792 172.095 16.7991 172.604 20.7291C172.754 22.259 172.724 23.789 172.724 25.319C172.724 25.9189 172.724 26.5489 172.724 27.1489C172.724 27.5389 172.694 27.9289 172.694 28.3189V29.8489C172.664 30.3288 172.574 30.7788 172.484 31.2288C172.454 31.5588 172.424 31.8588 172.424 32.1888L172.394 32.7288L172.365 33.3288V33.9588C172.335 34.6187 172.305 35.2787 172.275 35.9387C172.245 36.9887 172.215 38.0687 172.155 39.1486C172.095 40.5886 172.035 42.0586 171.885 43.5285H171.526L171.556 44.0085C171.676 45.0285 171.736 45.9585 171.526 46.9785C171.376 48.1184 171.316 49.1984 171.316 50.3384C171.316 52.4083 171.316 52.4083 170.927 53.1283C170.897 53.6083 170.867 54.0883 170.837 54.5383C170.777 55.9183 170.777 55.9183 170.658 56.3982C170.538 56.8182 170.508 57.2082 170.478 57.6282L170.418 58.1382C170.418 58.4982 170.388 58.8282 170.358 59.1582C170.268 60.1782 170.119 61.1681 169.909 62.1881C169.55 63.8381 169.37 65.488 169.19 67.168C169.13 67.738 169.071 68.338 169.011 68.908L168.981 69.3279C168.891 70.1679 168.681 70.9479 168.442 71.7579C168.412 72.0279 168.382 72.2679 168.352 72.5379L168.292 72.9279L168.202 73.7078C168.112 74.5178 167.933 75.2078 167.693 75.9878C167.633 76.4078 167.603 76.8278 167.573 77.2178C167.543 77.9978 167.453 78.6577 167.214 79.4077C166.944 80.4277 166.825 81.4777 166.645 82.4977L166.375 83.9976L166.256 84.7176C166.106 85.5876 165.986 86.4276 165.836 87.2675L165.717 87.9575C165.567 88.6475 165.447 89.3675 165.297 90.0575C165.178 90.6275 165.058 91.1975 164.968 91.7675L164.579 93.6274C164.369 94.6474 164.159 95.6973 163.95 96.7173C163.8 97.3773 163.65 98.0073 163.531 98.6673L163.471 99.0573L163.261 99.9873H162.902L162.812 100.707C162.602 102.507 162.333 104.247 161.884 105.987C161.494 107.487 161.165 108.987 160.806 110.517C160.566 111.567 160.297 112.617 159.937 113.637C159.757 114.207 159.638 114.807 159.548 115.377C158.889 118.797 158.889 118.797 158.26 120.267C158.081 120.807 158.021 121.287 157.991 121.857L157.931 122.427L157.901 122.847C158.47 121.917 159.039 120.957 159.548 119.997C162.932 113.727 166.914 107.727 170.777 101.757C171.257 100.977 171.736 100.197 172.245 99.4473C173.472 97.4973 174.73 95.5774 176.048 93.6574C176.557 92.9074 177.066 92.1574 177.575 91.4074C180.57 87.0275 183.624 82.6477 186.768 78.3577C187.337 77.6078 187.906 76.8278 188.445 76.0478C189.643 74.3678 190.901 72.7479 192.218 71.1279C192.907 70.2879 193.566 69.4179 194.225 68.548C194.584 68.098 194.913 67.648 195.273 67.198L195.572 66.838C195.752 66.628 195.932 66.388 196.111 66.178C196.501 65.638 196.89 65.1281 197.249 64.5881L197.579 64.0781H197.968L198.118 63.7781C198.447 63.1481 198.896 62.6381 199.345 62.1281L199.645 61.7681C200.154 61.1681 200.693 60.5682 201.232 59.9682C201.591 59.5482 201.891 59.1582 202.19 58.7082C202.639 58.0482 203.178 57.5382 203.747 56.9682C204.137 56.5782 204.137 56.5782 204.496 55.9783C204.915 55.4083 205.304 55.0483 205.873 54.5983C206.263 54.2683 206.263 54.2683 206.562 53.7583C207.101 52.9483 207.76 52.3483 208.449 51.6884L208.988 51.1484C209.317 50.8184 209.317 50.8184 209.617 50.3084C210.096 49.5884 210.665 49.0484 211.264 48.4484L211.623 48.0884C212.102 47.6085 212.581 47.1285 213.09 46.6485C214.827 44.9685 214.827 44.9685 216.354 43.0486C217.133 41.9686 218.151 41.1586 219.259 40.4686L219.828 39.9286C221.715 38.3087 224.02 37.2287 226.356 36.4187L226.865 36.2387C230.489 35.0987 234.95 35.1287 238.634 35.9387C243.006 36.9887 246.749 38.8486 250.133 41.7886L250.642 42.2386C251.091 42.6586 251.57 43.1086 252.049 43.5285L252.409 43.8585C253.367 44.7885 254.205 45.8685 254.924 46.9785V47.3685H255.283L255.523 47.7884L256.152 48.9284C256.331 49.2884 256.541 49.6484 256.751 50.0084C257.02 50.4584 257.23 50.9084 257.41 51.4184V52.1684H257.799C259.116 55.9783 259.116 55.9783 259.326 57.7482L259.386 58.2882C259.715 61.5881 259.745 65.368 258.547 68.488C258.517 68.638 258.458 68.788 258.398 68.938C258.218 69.418 258.038 69.9279 257.799 70.4079C257.499 71.0079 257.26 71.6379 257.02 72.2679C256.841 72.7179 256.841 72.7179 256.451 73.2879H256.062V73.8878H255.673L255.553 74.2778C254.205 77.3078 250.642 80.0977 248.186 82.1977C247.587 82.7376 246.989 83.2776 246.42 83.8476C245.401 84.7776 244.383 85.7076 243.365 86.6075C243.006 86.9075 243.006 86.9076 242.826 87.3275L242.377 87.5975C241.868 87.8675 241.868 87.8675 241.449 88.3175L241.119 88.6775H240.73L240.58 89.0075C240.341 89.4275 240.341 89.4275 239.921 89.6675C239.382 89.9975 239.113 90.2975 238.724 90.7775C238.185 91.4375 237.616 91.8574 236.897 92.3074C236.568 92.5774 236.268 92.8474 235.939 93.1174C235.13 93.8374 234.292 94.5274 233.453 95.1874L232.884 95.6374C232.734 95.7873 232.555 95.9373 232.375 96.0873L231.896 96.4473L231.537 96.7473H231.147V97.1073C230.848 97.4073 230.519 97.6773 230.189 97.9173L229.62 98.3973C228.842 98.9973 228.063 99.5973 227.314 100.197L226.506 100.827C224.11 102.687 221.745 104.517 219.289 106.287C218.81 106.647 218.301 107.007 217.822 107.367L216.893 108.027L216.444 108.387C215.725 108.897 215.097 109.347 214.258 109.587V109.977C213.989 110.217 213.989 110.217 213.599 110.517L213.18 110.817L212.222 111.477C211.743 111.837 211.294 112.167 210.814 112.497L210.455 112.737C209.886 113.157 209.287 113.547 208.688 113.967C208.269 114.237 207.88 114.537 207.461 114.807C205.724 116.007 203.957 117.207 202.19 118.377C201.771 118.647 201.382 118.917 200.962 119.187C199.405 120.237 197.818 121.287 196.201 122.337C195.572 122.727 194.973 123.147 194.374 123.567C193.865 123.927 193.356 124.257 192.787 124.557C191.949 125.037 191.14 125.577 190.302 126.117C188.954 126.987 187.607 127.827 186.259 128.667C185.331 129.237 184.433 129.837 183.504 130.437C183.025 130.737 182.516 131.007 182.037 131.277C181.408 131.667 180.809 132.057 180.18 132.447C179.132 133.107 178.054 133.736 176.976 134.306C176.347 134.636 175.808 135.026 175.209 135.416C174.281 136.046 173.263 136.586 172.245 137.066L171.885 137.246L171.706 137.636L172.035 137.546C176.257 136.436 180.48 135.386 184.732 134.366L185.121 134.246C185.87 134.066 186.619 133.886 187.397 133.706C187.697 133.646 187.966 133.556 188.266 133.496C190.871 132.867 193.506 132.267 196.111 131.697L196.68 131.577C199.824 130.887 202.969 130.287 206.113 129.687C207.191 129.507 208.239 129.297 209.317 129.057C211.024 128.727 212.761 128.397 214.528 128.097C214.677 128.067 214.857 128.037 215.007 128.007L215.456 127.917C215.815 127.857 215.815 127.857 216.175 127.647C216.564 127.587 216.923 127.527 217.283 127.497L217.971 127.407L219.409 127.197C220.607 127.017 221.834 126.837 223.062 126.597C224.709 126.267 226.416 126.057 228.093 125.817C228.542 125.757 228.991 125.697 229.411 125.637C229.71 125.607 230.009 125.547 230.279 125.517C231.147 125.397 231.986 125.277 232.854 125.157C234.352 124.947 235.879 124.797 237.406 124.647C239.682 124.437 241.958 124.197 244.234 123.897C249.175 123.267 254.205 123.027 259.176 122.907H259.835L260.404 122.877C260.883 122.877 260.883 122.877 261.422 122.667C261.841 122.637 262.261 122.637 262.68 122.637H263.069C263.488 122.637 263.908 122.637 264.327 122.637L264.746 122.607C265.525 122.607 266.273 122.607 267.052 122.607C267.831 122.607 268.609 122.607 269.388 122.607C270.017 122.607 270.615 122.607 271.214 122.607C271.514 122.607 271.783 122.607 272.083 122.607C275.706 122.577 279 123.357 282.204 125.127C284.69 126.567 287.056 128.277 288.852 130.527L289.241 131.037C292.086 134.666 294.033 139.046 294.722 143.636C295.111 146.336 295.111 148.976 294.602 151.676L294.512 152.276C294.422 152.696 294.332 153.146 294.212 153.596L294.033 154.406C293.883 155.216 293.584 155.906 293.254 156.656L292.955 157.496C292.116 159.596 290.978 161.546 289.751 163.436L289.511 163.766C289.032 164.486 288.523 165.086 287.894 165.686L287.595 166.016C285.768 167.936 283.522 169.256 281.186 170.486L280.617 170.786C277.892 172.106 274.958 172.436 271.993 172.436H271.184C270.316 172.466 269.448 172.466 268.579 172.466H268.13C262.62 172.466 257.14 172.256 251.66 171.836L251.031 171.776C248.815 171.626 246.569 171.446 244.323 171.146C242.766 170.966 241.239 170.816 239.682 170.666C237.226 170.456 234.771 170.216 232.375 169.766C230.878 169.496 229.381 169.316 227.883 169.136C226.087 168.926 224.32 168.686 222.553 168.326C221.415 168.116 220.277 167.966 219.109 167.816C217.043 167.516 214.947 167.156 212.881 166.736C211.863 166.556 210.844 166.376 209.826 166.166C208.718 165.986 207.64 165.776 206.532 165.566C202.31 164.786 198.148 163.826 193.955 162.866C192.847 162.596 191.769 162.356 190.661 162.116C187.577 161.456 184.522 160.736 181.468 159.986L180.929 159.836C179.012 159.356 177.096 158.876 175.209 158.366C174.221 158.096 173.263 157.856 172.275 157.616V157.226L171.706 157.616C172.754 158.336 173.802 158.966 174.91 159.566C175.748 160.016 176.557 160.496 177.395 160.976L177.845 161.246C178.773 161.786 179.641 162.326 180.51 162.926C180.989 163.226 181.468 163.496 181.977 163.766C182.756 164.186 183.504 164.666 184.253 165.176C184.882 165.596 185.511 165.956 186.169 166.346L186.559 166.586C187.098 166.916 187.667 167.246 188.236 167.576L188.745 167.876L189.224 168.146L189.523 168.386V168.746L190.481 168.956V169.346L190.811 169.376C191.35 169.556 191.709 169.826 192.158 170.156C192.787 170.576 193.386 170.996 194.045 171.356C194.883 171.806 195.662 172.346 196.441 172.886C196.8 173.186 196.8 173.186 197.219 173.366V173.756L197.579 173.846C197.968 173.936 197.968 173.936 198.357 174.146V174.506L198.687 174.566C199.196 174.746 199.585 174.986 200.034 175.286L200.603 175.646C201.531 176.246 202.46 176.875 203.388 177.505C203.867 177.805 204.316 178.105 204.795 178.435L205.424 178.825L205.993 179.215L206.412 179.515V179.905L206.802 180.025C207.52 180.355 208.119 180.775 208.748 181.195L209.137 181.495C210.605 182.485 212.012 183.535 213.45 184.585C214.019 185.005 214.618 185.395 215.186 185.815C215.456 186.025 215.755 186.235 216.025 186.445C216.804 186.985 217.552 187.555 218.331 188.095L218.81 188.425C219.109 188.665 219.439 188.875 219.738 189.085L220.157 189.385L220.517 189.655L220.786 189.895V190.255L221.176 190.405C221.894 190.735 222.433 191.185 223.062 191.695C224.11 192.565 225.188 193.405 226.296 194.215L226.686 194.515L227.045 194.785L227.374 195.025C227.644 195.235 227.913 195.415 228.153 195.595L228.452 195.835V196.225L228.782 196.375C229.231 196.615 229.59 196.855 229.98 197.155L230.399 197.485L230.848 197.815L231.267 198.175C231.567 198.385 231.836 198.595 232.106 198.805C232.435 199.045 232.734 199.315 233.064 199.555L233.453 199.885V200.245L233.753 200.395C234.262 200.665 234.681 200.965 235.13 201.325L235.579 201.655L235.939 201.985V202.375L236.897 202.765V203.125L237.196 203.275C237.825 203.605 238.304 204.085 238.813 204.565C239.382 205.105 239.891 205.585 240.52 206.005V206.395L240.88 206.455L241.299 206.605C241.419 206.845 241.568 207.115 241.688 207.355C241.928 207.505 242.197 207.625 242.437 207.745C242.676 207.925 242.886 208.075 243.066 208.255L243.425 208.555L243.784 208.885L244.623 209.605L245.012 209.935C245.342 210.235 245.342 210.235 245.521 210.805C245.761 210.955 246.03 211.075 246.3 211.195C246.719 211.615 247.138 212.065 247.557 212.485C248.007 212.935 248.007 212.935 248.546 213.265C249.234 213.745 249.773 214.255 250.372 214.855L250.702 215.185C250.911 215.395 251.151 215.635 251.39 215.875C251.75 216.205 252.079 216.565 252.439 216.925C253.666 218.125 254.744 219.355 255.673 220.795C255.822 221.004 255.972 221.214 256.122 221.424C258.158 224.394 259.206 227.664 259.476 231.204C259.715 235.254 259.715 235.254 259.326 236.754C259.266 237.144 259.236 237.534 259.176 237.924C258.847 240.324 258.038 242.694 256.841 244.824L256.541 245.364C255.763 246.714 254.894 247.974 253.966 249.234L253.696 249.564C252.229 251.514 250.822 253.344 248.665 254.544C248.216 254.784 247.857 255.054 247.438 255.354L246.869 255.774H246.3V256.134C245.791 256.404 245.252 256.674 244.743 256.914L244.234 257.184C239.981 259.254 235.579 259.854 230.908 259.584C227.614 259.314 224.2 258.114 221.475 256.314C219.618 254.994 219.618 254.994 218.96 254.304C218.66 253.974 218.66 253.974 218.091 253.854C217.822 253.554 217.822 253.554 217.522 253.194C216.953 252.504 216.354 251.874 215.725 251.244L215.426 250.974C215.127 250.674 214.857 250.374 214.558 250.104C213.33 248.874 212.132 247.674 211.024 246.354C210.725 246.054 210.455 245.724 210.186 245.424L209.826 245.004C209.617 244.764 209.407 244.554 209.197 244.344C208.718 243.864 208.299 243.354 207.88 242.844C207.58 242.484 207.58 242.484 207.161 242.304L206.922 241.884C206.592 241.344 206.263 240.984 205.814 240.564C205.005 239.784 204.316 238.944 203.598 238.074C203.118 237.474 202.609 236.874 202.1 236.274C201.292 235.314 200.483 234.354 199.705 233.394C199.375 232.974 199.016 232.554 198.657 232.164C197.728 231.114 196.89 229.974 196.051 228.864C194.734 227.124 193.416 225.414 191.949 223.764C191.709 223.494 191.5 223.194 191.26 222.924V222.354H190.871C190.272 221.664 189.763 220.884 189.314 220.075C188.984 219.505 188.655 219.145 188.206 218.695L187.607 217.735C187.427 217.495 187.247 217.225 187.038 216.985C185.75 215.335 184.492 213.625 183.325 211.855C182.845 211.135 182.336 210.415 181.827 209.725C181.348 209.035 180.869 208.375 180.42 207.715C179.162 205.915 179.162 205.915 177.845 204.205C177.425 203.665 177.186 203.155 176.886 202.555C176.587 202.105 176.287 201.655 175.988 201.205L175.718 200.815C175.569 200.545 175.389 200.305 175.209 200.035C174.221 198.595 173.263 197.125 172.335 195.655C171.915 194.965 171.436 194.305 170.987 193.645C170.538 193.045 170.149 192.445 169.819 191.785C169.55 191.335 169.25 190.885 168.981 190.435C167.813 188.605 166.675 186.745 165.567 184.885C164.758 183.505 163.92 182.125 163.081 180.745C162.303 179.515 161.554 178.255 160.806 176.995C160.596 176.636 160.356 176.246 160.117 175.856L159.877 175.466C159.758 175.226 159.608 174.986 159.458 174.746C159.248 174.416 159.069 174.086 158.859 173.756L158.65 173.396C158.44 173.066 158.26 172.736 158.11 172.406V172.016H157.721C157.811 172.856 157.961 173.546 158.29 174.326C158.38 174.716 158.5 175.106 158.59 175.496L158.739 176.096L158.859 176.636C158.919 176.876 158.979 177.146 159.069 177.385C159.189 177.895 159.189 177.895 159.248 178.345L159.069 178.945H159.428L159.548 179.545L159.728 180.325L159.787 180.745C159.907 181.315 160.027 181.855 160.207 182.395L160.027 182.785H160.386V184.315H160.776L160.865 184.825C161.015 185.455 161.135 186.115 161.255 186.745C161.315 187.015 161.345 187.285 161.404 187.555C161.494 187.975 161.554 188.365 161.644 188.755L161.794 189.475C161.914 190.105 161.914 190.105 162.303 190.645C162.423 191.185 162.512 191.695 162.572 192.205C162.782 193.465 162.992 194.695 163.291 195.955L163.381 196.375C163.471 196.705 163.561 197.035 163.65 197.365L163.86 197.575L163.92 198.295C164.01 199.255 164.219 200.125 164.489 201.055C164.609 201.625 164.698 202.165 164.818 202.765C164.938 203.485 165.088 204.235 165.237 204.955C165.597 206.725 165.926 208.495 166.256 210.235C166.465 211.435 166.705 212.605 166.944 213.805C167.783 217.975 167.783 217.975 167.483 218.875H167.873L167.933 219.445C168.082 220.974 168.322 222.474 168.621 223.974C169.1 226.434 169.37 228.894 169.669 231.384C169.849 233.094 170.059 234.804 170.358 236.484C170.568 237.714 170.688 238.974 170.807 240.234C170.897 241.224 170.987 242.214 171.137 243.204C171.316 244.494 171.406 245.754 171.436 247.044C171.496 247.794 171.556 248.484 171.706 249.234C171.766 249.804 171.766 250.344 171.796 250.914C171.855 251.784 171.885 252.654 172.005 253.554C172.095 254.484 172.155 255.444 172.185 256.404L172.215 256.974C172.245 258.054 172.305 259.164 172.335 260.274L172.365 260.994C172.365 261.444 172.394 261.924 172.394 262.374L172.424 263.034V263.604C172.454 264.234 172.454 264.234 172.574 264.924C172.694 265.853 172.694 266.753 172.694 267.653V268.223C172.694 268.583 172.694 268.973 172.694 269.333C172.694 269.933 172.694 270.503 172.724 271.073C172.724 275.483 172.724 275.483 171.885 277.463C171.855 277.733 171.796 277.973 171.736 278.243C171.197 280.763 169.849 283.133 168.262 285.143L167.843 285.653C167.064 286.703 167.064 286.703 166.735 287.063H166.345V287.453H165.956V287.843H165.567L165.387 288.413C164.998 288.743 164.609 289.073 164.219 289.403L163.86 289.673C160.237 292.433 155.775 294.203 151.283 294.803C146.252 295.343 141.311 294.803 136.61 292.823C134.783 291.983 133.076 290.963 131.459 289.763C131.19 289.583 130.92 289.403 130.651 289.223L130.112 288.803V288.413L129.752 288.263C129.333 288.023 129.033 287.783 128.704 287.423L128.375 287.123C125.62 283.973 123.763 280.373 122.775 276.293C122.386 274.463 122.416 272.603 122.416 270.743V270.323C122.416 269.483 122.416 268.613 122.445 267.743C122.445 267.443 122.445 267.143 122.445 266.843C122.505 258.984 123.134 251.184 123.883 243.384L123.943 242.784C124.242 239.604 124.572 236.424 125.111 233.304C125.44 231.324 125.71 229.374 125.949 227.394C126.039 226.854 126.099 226.284 126.189 225.744L126.249 225.204C126.368 224.364 126.488 223.554 126.668 222.714C126.847 221.754 126.967 220.825 127.087 219.835C127.386 217.555 127.836 215.335 128.285 213.055C128.375 212.515 128.494 211.945 128.584 211.405C129.243 207.355 130.052 203.365 131.01 199.375C131.249 198.445 131.399 197.515 131.549 196.585C131.669 195.805 131.878 195.085 132.058 194.365C132.208 193.735 132.327 193.135 132.477 192.535C132.837 190.855 133.226 189.175 133.615 187.495L133.735 187.015C134.214 185.035 134.693 183.055 135.172 181.045L135.322 180.505C135.472 179.845 135.651 179.155 135.861 178.465C136.131 177.475 136.37 176.486 136.61 175.466C136.939 174.266 137.239 173.036 137.568 171.836C136.999 172.376 136.61 172.916 136.22 173.636L135.921 174.176C135.651 174.746 135.352 175.316 135.082 175.856H134.693L134.663 176.186C134.484 176.756 134.184 177.236 133.855 177.775C133.435 178.465 133.076 179.125 132.777 179.905H132.417L132.268 180.295C131.968 180.985 131.579 181.615 131.19 182.275L130.95 182.665C130.621 183.235 130.261 183.805 129.902 184.345C129.573 184.825 129.273 185.335 129.004 185.845C127.776 188.155 126.279 190.315 124.811 192.475C124.332 193.165 123.883 193.855 123.494 194.605C123.104 195.355 122.625 195.985 122.086 196.645C121.817 197.005 121.817 197.005 121.667 197.575H121.278L121.128 197.995C120.888 198.535 120.619 198.985 120.23 199.465C119.75 200.155 119.331 200.815 118.972 201.595H118.612C118.523 201.805 118.523 201.805 118.463 202.015C118.223 202.585 117.924 203.005 117.564 203.515L117.205 204.025L116.876 204.475C116.486 205.045 116.127 205.555 115.917 206.215H115.528L115.408 206.575C115.049 207.415 114.51 208.105 113.971 208.825L113.642 209.305C113.312 209.725 112.983 210.175 112.653 210.625C111.605 212.065 111.605 212.065 110.587 213.535C110.018 214.435 109.389 215.335 108.79 216.205L108.461 216.655L108.162 217.075L107.922 217.465L107.682 217.735H107.293L107.173 218.125C106.934 218.635 106.724 218.905 106.365 219.325C105.646 220.105 105.047 220.974 104.418 221.844C103.58 223.074 102.682 224.244 101.723 225.414C100.795 226.584 99.8666 227.754 98.9683 228.954C98.5191 229.524 98.0699 230.094 97.5908 230.634C97.1416 231.114 97.1416 231.114 96.932 231.564H96.5427L96.4229 231.864C95.9737 232.704 95.4347 233.454 94.7759 234.114C94.2968 234.594 93.9075 235.104 93.5182 235.674C92.9792 236.424 92.4102 237.084 91.7215 237.744C90.8531 238.614 90.1044 239.634 89.3558 240.594C89.1462 240.864 88.9066 241.104 88.697 241.344H88.3077V241.734H87.9184V242.124H87.5291L87.4093 242.424C87.0799 243.054 86.6607 243.534 86.2115 244.044H85.8222L85.6725 244.404C85.4329 244.794 85.2233 245.094 84.8939 245.424L84.5945 245.754L84.2351 246.114C84.0255 246.324 83.8159 246.564 83.6063 246.804L83.2769 247.134C82.9475 247.494 82.6181 247.854 82.3186 248.244C81.4502 249.234 80.4919 250.164 79.5636 251.094L79.0246 251.634C78.6952 251.964 78.3658 252.294 78.0364 252.624C77.707 252.924 77.3776 253.254 77.0782 253.584C76.629 254.034 76.1499 254.424 75.6408 254.814L75.1617 255.204L74.7125 255.564L74.2932 255.894L73.9339 256.134H73.3649V256.524C68.7533 258.924 64.3813 259.854 59.1708 259.614C55.6971 259.314 52.4331 257.994 49.3787 256.344L48.7797 256.014C46.5638 254.784 44.4676 253.344 42.8805 251.334C42.581 251.034 42.3115 250.704 42.0121 250.404C41.1736 249.504 40.4849 248.544 39.7961 247.494L39.4667 247.044C38.3587 245.394 37.64 243.594 36.9214 241.734L36.7716 241.344C35.3043 237.534 35.2744 233.214 35.8733 229.224C35.9631 228.684 35.9631 228.684 36.1727 228.114L36.2626 227.604C36.8016 224.634 38.3587 222.204 40.1854 219.835L40.5148 219.415C41.503 218.155 42.581 217.015 43.689 215.905L44.1981 215.395C45.2162 214.375 46.2643 213.475 47.3723 212.575C48.1209 211.945 48.7797 211.255 49.4685 210.565C50.2471 209.755 50.9059 209.065 51.8941 208.525C52.3433 208.075 52.7625 207.625 53.2117 207.145C53.7507 206.575 54.2298 206.305 54.9485 206.005C55.1581 205.645 55.1581 205.645 55.3378 205.255C55.6073 204.955 55.6073 204.955 55.9367 204.715C56.4458 204.295 56.9249 203.875 57.434 203.425C58.0928 202.855 58.8115 202.285 59.5002 201.745C59.8895 201.445 60.2788 201.115 60.6381 200.785C61.3269 200.185 62.0456 199.615 62.7643 199.045C63.6626 198.355 64.531 197.635 65.3995 196.885C66.5074 195.925 67.6753 195.025 68.8132 194.155C69.3523 193.765 69.8613 193.375 70.3704 192.955C70.9992 192.475 71.6281 191.995 72.257 191.485C74.7724 189.505 77.3776 187.585 80.0128 185.755C81.001 185.065 81.9593 184.345 82.9475 183.655C86.7505 180.895 90.6135 178.225 94.5064 175.616C95.0155 175.286 95.4946 174.956 96.0037 174.626C98.3993 173.006 100.825 171.446 103.25 169.886C103.819 169.526 104.388 169.166 104.957 168.806C106.964 167.516 109 166.256 111.036 165.056C111.725 164.636 112.414 164.216 113.103 163.766C114.36 163.016 115.618 162.266 116.876 161.516C117.894 160.916 118.912 160.316 119.93 159.686L120.589 159.296C121.008 159.026 121.427 158.786 121.847 158.516L122.445 158.156L122.955 157.856C123.404 157.616 123.404 157.616 123.973 157.616V157.226L123.314 157.406C121.637 157.856 119.96 158.276 118.253 158.696C117.145 158.936 116.037 159.206 114.959 159.536C113.402 159.986 111.785 160.376 110.198 160.736C109.509 160.886 108.85 161.066 108.162 161.216L107.024 161.486L105.946 161.756C104.778 162.026 103.61 162.266 102.412 162.506C101.424 162.686 100.466 162.926 99.4773 163.166C97.7106 163.616 95.9138 164.006 94.1171 164.396L93.608 164.516C89.9846 165.296 86.3912 165.986 82.7379 166.646L82.0192 166.766C78.9947 167.336 75.9702 167.786 72.9457 168.236C71.5682 168.416 70.2207 168.626 68.8432 168.896C67.6454 169.106 66.4775 169.256 65.2497 169.376C64.2615 169.496 63.3033 169.616 62.3151 169.796C58.7815 170.426 55.248 170.726 51.6844 171.026C50.1572 171.176 48.66 171.296 47.1627 171.476C45.9349 171.596 44.6772 171.716 43.4495 171.836L43.0003 171.866C37.7299 172.346 32.4894 172.466 27.219 172.466C26.7399 172.466 26.2608 172.466 25.7817 172.496C25.033 172.496 24.2544 172.496 23.5058 172.496C23.2363 172.496 22.9368 172.496 22.6673 172.496C20.9006 172.496 19.2835 172.316 17.5766 171.836L16.9178 171.656C14.5222 170.996 12.3062 169.856 10.3598 168.326C9.91058 167.966 9.91058 167.966 9.37157 167.666L8.95233 167.426V167.036H8.56304C8.23364 166.706 7.90424 166.406 7.60479 166.076L7.15561 165.626C4.78991 163.136 2.66379 159.746 1.64565 156.476C1.55581 156.026 1.46597 155.576 1.34619 155.126C1.25635 154.646 1.07669 154.226 0.897011 153.776C-0.210967 150.146 -0.270858 145.976 0.597557 142.286L0.687393 141.866L0.807175 141.386C1.40609 139.016 2.15472 136.886 3.38248 134.756L3.5921 134.366C4.73002 132.387 6.04762 130.677 7.60479 128.997L7.93419 128.637L8.17375 128.427H8.56304V128.037C9.04217 127.617 9.55124 127.257 10.0903 126.897L10.3897 126.657C12.8452 124.917 15.3606 123.657 18.3252 123.057L19.0439 122.847C20.3016 122.577 21.5893 122.607 22.877 122.607H23.6855C24.4341 122.607 25.1828 122.607 25.9014 122.607C26.3806 122.607 26.8297 122.607 27.3089 122.607C32.4595 122.607 37.6101 122.787 42.7907 123.207C43.2099 123.237 43.6591 123.267 44.1083 123.297C45.9948 123.447 47.8814 123.627 49.7679 123.807L50.3669 123.867C61.0574 124.947 61.0574 124.947 65.6091 125.637C66.3577 125.757 67.0764 125.847 67.825 125.967C77.4974 127.347 77.4974 127.347 81.001 128.127C82.3186 128.427 83.6362 128.667 84.9538 128.907C86.6008 129.207 88.2179 129.507 89.8649 129.837C90.8231 130.047 91.7814 130.227 92.7696 130.407C95.7641 130.977 98.7287 131.607 101.693 132.327C102.322 132.447 102.951 132.597 103.61 132.747C105.616 133.226 107.623 133.676 109.629 134.246C110.677 134.516 111.725 134.756 112.803 134.966C114.21 135.266 115.588 135.596 116.995 135.986C118.044 136.256 119.092 136.526 120.14 136.826L120.828 137.006C121.038 137.036 121.278 137.096 121.487 137.156L122.056 137.306C122.625 137.456 123.194 137.546 123.793 137.636L123.464 137.456C121.697 136.526 119.99 135.506 118.313 134.456C117.654 134.066 116.995 133.676 116.337 133.286L115.648 132.867C115.169 132.597 114.69 132.297 114.24 132.027C112.174 130.797 110.108 129.537 108.102 128.247C107.323 127.737 106.544 127.257 105.796 126.777C103.73 125.487 101.663 124.167 99.6271 122.847L99.2078 122.607C95.6144 120.297 92.0209 117.897 88.5473 115.347C88.0981 115.017 87.7088 114.777 87.1698 114.597V114.207L86.7206 114.057C86.2415 113.847 85.8522 113.607 85.403 113.307L84.8939 112.947C83.9656 112.257 83.0373 111.567 82.0791 110.847C80.462 109.647 78.815 108.477 77.198 107.307L76.7787 107.007C76.4194 106.737 76.0301 106.467 75.6707 106.197L75.3114 105.957C74.7424 105.537 74.7424 105.537 74.1136 105.177V104.787L73.7842 104.637C73.3949 104.427 73.0655 104.217 72.7061 103.947L72.2869 103.617L71.2089 102.807L70.8795 102.537C70.6699 102.387 70.4602 102.207 70.2506 102.027C69.6817 101.607 69.0827 101.187 68.5138 100.767L67.9748 100.377V99.9873L67.6753 99.8373C67.1662 99.5973 66.7171 99.3273 66.2679 99.0273V98.6673L65.9385 98.4873C65.4893 98.2773 65.1599 98.0073 64.8005 97.7073L64.3813 97.3773L63.992 97.0473C62.914 96.1473 62.914 96.1473 61.7461 95.3374L61.267 95.0074V94.6174L60.9675 94.4974C60.5782 94.2574 60.2488 94.0474 59.9194 93.7474C59.4104 93.2974 59.4104 93.2974 58.9911 93.0874V92.6974L58.6617 92.5774C58.0329 92.2174 57.5238 91.7074 57.0147 91.1975C56.296 90.5375 55.6073 89.8775 54.7988 89.3075L54.1699 88.8575V88.4675L53.8405 88.3175C53.3913 88.0775 53.002 87.7775 52.5529 87.4475L52.1336 87.1175C51.6246 86.6975 51.1754 86.2476 50.7262 85.7976C50.2471 85.2876 49.738 84.7776 49.2289 84.2676L48.8396 83.8776C48.091 83.0976 47.2825 82.3777 46.4739 81.6577C46.0248 81.2677 45.6055 80.8477 45.1863 80.3977C44.6173 79.8277 44.0184 79.2577 43.4195 78.7477C41.9821 77.4878 40.7843 76.1378 39.6164 74.6378L39.2571 74.1878C38.2988 72.8979 37.67 71.4879 37.0711 70.0179C36.9214 69.6579 36.7716 69.328 36.6219 68.968C36.3524 68.308 36.1727 67.678 36.0529 66.988L35.9032 66.358C35.6337 64.8281 35.5439 63.2981 35.5439 61.7681V61.2281C35.5738 58.5882 35.8433 55.9183 36.9214 53.5183C37.0411 53.2483 37.1609 52.9483 37.2508 52.6783C38.4486 49.7084 39.9758 46.6185 42.3415 44.4285C42.6709 44.1285 42.9703 43.7685 43.2698 43.4085C43.8986 42.6586 44.6173 42.0586 45.366 41.4286L45.875 40.9786C48.2707 39.0286 51.0556 37.5887 53.9902 36.6287L54.6191 36.3887C58.4222 35.2187 62.7343 35.0687 66.6572 35.8487C69.0827 36.3887 71.2388 37.2587 73.3649 38.5487V38.9086L73.6644 38.9686C75.8205 39.6286 77.5573 41.6986 79.0845 43.2585L79.384 43.5285C80.4021 44.5785 81.3604 45.5985 82.2288 46.7685C82.8277 47.5184 83.5464 48.2084 84.2351 48.8684C84.5346 49.1684 84.8041 49.4384 85.1035 49.7084L85.4629 50.0984C85.8222 50.4584 86.1217 50.7884 86.3912 51.2084V51.5984H86.7805C87.05 51.8683 87.05 51.8683 87.3794 52.2583C87.9783 52.9783 88.6072 53.6683 89.2061 54.3583L89.4756 54.6583V55.0483L90.0445 55.2583C90.314 55.5583 90.5836 55.8883 90.8531 56.2183C91.3921 56.8782 91.9311 57.5682 92.5001 58.1982C93.4583 59.3082 93.4583 59.3082 93.8776 59.8482V60.2382L94.207 60.3882C94.6861 60.6581 94.9256 60.9281 95.2251 61.4081V61.7681H95.5844L95.6443 62.1581L95.7941 62.5481L96.363 62.7281C96.6924 63.1181 96.9919 63.4781 97.2913 63.8681C97.471 64.1081 97.6507 64.3781 97.8303 64.6181C97.9501 64.7381 98.04 64.858 98.1597 65.008C98.4891 65.458 98.8485 65.908 99.2078 66.358L99.5672 66.838C99.8067 67.138 100.076 67.438 100.316 67.768L100.645 68.188L100.945 68.578L101.154 68.878V69.268H101.544L101.723 70.0479H102.113C102.442 70.4679 102.771 70.8879 103.101 71.3079C103.31 71.6079 103.52 71.8779 103.73 72.1779L104.059 72.6279C104.538 73.2879 105.047 73.9478 105.556 74.6078C106.694 76.0778 107.802 77.5778 108.91 79.0777L109.24 79.4977L109.509 79.9177L109.779 80.2477C109.988 80.6377 110.078 80.9377 110.168 81.3577H110.557C110.917 81.8377 111.246 82.3177 111.605 82.7976L111.905 83.2476C112.234 83.7276 112.534 84.1776 112.863 84.6276C113.043 84.8976 113.222 85.1676 113.402 85.4376C113.821 86.0676 114.27 86.6976 114.69 87.3275C115.139 87.9875 115.618 88.6475 116.067 89.3075L116.337 89.6975C116.816 90.3875 117.295 91.1075 117.774 91.7974C118.523 92.8474 119.241 93.9274 119.93 95.0074L120.349 95.6074L121.038 96.6873C121.278 97.1073 121.278 97.1073 121.278 97.4973H121.667L121.847 98.4573H122.236C122.535 98.8773 122.805 99.3273 123.074 99.7773C123.254 100.047 123.434 100.317 123.583 100.617L123.883 101.067C124.182 101.547 124.482 102.027 124.781 102.537L125.111 103.017C125.32 103.347 125.53 103.647 125.739 103.977L126.009 104.427L126.249 104.817C126.458 105.177 126.578 105.537 126.668 105.957H127.027C127.267 106.257 127.267 106.257 127.536 106.737L127.836 107.277L128.195 107.877C128.435 108.297 128.704 108.747 128.974 109.167C129.033 109.287 129.123 109.407 129.183 109.527C129.842 110.637 130.501 111.717 131.16 112.797L131.489 113.307C131.968 114.087 132.417 114.837 132.896 115.587L133.136 115.917C133.316 116.217 133.495 116.517 133.705 116.817C133.945 117.297 133.945 117.297 133.945 117.867H134.334L134.514 118.827H134.903L135.711 120.267L135.951 120.687C136.101 120.957 136.25 121.227 136.4 121.497C136.55 121.767 136.7 122.037 136.849 122.277C137.029 122.607 137.209 122.937 137.388 123.237L137.778 123.417L137.628 123.057C137.089 121.587 136.64 120.087 136.25 118.557L136.041 117.777C135.562 115.887 135.082 113.997 134.633 112.077C134.484 111.447 134.334 110.787 134.184 110.127C133.256 106.167 132.327 102.177 131.489 98.1573C131.16 96.5073 130.77 94.8874 130.381 93.2374C130.201 92.4574 130.112 91.7674 130.112 90.9575C129.992 90.5075 129.842 90.0875 129.722 89.6375C129.632 89.2175 129.543 88.8275 129.483 88.4375L129.393 88.0775C129.093 86.5476 128.824 85.0476 128.554 83.5476C128.375 82.5276 128.165 81.5077 127.985 80.4577C127.596 78.4777 127.267 76.4678 126.967 74.4578C126.847 73.5579 126.728 72.6879 126.578 71.7879C125.65 66.268 125.65 66.268 125.53 63.9281L125.5 63.5081L125.32 63.3281C125.26 62.9381 125.2 62.5481 125.141 62.1881L125.051 61.4381L124.961 60.6581L124.841 59.8182C124.542 57.2682 124.242 54.7183 123.973 52.1684L123.913 51.5084C123.524 47.8784 123.254 44.2485 123.014 40.6186C123.014 40.4386 122.985 40.2586 122.985 40.0786C122.955 39.7486 122.925 39.4186 122.925 39.0886C122.865 38.3686 122.805 37.6487 122.715 36.9287C122.595 35.9387 122.595 34.9487 122.565 33.9288V33.3288C122.535 32.9088 122.535 32.4888 122.535 32.0688C122.535 31.4388 122.505 30.8088 122.505 30.1788C122.445 28.0489 122.416 25.9489 122.416 23.819V23.219C122.445 20.8191 122.625 18.7191 123.404 16.4392C123.434 16.3192 123.494 16.1692 123.524 16.0492C124.272 13.8292 125.29 11.9993 126.668 10.1093C126.788 9.8993 126.937 9.68931 127.057 9.44932L127.416 8.96933H127.806L127.955 8.63934C128.225 8.12934 128.554 7.76936 128.944 7.37936L129.363 6.95938L129.722 6.65938H130.112V6.26939C130.471 5.9994 130.86 5.7594 131.249 5.4894L131.699 5.12942C134.933 2.57947 139.065 0.899509 143.108 0.299523C147.24 -0.240461 151.223 -0.0904668 155.206 1.07951Z" fill="#0288FD" fill-opacity="0.15"/>
</svg>
