<svg preserveAspectRatio="none" width="100%" height="100%" overflow="visible" style="display: block;" viewBox="0 0 50 50" fill="none" xmlns="http://www.w3.org/2000/svg">
<g id="codicon:workspace-trusted">
<path id="Vector" d="M41.875 9.375C36.1344 9.375 30.9812 8.33438 26.3312 3.675C25.9797 3.32387 25.5031 3.12665 25.0062 3.12665C24.5094 3.12665 24.0328 3.32387 23.6813 3.675C19.0188 8.33438 13.8625 9.375 8.12813 9.375C7.63084 9.375 7.15393 9.57254 6.8023 9.92418C6.45067 10.2758 6.25312 10.7527 6.25312 11.25V22.5063C6.25312 34.575 12.4094 42.7781 24.4094 46.7812C24.7948 46.9099 25.2115 46.9099 25.5969 46.7812C37.6 42.7812 43.7531 34.575 43.7531 22.5063V11.25C43.7531 10.2156 42.9094 9.375 41.875 9.375ZM40.625 22.5031C40.625 33.1156 35.5125 40.0469 25 43.6781C14.4875 40.0469 9.375 33.1156 9.375 22.5031V12.4844C14.3094 12.3625 19.85 11.3937 25.0031 6.725C30.1469 11.3906 35.6906 12.3594 40.625 12.4844V22.5031ZM23.4344 27.4781L31.7031 19.2094C31.8484 19.0641 32.0209 18.9489 32.2107 18.8702C32.4005 18.7916 32.6039 18.7512 32.8094 18.7512C33.0148 18.7512 33.2183 18.7916 33.4081 18.8702C33.5979 18.9489 33.7703 19.0641 33.9156 19.2094C34.0609 19.3546 34.1761 19.5271 34.2548 19.7169C34.3334 19.9067 34.3739 20.1102 34.3739 20.3156C34.3739 20.5211 34.3334 20.7245 34.2548 20.9143C34.1761 21.1041 34.0609 21.2766 33.9156 21.4219L24.5406 30.7969C24.3955 30.9424 24.2231 31.0578 24.0332 31.1366C23.8434 31.2154 23.6399 31.2559 23.4344 31.2559C23.2289 31.2559 23.0253 31.2154 22.8355 31.1366C22.6457 31.0578 22.4733 30.9424 22.3281 30.7969L17.6406 26.1094C17.3472 25.816 17.1824 25.4181 17.1824 25.0031C17.1824 24.5882 17.3472 24.1903 17.6406 23.8969C17.934 23.6035 18.332 23.4387 18.7469 23.4387C19.1618 23.4387 19.5597 23.6035 19.8531 23.8969L23.4344 27.4781Z" fill="#0288FD"/>
</g>
</svg>
