<svg preserveAspectRatio="none" width="100%" height="100%" overflow="visible" style="display: block;" viewBox="0 0 368.525 373.892" fill="none" xmlns="http://www.w3.org/2000/svg">
<path id="Ellipse 16" opacity="0.1" d="M66.4005 373.892C24.9128 333.828 1.03973 278.924 0.0331629 221.258C-0.973403 163.592 20.969 107.888 61.0332 66.4005C101.097 24.9128 156.002 1.03975 213.668 0.0331641C271.333 -0.973419 327.037 20.9689 368.525 61.0331L320.511 110.753C292.21 83.4233 254.211 68.4552 214.874 69.1419C175.537 69.8285 138.083 86.1137 110.753 114.415C83.4234 142.716 68.4552 180.715 69.1419 220.052C69.8285 259.389 86.1137 296.842 114.415 324.172L66.4005 373.892Z" fill="url(#paint0_linear_0_70)"/>
<defs>
<linearGradient id="paint0_linear_0_70" x1="386.967" y1="46.116" x2="58.2755" y2="627.428" gradientUnits="userSpaceOnUse">
<stop stop-color="#A5CCFF"/>
<stop offset="0.756912" stop-color="#0A66EA"/>
</linearGradient>
</defs>
</svg>
