<svg preserveAspectRatio="none" width="100%" height="100%" overflow="visible" style="display: block;" viewBox="0 0 124 43" fill="none" xmlns="http://www.w3.org/2000/svg">
<g id="app-store-badge-black.svg" clip-path="url(#clip0_0_12)">
<path id="Vector" d="M116.07 0.244H7.869C3.62469 0.244 0.184 3.68469 0.184 7.929V34.19C0.184 38.4343 3.62469 41.875 7.869 41.875H116.07C120.314 41.875 123.755 38.4343 123.755 34.19V7.929C123.755 3.68469 120.314 0.244 116.07 0.244Z" fill="var(--fill-0, #0D1530)"/>
<path id="Vector_2" d="M116.07 0.244H7.869C3.62469 0.244 0.184 3.68469 0.184 7.929V34.19C0.184 38.4343 3.62469 41.875 7.869 41.875H116.07C120.314 41.875 123.755 38.4343 123.755 34.19V7.929C123.755 3.68469 120.314 0.244 116.07 0.244Z" stroke="var(--stroke-0, black)" stroke-width="0.369"/>
<path id="Vector_3" d="M24.986 21.761C24.9969 20.9157 25.2215 20.0868 25.6389 19.3516C26.0562 18.6164 26.6528 17.9987 27.373 17.556C26.9155 16.9026 26.312 16.365 25.6103 15.9857C24.9087 15.6064 24.1282 15.3959 23.331 15.371C21.631 15.192 19.981 16.388 19.115 16.388C18.231 16.388 16.897 15.388 15.46 15.418C14.5306 15.4481 13.6249 15.7185 12.831 16.2027C12.0371 16.6869 11.3822 17.3685 10.93 18.181C8.971 21.571 10.432 26.556 12.309 29.297C13.248 30.639 14.345 32.139 15.78 32.085C17.185 32.027 17.71 31.19 19.405 31.19C21.085 31.19 21.577 32.085 23.042 32.052C24.55 32.027 25.499 30.703 26.405 29.348C27.0796 28.3916 27.5986 27.3345 27.943 26.216C27.0672 25.8457 26.3198 25.2258 25.794 24.4336C25.2681 23.6413 24.9871 22.7119 24.986 21.761ZM22.22 13.568C23.042 12.5815 23.447 11.3134 23.349 10.033C22.0931 10.1647 20.933 10.765 20.1 11.714C19.6928 12.1775 19.381 12.7167 19.1823 13.3008C18.9836 13.8849 18.902 14.5024 18.942 15.118C19.5701 15.1245 20.1914 14.9883 20.7592 14.7198C21.327 14.4514 21.8265 14.0575 22.22 13.568ZM101.235 13.63C101.235 13.806 101.219 13.918 101.211 14.022H97.795C97.907 14.678 98.347 15.246 99.299 15.246C99.811 15.246 100.403 15.054 100.795 14.766L101.123 15.35C100.739 15.654 100.043 15.95 99.283 15.95C97.659 15.95 96.995 14.814 96.995 13.694C96.995 12.422 97.867 11.462 99.163 11.462C100.355 11.462 101.235 12.27 101.235 13.63ZM99.163 12.142C98.443 12.142 97.923 12.654 97.795 13.358H100.443C100.395 12.598 99.851 12.142 99.163 12.142ZM92.42 15.854V9.798H93.163V12.094C93.419 11.718 93.923 11.454 94.523 11.454C95.411 11.454 96.211 12.03 96.211 13.254V15.854H95.451V13.47C95.451 12.598 94.987 12.166 94.363 12.166C93.667 12.166 93.187 12.702 93.187 13.47V15.854H92.42ZM91.616 15.006L91.904 15.598C91.592 15.838 91.168 15.958 90.76 15.958C89.832 15.958 89.392 15.35 89.392 14.35V12.222H88.632V11.566H89.4V10.046H90.152V11.566H91.672V12.222H90.152V14.406C90.152 14.926 90.336 15.254 90.848 15.254C91.12 15.254 91.384 15.15 91.616 15.006ZM82.503 15.854V11.566H83.255V12.174C83.511 11.718 84.007 11.454 84.615 11.454C85.503 11.454 86.311 12.03 86.311 13.254V15.854H85.551V13.47C85.551 12.606 85.079 12.166 84.455 12.166C83.759 12.166 83.271 12.71 83.271 13.478V15.854H82.503ZM79.437 15.958C78.109 15.958 77.181 14.958 77.181 13.702C77.181 12.47 78.109 11.454 79.437 11.454C80.757 11.454 81.685 12.47 81.685 13.702C81.685 14.958 80.757 15.958 79.437 15.958ZM79.437 15.254C80.269 15.254 80.917 14.55 80.917 13.702C80.917 12.87 80.269 12.166 79.437 12.166C78.605 12.166 77.957 12.87 77.957 13.702C77.957 14.55 78.605 15.254 79.437 15.254ZM73.713 9.798H74.481V15.854H73.713V15.254C73.5361 15.4782 73.3098 15.6585 73.0516 15.7806C72.7935 15.9028 72.5105 15.9635 72.225 15.958C70.969 15.958 70.065 14.958 70.065 13.702C70.065 12.462 70.977 11.462 72.209 11.462C72.4988 11.4592 72.7854 11.5234 73.0463 11.6497C73.3072 11.776 73.5354 11.9609 73.713 12.19V9.798ZM72.305 15.254C73.201 15.254 73.769 14.55 73.769 13.702C73.769 12.87 73.201 12.166 72.305 12.166C71.409 12.166 70.841 12.87 70.841 13.702C70.841 14.55 71.409 15.254 72.305 15.254ZM68.5 11.566H69.236V15.854H68.499V15.246C68.3189 15.473 68.0889 15.6553 67.8268 15.7788C67.5647 15.9023 67.2777 15.9636 66.988 15.958C65.755 15.958 64.844 14.966 64.844 13.678C64.844 12.398 65.756 11.462 66.988 11.462C67.612 11.462 68.124 11.734 68.499 12.19L68.5 11.566ZM67.076 15.254C67.972 15.254 68.548 14.55 68.548 13.702C68.548 12.87 67.972 12.166 67.076 12.166C66.18 12.166 65.62 12.87 65.62 13.71C65.62 14.55 66.18 15.254 67.076 15.254ZM62.041 15.958C60.713 15.958 59.785 14.958 59.785 13.702C59.785 12.47 60.713 11.454 62.041 11.454C63.361 11.454 64.289 12.47 64.289 13.702C64.289 14.958 63.361 15.958 62.041 15.958ZM62.041 15.254C62.873 15.254 63.521 14.55 63.521 13.702C63.521 12.87 62.873 12.166 62.041 12.166C61.209 12.166 60.561 12.87 60.561 13.702C60.561 14.55 61.209 15.254 62.041 15.254ZM58.955 15.854H58.187V9.798H58.955V15.854ZM53.34 15.854V11.566H54.092V12.174C54.348 11.718 54.844 11.454 55.452 11.454C56.34 11.454 57.148 12.03 57.148 13.254V15.854H56.388V13.47C56.388 12.606 55.916 12.166 55.292 12.166C54.596 12.166 54.108 12.71 54.108 13.478V15.854H53.34ZM47.687 15.845L46.215 11.565H47.023L48.039 14.781L49.207 11.565H49.743L50.959 14.781L51.935 11.565H52.735L51.303 15.845H50.663L49.479 12.637L48.319 15.845H47.687ZM43.747 15.958C42.419 15.958 41.491 14.958 41.491 13.702C41.491 12.47 42.419 11.454 43.747 11.454C45.067 11.454 45.995 12.47 45.995 13.702C45.995 14.958 45.067 15.958 43.747 15.958ZM43.747 15.254C44.579 15.254 45.227 14.55 45.227 13.702C45.227 12.87 44.579 12.166 43.747 12.166C42.915 12.166 42.267 12.87 42.267 13.702C42.267 14.55 42.915 15.254 43.747 15.254ZM35.943 15.853V9.941H38.143C39.815 9.941 40.863 11.085 40.863 12.909C40.863 14.717 39.807 15.853 38.063 15.853H35.943ZM36.743 15.093H38.095C39.351 15.093 40.031 14.133 40.031 12.885C40.031 11.653 39.351 10.701 38.095 10.701H36.743V15.093ZM41.806 27.7H38.282L37.436 30.142H35.943L39.281 21.108H40.831L44.17 30.142H42.65L41.805 27.701L41.806 27.7ZM38.646 26.574H41.44L40.063 22.611H40.025L38.646 26.574ZM51.379 26.85C51.379 28.897 50.257 30.212 48.566 30.212C48.1381 30.2339 47.7125 30.1374 47.336 29.933C46.963 29.7314 46.6542 29.4288 46.445 29.06H46.413V32.322H45.029V23.556H46.369V24.652H46.394C46.61 24.286 46.924 23.985 47.302 23.78C47.6814 23.5744 48.1087 23.4733 48.54 23.487C50.25 23.487 51.379 24.809 51.379 26.85ZM49.956 26.85C49.956 25.516 49.251 24.64 48.176 24.64C47.118 24.64 46.406 25.535 46.406 26.85C46.406 28.177 47.118 29.066 48.176 29.066C49.251 29.066 49.956 28.196 49.956 26.85ZM58.797 26.85C58.797 28.897 57.677 30.212 55.984 30.212C55.5561 30.2339 55.1305 30.1374 54.754 29.933C54.3812 29.7309 54.0728 29.4281 53.864 29.059H53.832V32.322H52.448V23.556H53.788V24.652H53.813C54.029 24.286 54.343 23.985 54.721 23.78C55.1004 23.5744 55.5277 23.4733 55.959 23.487C57.669 23.487 58.797 24.809 58.797 26.85ZM57.375 26.85C57.375 25.516 56.67 24.64 55.594 24.64C54.537 24.64 53.826 25.535 53.826 26.85C53.826 28.177 54.536 29.066 55.594 29.066C56.67 29.066 57.375 28.196 57.375 26.85ZM63.7 27.625C63.803 28.521 64.694 29.11 65.911 29.11C67.077 29.11 67.916 28.521 67.916 27.714C67.916 27.012 67.41 26.593 66.212 26.304L65.014 26.023C63.316 25.622 62.528 24.846 62.528 23.587C62.528 22.029 63.918 20.958 65.892 20.958C67.846 20.958 69.185 22.028 69.23 23.588H67.833C67.75 22.686 66.987 22.142 65.873 22.142C64.758 22.142 63.995 22.692 63.995 23.494C63.995 24.132 64.482 24.508 65.674 24.796L66.693 25.04C68.59 25.479 69.378 26.223 69.378 27.544C69.378 29.234 68 30.294 65.808 30.294C63.758 30.294 62.374 29.259 62.284 27.625H63.7ZM72.364 21.997V23.556H73.645V24.626H72.364V28.257C72.364 28.821 72.62 29.084 73.184 29.084C73.336 29.082 73.488 29.071 73.639 29.054V30.117C73.386 30.163 73.129 30.184 72.87 30.18C71.506 30.18 70.973 29.679 70.973 28.402V24.626H69.993V23.556H70.973V21.997H72.364ZM74.388 26.85C74.388 24.777 75.637 23.475 77.585 23.475C79.539 23.475 80.783 24.777 80.783 26.849C80.783 28.927 79.546 30.224 77.585 30.224C75.625 30.224 74.388 28.928 74.388 26.85ZM79.373 26.85C79.373 25.428 78.706 24.589 77.585 24.589C76.464 24.589 75.798 25.434 75.798 26.849C75.798 28.276 76.464 29.109 77.585 29.109C78.706 29.109 79.373 28.277 79.373 26.85ZM81.923 23.556H83.243V24.677H83.275C83.364 24.327 83.574 24.017 83.869 23.801C84.1663 23.584 84.5282 23.4737 84.896 23.488C85.056 23.487 85.215 23.504 85.37 23.538V24.802C85.1686 24.7422 84.959 24.7148 84.749 24.721C84.549 24.7133 84.3496 24.7479 84.1638 24.8225C83.978 24.8971 83.8101 25.0101 83.671 25.154C83.5353 25.297 83.4325 25.468 83.3696 25.6548C83.3067 25.8417 83.2854 26.04 83.307 26.236V30.143H81.923V23.556ZM91.75 28.207C91.563 29.403 90.372 30.224 88.847 30.224C86.886 30.224 85.669 28.94 85.669 26.88C85.669 24.814 86.893 23.475 88.789 23.475C90.654 23.475 91.826 24.726 91.826 26.723V27.187H87.066V27.268C87.0434 27.5114 87.0743 27.7567 87.1563 27.987C87.2383 28.2172 87.3696 28.4267 87.541 28.601C87.715 28.7777 87.9237 28.9163 88.154 29.008C88.3844 29.0998 88.6312 29.1427 88.879 29.134C89.206 29.164 89.534 29.09 89.815 28.923C90.0934 28.7578 90.3109 28.507 90.435 28.208H91.749L91.75 28.207ZM87.072 26.242H90.442C90.4549 26.0229 90.4212 25.8035 90.3432 25.5984C90.2651 25.3933 90.1444 25.207 89.989 25.052C89.8317 24.895 89.6444 24.7713 89.4382 24.6883C89.232 24.6053 89.0112 24.5648 88.789 24.569C88.3361 24.5671 87.9002 24.7418 87.574 25.056C87.4157 25.2104 87.2898 25.3948 87.2036 25.5985C87.1174 25.8021 87.0727 26.0209 87.072 26.242Z" fill="var(--fill-0, white)"/>
</g>
<defs>
<clipPath id="clip0_0_12">
<rect width="124" height="43" fill="white"/>
</clipPath>
</defs>
</svg>
