<svg preserveAspectRatio="none" width="100%" height="100%" overflow="visible" style="display: block;" viewBox="0 0 13.3333 13.3333" fill="none" xmlns="http://www.w3.org/2000/svg">
<g id="Group">
<path id="Vector" fill-rule="evenodd" clip-rule="evenodd" d="M2.66667 1.33333H10.6667C11.3739 1.33333 12.0522 1.61428 12.5523 2.11438C13.0524 2.61448 13.3333 3.29276 13.3333 4V10.6667C13.3333 11.3739 13.0524 12.0522 12.5523 12.5523C12.0522 13.0524 11.3739 13.3333 10.6667 13.3333H2.66667C1.95942 13.3333 1.28115 13.0524 0.781049 12.5523C0.280952 12.0522 0 11.3739 0 10.6667V4C0 3.29276 0.280952 2.61448 0.781049 2.11438C1.28115 1.61428 1.95942 1.33333 2.66667 1.33333ZM2.66667 2.66667C2.31304 2.66667 1.97391 2.80714 1.72386 3.05719C1.47381 3.30724 1.33333 3.64638 1.33333 4V10.6667C1.33333 11.0203 1.47381 11.3594 1.72386 11.6095C1.97391 11.8595 2.31304 12 2.66667 12H10.6667C11.0203 12 11.3594 11.8595 11.6095 11.6095C11.8595 11.3594 12 11.0203 12 10.6667V4C12 3.64638 11.8595 3.30724 11.6095 3.05719C11.3594 2.80714 11.0203 2.66667 10.6667 2.66667H2.66667Z" fill="var(--fill-0, #0288FD)"/>
<path id="Vector_2" fill-rule="evenodd" clip-rule="evenodd" d="M0.666667 5.33333C0.666667 5.15652 0.736904 4.98695 0.861929 4.86193C0.986953 4.7369 1.15652 4.66667 1.33333 4.66667H12C12.1768 4.66667 12.3464 4.7369 12.4714 4.86193C12.5964 4.98695 12.6667 5.15652 12.6667 5.33333C12.6667 5.51014 12.5964 5.67971 12.4714 5.80474C12.3464 5.92976 12.1768 6 12 6H1.33333C1.15652 6 0.986953 5.92976 0.861929 5.80474C0.736904 5.67971 0.666667 5.51014 0.666667 5.33333ZM4 0C4.17681 0 4.34638 0.0702379 4.4714 0.195262C4.59643 0.320286 4.66667 0.489856 4.66667 0.666667V3.33333C4.66667 3.51014 4.59643 3.67971 4.4714 3.80474C4.34638 3.92976 4.17681 4 4 4C3.82319 4 3.65362 3.92976 3.5286 3.80474C3.40357 3.67971 3.33333 3.51014 3.33333 3.33333V0.666667C3.33333 0.489856 3.40357 0.320286 3.5286 0.195262C3.65362 0.0702379 3.82319 0 4 0ZM9.33333 0C9.51014 0 9.67971 0.0702379 9.80474 0.195262C9.92976 0.320286 10 0.489856 10 0.666667V3.33333C10 3.51014 9.92976 3.67971 9.80474 3.80474C9.67971 3.92976 9.51014 4 9.33333 4C9.15652 4 8.98695 3.92976 8.86193 3.80474C8.7369 3.67971 8.66667 3.51014 8.66667 3.33333V0.666667C8.66667 0.489856 8.7369 0.320286 8.86193 0.195262C8.98695 0.0702379 9.15652 0 9.33333 0Z" fill="var(--fill-0, #0288FD)"/>
<path id="Vector_3" d="M4 7.33333C4 7.51014 3.92976 7.67971 3.80474 7.80474C3.67971 7.92976 3.51014 8 3.33333 8C3.15652 8 2.98695 7.92976 2.86193 7.80474C2.73691 7.67971 2.66667 7.51014 2.66667 7.33333C2.66667 7.15652 2.73691 6.98695 2.86193 6.86193C2.98695 6.73691 3.15652 6.66667 3.33333 6.66667C3.51014 6.66667 3.67971 6.73691 3.80474 6.86193C3.92976 6.98695 4 7.15652 4 7.33333ZM4 10C4 10.1768 3.92976 10.3464 3.80474 10.4714C3.67971 10.5964 3.51014 10.6667 3.33333 10.6667C3.15652 10.6667 2.98695 10.5964 2.86193 10.4714C2.73691 10.3464 2.66667 10.1768 2.66667 10C2.66667 9.82319 2.73691 9.65362 2.86193 9.5286C2.98695 9.40357 3.15652 9.33333 3.33333 9.33333C3.51014 9.33333 3.67971 9.40357 3.80474 9.5286C3.92976 9.65362 4 9.82319 4 10ZM7.33333 7.33333C7.33333 7.51014 7.2631 7.67971 7.13807 7.80474C7.01305 7.92976 6.84348 8 6.66667 8C6.48986 8 6.32029 7.92976 6.19526 7.80474C6.07024 7.67971 6 7.51014 6 7.33333C6 7.15652 6.07024 6.98695 6.19526 6.86193C6.32029 6.73691 6.48986 6.66667 6.66667 6.66667C6.84348 6.66667 7.01305 6.73691 7.13807 6.86193C7.2631 6.98695 7.33333 7.15652 7.33333 7.33333ZM7.33333 10C7.33333 10.1768 7.2631 10.3464 7.13807 10.4714C7.01305 10.5964 6.84348 10.6667 6.66667 10.6667C6.48986 10.6667 6.32029 10.5964 6.19526 10.4714C6.07024 10.3464 6 10.1768 6 10C6 9.82319 6.07024 9.65362 6.19526 9.5286C6.32029 9.40357 6.48986 9.33333 6.66667 9.33333C6.84348 9.33333 7.01305 9.40357 7.13807 9.5286C7.2631 9.65362 7.33333 9.82319 7.33333 10ZM10.6667 7.33333C10.6667 7.51014 10.5964 7.67971 10.4714 7.80474C10.3464 7.92976 10.1768 8 10 8C9.82319 8 9.65362 7.92976 9.5286 7.80474C9.40357 7.67971 9.33333 7.51014 9.33333 7.33333C9.33333 7.15652 9.40357 6.98695 9.5286 6.86193C9.65362 6.73691 9.82319 6.66667 10 6.66667C10.1768 6.66667 10.3464 6.73691 10.4714 6.86193C10.5964 6.98695 10.6667 7.15652 10.6667 7.33333ZM10.6667 10C10.6667 10.1768 10.5964 10.3464 10.4714 10.4714C10.3464 10.5964 10.1768 10.6667 10 10.6667C9.82319 10.6667 9.65362 10.5964 9.5286 10.4714C9.40357 10.3464 9.33333 10.1768 9.33333 10C9.33333 9.82319 9.40357 9.65362 9.5286 9.5286C9.65362 9.40357 9.82319 9.33333 10 9.33333C10.1768 9.33333 10.3464 9.40357 10.4714 9.5286C10.5964 9.65362 10.6667 9.82319 10.6667 10Z" fill="var(--fill-0, #0288FD)"/>
</g>
</svg>
