<svg preserveAspectRatio="none" width="100%" height="100%" overflow="visible" style="display: block;" viewBox="0 0 29.3334 29.3334" fill="none" xmlns="http://www.w3.org/2000/svg">
<g id="Mask group">
<mask id="mask0_0_9" style="mask-type:luminance" maskUnits="userSpaceOnUse" x="0" y="0" width="30" height="30">
<g id="Group">
<g id="Group_2">
<path id="Vector" d="M14.6667 28C16.418 28.0022 18.1524 27.6583 19.7704 26.9881C21.3883 26.3179 22.8579 25.3346 24.0947 24.0947C25.3346 22.8579 26.3179 21.3883 26.9881 19.7704C27.6583 18.1524 28.0022 16.418 28 14.6667C28.0022 12.9154 27.6583 11.181 26.9881 9.563C26.3179 7.94504 25.3346 6.47546 24.0947 5.23868C22.8579 3.99878 21.3883 3.01549 19.7704 2.34529C18.1524 1.67508 16.418 1.33118 14.6667 1.33334C12.9154 1.33118 11.181 1.67508 9.563 2.34529C7.94504 3.01549 6.47546 3.99878 5.23868 5.23868C3.99878 6.47546 3.01549 7.94504 2.34529 9.563C1.67508 11.181 1.33118 12.9154 1.33334 14.6667C1.33118 16.418 1.67508 18.1524 2.34529 19.7704C3.01549 21.3883 3.99878 22.8579 5.23868 24.0947C6.47546 25.3346 7.94504 26.3179 9.563 26.9881C11.181 27.6583 12.9154 28.0022 14.6667 28Z" fill="var(--fill-0, white)" stroke="var(--stroke-0, white)" stroke-width="2.66667" stroke-linejoin="round"/>
<path id="Vector_2" d="M9.33334 14.6667L13.3333 18.6667L21.3333 10.6667" stroke="var(--stroke-0, black)" stroke-width="2.66667" stroke-linecap="round" stroke-linejoin="round"/>
</g>
</g>
</mask>
<g mask="url(#mask0_0_9)">
<path id="Vector_3" d="M-1.33332 -1.33332H30.6667V30.6667H-1.33332V-1.33332Z" fill="var(--fill-0, #0288FD)"/>
</g>
</g>
</svg>
