<svg preserveAspectRatio="none" width="100%" height="100%" overflow="visible" style="display: block;" viewBox="0 0 286.474 225.996" fill="none" xmlns="http://www.w3.org/2000/svg">
<path id="Ellipse 16" opacity="0.1" d="M264.552 -3.15858e-06C275.32 17.5436 282.321 37.136 285.107 57.5314C287.894 77.9267 286.407 98.6789 280.74 118.468C275.073 138.258 265.35 156.652 252.19 172.48C239.029 188.309 222.719 201.226 204.297 210.41C185.874 219.594 165.742 224.844 145.181 225.827C124.619 226.81 104.078 223.504 84.8637 216.118C65.6492 208.733 48.1816 197.43 33.5716 182.929C18.9615 168.428 7.52869 151.045 7.08951e-08 131.887L51.1604 111.782C55.9 123.844 63.0973 134.786 72.2948 143.915C81.4923 153.044 92.4887 160.16 104.585 164.809C116.681 169.458 129.612 171.54 142.556 170.921C155.5 170.302 168.174 166.997 179.772 161.215C191.369 155.434 201.637 147.302 209.922 137.337C218.207 127.373 224.328 115.793 227.895 103.335C231.463 90.8771 232.399 77.813 230.645 64.9734C228.89 52.1339 224.483 39.7998 217.704 28.7556L264.552 -3.15858e-06Z" fill="url(#paint0_linear_0_4)"/>
<defs>
<linearGradient id="paint0_linear_0_4" x1="253.751" y1="-39.2917" x2="29.482" y2="357.342" gradientUnits="userSpaceOnUse">
<stop stop-color="#A5CCFF"/>
<stop offset="0.756912" stop-color="#0A66EA"/>
</linearGradient>
</defs>
</svg>
