<svg width="21.333" height="26.667" viewBox="0 0 21.3333 26.6667" fill="none" xmlns="http://www.w3.org/2000/svg">
<g id="Container">
<path id="Icon" d="M10.6667 14.6667C9.35556 14.6667 8.25 14.2167 7.35 13.3167C6.45 12.4167 6 11.3111 6 10C6 8.68889 6.45 7.58333 7.35 6.68333C8.25 5.78333 9.35556 5.33333 10.6667 5.33333C11.9778 5.33333 13.0833 5.78333 13.9833 6.68333C14.8833 7.58333 15.3333 8.68889 15.3333 10C15.3333 11.3111 14.8833 12.4167 13.9833 13.3167C13.0833 14.2167 11.9778 14.6667 10.6667 14.6667V14.6667M10.6667 12C11.2444 12 11.7222 11.8111 12.1 11.4333C12.4778 11.0556 12.6667 10.5778 12.6667 10C12.6667 9.42222 12.4778 8.94444 12.1 8.56667C11.7222 8.18889 11.2444 8 10.6667 8C10.0889 8 9.61111 8.18889 9.23333 8.56667C8.85556 8.94444 8.66667 9.42222 8.66667 10C8.66667 10.5778 8.85556 11.0556 9.23333 11.4333C9.61111 11.8111 10.0889 12 10.6667 12V12M10.6667 26.6667C7.57778 25.8889 5.02778 24.1167 3.01667 21.35C1.00556 18.5833 0 15.5111 0 12.1333V4L10.6667 0L21.3333 4V12.1333C21.3333 15.5111 20.3278 18.5833 18.3167 21.35C16.3056 24.1167 13.7556 25.8889 10.6667 26.6667V26.6667M10.6667 13.3333V13.3333V13.3333V13.3333V13.3333V13.3333V13.3333V13.3333V13.3333V13.3333M10.6667 2.83333L2.66667 5.83333V12.1333C2.66667 13.3333 2.83333 14.5 3.16667 15.6333C3.5 16.7667 3.95556 17.8333 4.53333 18.8333C5.46667 18.3667 6.44444 18 7.46667 17.7333C8.48889 17.4667 9.55556 17.3333 10.6667 17.3333C11.7778 17.3333 12.8444 17.4667 13.8667 17.7333C14.8889 18 15.8667 18.3667 16.8 18.8333C17.3778 17.8333 17.8333 16.7667 18.1667 15.6333C18.5 14.5 18.6667 13.3333 18.6667 12.1333V5.83333L10.6667 2.83333V2.83333M10.6667 20C9.86667 20 9.08889 20.0889 8.33333 20.2667C7.57778 20.4444 6.85556 20.6889 6.16667 21C6.81111 21.6667 7.51111 22.2444 8.26667 22.7333C9.02222 23.2222 9.82222 23.6 10.6667 23.8667C11.5111 23.6 12.3111 23.2222 13.0667 22.7333C13.8222 22.2444 14.5222 21.6667 15.1667 21C14.4778 20.6889 13.7556 20.4444 13 20.2667C12.2444 20.0889 11.4667 20 10.6667 20V20" fill="#0288FD"/>
</g>
</svg>
