<svg preserveAspectRatio="none" width="100%" height="100%" overflow="visible" style="display: block;" viewBox="0 0 33.0907 24.0001" fill="none" xmlns="http://www.w3.org/2000/svg">
<g id="Frame 38354">
<path id="Vector" d="M11.8186 0.000999451C11.8186 0.555999 11.8626 1.021 11.7986 1.47C11.7716 1.661 11.5486 1.866 11.3656 1.981C10.4786 2.544 9.51558 2.994 8.68858 3.64C6.01258 5.732 4.42658 8.486 4.33958 12.064C4.31558 13.079 4.68958 13.334 5.54158 12.937C8.00458 11.795 10.6536 12.465 12.0666 14.587C13.6076 16.903 13.3906 19.987 11.5436 22.009C9.18558 24.591 5.30358 24.669 2.62658 22.201C1.02358 20.723 0.261578 18.815 0.0715781 16.644C-0.565422 9.373 3.08158 3.379 9.72058 0.746C10.3776 0.486 11.0506 0.271999 11.8186 0.000999451Z" fill="#0288FD"/>
<g id="simple-icons:comma" clip-path="url(#clip0_0_4)">
<path id="Vector_2" d="M26.3637 5.14984e-05C26.3637 0.555052 26.4077 1.02005 26.3437 1.46905C26.3167 1.66005 26.0937 1.86505 25.9107 1.98005C25.0237 2.54305 24.0607 2.99305 23.2337 3.63905C20.5577 5.73105 18.9717 8.48505 18.8847 12.0631C18.8607 13.0781 19.2347 13.3331 20.0867 12.9361C22.5497 11.7941 25.1987 12.4641 26.6117 14.5861C28.1527 16.9021 27.9357 19.9861 26.0887 22.0081C23.7307 24.5901 19.8487 24.6681 17.1717 22.2001C15.5687 20.7221 14.8067 18.8141 14.6167 16.6431C13.9797 9.37205 17.6267 3.37805 24.2657 0.745052C24.9227 0.485052 25.5957 0.271051 26.3637 5.14984e-05Z" fill="#0288FD"/>
</g>
</g>
<defs>
<clipPath id="clip0_0_4">
<rect width="24" height="24" fill="white" transform="matrix(-1 0 0 -1 33.0907 24.0001)"/>
</clipPath>
</defs>
</svg>
