<svg preserveAspectRatio="none" width="100%" height="100%" overflow="visible" style="display: block;" viewBox="0 0 28.4 28.2667" fill="none" xmlns="http://www.w3.org/2000/svg">
<g id="Container">
<path id="Icon" d="M28.1 22.4667L25.7333 20.1V7.86667V7.86667V7.86667H13.5333L10.8667 5.2V5.2L8.2 2.53333H12L14.6667 5.2H25.7333C26.4667 5.2 27.0944 5.46111 27.6167 5.98333C28.1389 6.50556 28.4 7.13333 28.4 7.86667V21.2C28.4 21.4444 28.3778 21.6722 28.3333 21.8833C28.2889 22.0944 28.2111 22.2889 28.1 22.4667V22.4667M26.3667 28.2667L21.9667 23.8667H4.4C3.66667 23.8667 3.03889 23.6056 2.51667 23.0833C1.99444 22.5611 1.73333 21.9333 1.73333 21.2V5.2C1.73333 4.46667 1.99444 3.83889 2.51667 3.31667C3.03889 2.79444 3.66667 2.53333 4.4 2.53333V2.53333L7.06667 5.2H4.4V5.2V5.2V21.2V21.2V21.2H19.3L0 1.86667L1.86667 0L28.2667 26.4L26.3667 28.2667V28.2667M11.3333 13.2V13.2V13.2V13.2V13.2V13.2V13.2V13.2V13.2V13.2V13.2M18.3 12.6333V12.6333V12.6333V12.6333V12.6333V12.6333V12.6333V12.6333V12.6333V12.6333" fill="#0288FD"/>
</g>
</svg>
