<svg preserveAspectRatio="none" width="100%" height="100%" overflow="visible" style="display: block;" viewBox="0 0 26.6667 26.6667" fill="none" xmlns="http://www.w3.org/2000/svg">
<g id="Container">
<path id="Icon" d="M15.3333 26.6667C12.9333 26.6667 10.8889 25.8222 9.2 24.1333C7.51111 22.4444 6.66667 20.4 6.66667 18V17.2333C4.75556 16.9222 3.16667 16.0278 1.9 14.55C0.633333 13.0722 0 11.3333 0 9.33333V1.33333H4V0H6.66667V5.33333H4V4H2.66667V9.33333C2.66667 10.8 3.18889 12.0556 4.23333 13.1C5.27778 14.1444 6.53333 14.6667 8 14.6667C9.46667 14.6667 10.7222 14.1444 11.7667 13.1C12.8111 12.0556 13.3333 10.8 13.3333 9.33333V4H12V5.33333H9.33333V0H12V1.33333H16V9.33333C16 11.3333 15.3667 13.0722 14.1 14.55C12.8333 16.0278 11.2444 16.9222 9.33333 17.2333V18C9.33333 19.6667 9.91667 21.0833 11.0833 22.25C12.25 23.4167 13.6667 24 15.3333 24C17 24 18.4167 23.4167 19.5833 22.25C20.75 21.0833 21.3333 19.6667 21.3333 18V15.7667C20.5556 15.5 19.9167 15.0222 19.4167 14.3333C18.9167 13.6444 18.6667 12.8667 18.6667 12C18.6667 10.8889 19.0556 9.94444 19.8333 9.16667C20.6111 8.38889 21.5556 8 22.6667 8C23.7778 8 24.7222 8.38889 25.5 9.16667C26.2778 9.94444 26.6667 10.8889 26.6667 12C26.6667 12.8667 26.4167 13.6444 25.9167 14.3333C25.4167 15.0222 24.7778 15.5 24 15.7667V18C24 20.4 23.1556 22.4444 21.4667 24.1333C19.7778 25.8222 17.7333 26.6667 15.3333 26.6667V26.6667M22.6667 13.3333C23.0444 13.3333 23.3611 13.2056 23.6167 12.95C23.8722 12.6944 24 12.3778 24 12C24 11.6222 23.8722 11.3056 23.6167 11.05C23.3611 10.7944 23.0444 10.6667 22.6667 10.6667C22.2889 10.6667 21.9722 10.7944 21.7167 11.05C21.4611 11.3056 21.3333 11.6222 21.3333 12C21.3333 12.3778 21.4611 12.6944 21.7167 12.95C21.9722 13.2056 22.2889 13.3333 22.6667 13.3333V13.3333M22.6667 12V12V12V12V12V12V12V12V12V12" fill="#0288FD"/>
</g>
</svg>
