<svg preserveAspectRatio="none" width="100%" height="100%" overflow="visible" style="display: block;" viewBox="0 0 22.6667 29.3333" fill="none" xmlns="http://www.w3.org/2000/svg">
<g id="Container">
<path id="Icon" d="M10.6667 14.6667V1.33333C10.6667 0.955556 10.7944 0.638889 11.05 0.383333C11.3056 0.127778 11.6222 0 12 0C12.3778 0 12.6944 0.127778 12.95 0.383333C13.2056 0.638889 13.3333 0.955556 13.3333 1.33333V14.6667H10.6667V14.6667M5.33333 14.6667V2.66667C5.33333 2.28889 5.46111 1.97222 5.71667 1.71667C5.97222 1.46111 6.28889 1.33333 6.66667 1.33333C7.04444 1.33333 7.36111 1.46111 7.61667 1.71667C7.87222 1.97222 8 2.28889 8 2.66667V14.6667H5.33333V14.6667M11.3333 29.3333C8.17778 29.3333 5.5 28.2333 3.3 26.0333C1.1 23.8333 0 21.1556 0 18V5.33333C0 4.95556 0.127778 4.63889 0.383333 4.38333C0.638889 4.12778 0.955556 4 1.33333 4C1.71111 4 2.02778 4.12778 2.28333 4.38333C2.53889 4.63889 2.66667 4.95556 2.66667 5.33333V18C2.66667 20.4222 3.50556 22.4722 5.18333 24.15C6.86111 25.8278 8.91111 26.6667 11.3333 26.6667C13.7556 26.6667 15.8056 25.8278 17.4833 24.15C19.1611 22.4722 20 20.4222 20 18V13.3333V13.3333C19.6222 13.3333 19.3056 13.4611 19.05 13.7167C18.7944 13.9722 18.6667 14.2889 18.6667 14.6667V20H14.6667C13.9333 20 13.3056 20.2611 12.7833 20.7833C12.2611 21.3056 12 21.9333 12 22.6667V24H9.33333V22.6667C9.33333 21.2 9.85556 19.9444 10.9 18.9C11.9444 17.8556 13.2 17.3333 14.6667 17.3333H16V13.5333V13.5333V4C16 3.62222 16.1278 3.30556 16.3833 3.05C16.6389 2.79444 16.9556 2.66667 17.3333 2.66667C17.7111 2.66667 18.0278 2.79444 18.2833 3.05C18.5389 3.30556 18.6667 3.62222 18.6667 4V10.9C18.8889 10.8333 19.1056 10.7778 19.3167 10.7333C19.5278 10.6889 19.7556 10.6667 20 10.6667H22.6667V18C22.6667 21.1556 21.5667 23.8333 19.3667 26.0333C17.1667 28.2333 14.4889 29.3333 11.3333 29.3333V29.3333M12.6667 18.6667V18.6667V18.6667V18.6667V18.6667V18.6667V18.6667V18.6667V18.6667V18.6667V18.6667V18.6667V18.6667V18.6667V18.6667V18.6667V18.6667" fill="#0288FD"/>
</g>
</svg>
