<svg preserveAspectRatio="none" width="100%" height="100%" overflow="visible" style="display: block;" viewBox="0 0 20 20" fill="none" xmlns="http://www.w3.org/2000/svg">
<g id="SVG">
<path id="Vector" fill-rule="evenodd" clip-rule="evenodd" d="M10 3C10.5519 3 11 3.44808 11 4V9H16C16.5519 9 17 9.44808 17 10C17 10.5519 16.5519 11 16 11H11V16C11 16.5519 10.5519 17 10 17C9.44808 17 9 16.5519 9 16V11H4C3.44808 11 3 10.5519 3 10C3 9.44808 3.44808 9 4 9H9V4C9 3.44808 9.44808 3 10 3V3" fill="var(--fill-0, white)"/>
</g>
</svg>
