<svg width="16" height="16" viewBox="0 0 16 16" fill="none" xmlns="http://www.w3.org/2000/svg">
<g id="map:doctor" clip-path="url(#clip0_0_4)">
<path id="Vector" d="M13.7357 4.16H12.16V2.48768C12.16 1.29216 11.2166 0.32 10.0179 0.32H5.9824C4.78304 0.32 3.84 1.29216 3.84 2.48768V4.16H2.264C1.19008 4.16 0.32 4.98912 0.32 6.05984V13.4221C0.32 14.4925 1.19008 15.36 2.264 15.36H13.7357C14.8093 15.36 15.68 14.4925 15.68 13.4218V6.05984C15.68 4.98912 14.8093 4.16 13.7357 4.16ZM5.12 2.48768C5.12 2.04 5.53344 1.6 5.9824 1.6H10.0179C10.4656 1.6 10.88 2.04 10.88 2.48768V4.16H5.12V2.48768ZM11.52 11.2H9.28V13.44H6.72V11.2H4.48V8.64H6.72V6.4H9.28V8.64H11.52V11.2Z" fill="#0288FD"/>
</g>
<defs>
<clipPath id="clip0_0_4">
<rect width="16" height="16" fill="white"/>
</clipPath>
</defs>
</svg>
