<svg preserveAspectRatio="none" width="100%" height="100%" overflow="visible" style="display: block;" viewBox="0 0 407.66 322.891" fill="none" xmlns="http://www.w3.org/2000/svg">
<path id="Ellipse 16" opacity="0.1" d="M380.394 1.37941e-06C408.356 50.4434 415.133 109.928 399.236 165.369C383.339 220.809 346.069 267.664 295.625 295.625C245.182 323.586 185.697 330.364 130.256 314.467C74.8159 298.569 27.9613 261.3 8.84693e-07 210.856L60.453 177.347C79.527 211.757 111.489 237.181 149.308 248.025C187.127 258.869 227.705 254.246 262.116 235.172C296.526 216.098 321.95 184.136 332.794 146.317C343.639 108.498 339.015 67.9199 319.941 33.5097L380.394 1.37941e-06Z" fill="url(#paint0_linear_0_96)"/>
<defs>
<linearGradient id="paint0_linear_0_96" x1="359.702" y1="-65.9188" x2="31.0098" y2="515.393" gradientUnits="userSpaceOnUse">
<stop stop-color="#A5CCFF"/>
<stop offset="0.756912" stop-color="#0A66EA"/>
</linearGradient>
</defs>
</svg>
