<svg preserveAspectRatio="none" width="100%" height="100%" overflow="visible" style="display: block;" viewBox="0 0 330.267 171.802" fill="none" xmlns="http://www.w3.org/2000/svg">
<path id="Ellipse 16" opacity="0.17" d="M330.267 1.52588e-05C330.267 22.5614 325.996 44.9019 317.697 65.7459C309.399 86.5899 297.235 105.529 281.901 121.483C266.567 137.436 248.363 150.091 228.328 158.725C208.293 167.358 186.819 171.802 165.134 171.802C143.448 171.802 121.975 167.358 101.94 158.725C81.9048 150.091 63.7006 137.436 48.3665 121.483C33.0325 105.529 20.8688 86.5899 12.5701 65.7459C4.27131 44.9019 -1.89582e-06 22.5614 0 2.39356e-07L52.4868 5.01319e-06C52.4868 15.3904 55.4005 30.6301 61.0615 44.849C66.7225 59.0678 75.0201 71.9874 85.4803 82.8701C95.9405 93.7527 108.359 102.385 122.026 108.275C135.693 114.165 150.341 117.196 165.134 117.196C179.927 117.196 194.575 114.165 208.242 108.275C221.909 102.385 234.327 93.7527 244.787 82.8701C255.247 71.9874 263.545 59.0678 269.206 44.849C274.867 30.6301 277.781 15.3904 277.781 1.52588e-05H330.267Z" fill="url(#paint0_linear_0_51)"/>
<defs>
<linearGradient id="paint0_linear_0_51" x1="556.76" y1="-79.6599" x2="123.571" y2="31.4207" gradientUnits="userSpaceOnUse">
<stop stop-color="#A5CCFF" stop-opacity="0.59"/>
<stop offset="1" stop-color="#0288FD" stop-opacity="0.6"/>
</linearGradient>
</defs>
</svg>
