<svg preserveAspectRatio="none" width="100%" height="100%" overflow="visible" style="display: block;" viewBox="0 0 36 36" fill="none" xmlns="http://www.w3.org/2000/svg">
<g id="oui:integration-search" clip-path="url(#clip0_0_63)">
<path id="Vector" d="M30.846 22.2C29.9359 25.0093 28.1298 27.4428 25.7044 29.1274C23.279 30.8121 20.3681 31.655 17.4179 31.527C14.4676 31.399 11.6406 30.3071 9.37024 28.4187C7.09987 26.5303 5.51131 23.9496 4.848 21.072L7.401 20.568L2.541 15.54L-0.003 22.041L2.688 21.513C3.43901 24.891 5.28161 27.9276 7.93107 30.1536C10.5805 32.3797 13.8894 33.6712 17.3462 33.8286C20.8031 33.986 24.2156 33.0005 27.0564 31.0244C29.8972 29.0484 32.0081 26.1918 33.063 22.896L30.846 22.2ZM33.354 14.58C32.6026 11.2021 30.7597 8.16575 28.11 5.94004C25.4604 3.71433 22.1515 2.42319 18.6946 2.26614C15.2377 2.10909 11.8254 3.09487 8.98481 5.07114C6.14424 7.04742 4.03359 9.90419 2.979 13.2L5.118 13.896C6.02777 11.0866 7.83361 8.65301 10.2588 6.96813C12.684 5.28325 15.5947 4.44003 18.545 4.5677C21.4953 4.69536 24.3223 5.78687 26.5929 7.67495C28.8634 9.56302 30.4523 12.1435 31.116 15.021L28.563 15.528L33.423 20.544L35.997 14.052L33.354 14.58Z" fill="#0288FD"/>
<path id="Vector_2" d="M27.126 24.396C27.2304 24.5024 27.3128 24.6283 27.3686 24.7665C27.4243 24.9047 27.4523 25.0526 27.4509 25.2016C27.4495 25.3506 27.4188 25.4979 27.3605 25.6351C27.3021 25.7723 27.2174 25.8966 27.111 26.001C27.0046 26.1054 26.8787 26.1878 26.7405 26.2436C26.6023 26.2993 26.4544 26.3273 26.3054 26.3259C26.1564 26.3245 26.0091 26.2938 25.8719 26.2355C25.7347 26.1771 25.6104 26.0924 25.506 25.986L21.441 21.846C21.2339 21.6332 21.1181 21.3479 21.1181 21.051C21.1181 20.7541 21.2339 20.4688 21.441 20.256C22.2331 19.4507 22.722 18.3959 22.8245 17.271C22.9271 16.1461 22.637 15.0203 22.0036 14.085C21.3702 13.1497 20.4325 12.4625 19.3499 12.1402C18.2672 11.818 17.1064 11.8804 16.0646 12.3171C15.0228 12.7537 14.1643 13.5375 13.6349 14.5354C13.1056 15.5333 12.938 16.6837 13.1607 17.7911C13.3834 18.8985 13.9827 19.8947 14.8566 20.6104C15.7306 21.326 16.8254 21.7171 17.955 21.717C18.2562 21.717 18.545 21.8366 18.7579 22.0496C18.9709 22.2625 19.0905 22.5513 19.0905 22.8525C19.0905 23.1537 18.9709 23.4425 18.7579 23.6554C18.545 23.8684 18.2562 23.988 17.955 23.988C16.3505 23.9873 14.7928 23.4473 13.5321 22.4548C12.2715 21.4622 11.381 20.0748 11.0038 18.5152C10.6265 16.9557 10.7844 15.3147 11.4521 13.8557C12.1197 12.3967 13.2584 11.2045 14.6852 10.4705C16.112 9.73653 17.7441 9.50343 19.3193 9.80865C20.8945 10.1139 22.3214 10.9397 23.3707 12.1534C24.4201 13.3672 25.0311 14.8984 25.1055 16.5012C25.1799 18.104 24.7134 19.6852 23.781 20.991L27.126 24.396Z" fill="#0288FD"/>
</g>
<defs>
<clipPath id="clip0_0_63">
<rect width="36" height="36" fill="white"/>
</clipPath>
</defs>
</svg>
