<svg preserveAspectRatio="none" width="100%" height="100%" overflow="visible" style="display: block;" viewBox="0 0 31 31" fill="none" xmlns="http://www.w3.org/2000/svg">
<g id="material-symbols:privacy-tip-rounded">
<path id="Vector" d="M16.421 21.5876C16.6681 21.3396 16.7917 21.0326 16.7917 20.6667V15.5C16.7917 15.134 16.6677 14.8275 16.4197 14.5803C16.1717 14.3332 15.8651 14.2092 15.5 14.2083C15.1349 14.2075 14.8283 14.3315 14.5803 14.5803C14.3323 14.8292 14.2083 15.1358 14.2083 15.5V20.6667C14.2083 21.0326 14.3323 21.3396 14.5803 21.5876C14.8283 21.8356 15.1349 21.9592 15.5 21.9583C15.8651 21.9575 16.1721 21.8348 16.421 21.5876ZM16.421 11.253C16.6681 11.0059 16.7917 10.6993 16.7917 10.3333C16.7917 9.96736 16.6677 9.66081 16.4197 9.41367C16.1717 9.16653 15.8651 9.04253 15.5 9.04167C15.1349 9.04081 14.8283 9.16481 14.5803 9.41367C14.3323 9.66253 14.2083 9.96908 14.2083 10.3333C14.2083 10.6976 14.3323 11.0046 14.5803 11.2543C14.8283 11.504 15.1349 11.6276 15.5 11.625C15.8651 11.6224 16.1721 11.4984 16.421 11.253ZM15.0802 28.2552C14.951 28.2337 14.8219 28.2014 14.6927 28.1583C11.7865 27.1896 9.47222 25.3972 7.75 22.7811C6.02778 20.1651 5.16667 17.3505 5.16667 14.3375V8.23437C5.16667 7.69618 5.32296 7.21181 5.63554 6.78125C5.94812 6.35069 6.35156 6.03854 6.84583 5.84479L14.5958 2.93854C14.8972 2.8309 15.1986 2.77708 15.5 2.77708C15.8014 2.77708 16.1028 2.8309 16.4042 2.93854L24.1542 5.84479C24.6493 6.03854 25.0532 6.35069 25.3657 6.78125C25.6783 7.21181 25.8342 7.69618 25.8333 8.23437V14.3375C25.8333 17.3514 24.9722 20.1664 23.25 22.7824C21.5278 25.3985 19.2135 27.1904 16.3073 28.1583C16.1781 28.2014 16.049 28.2337 15.9198 28.2552C15.7906 28.2767 15.6507 28.2875 15.5 28.2875C15.3493 28.2875 15.2094 28.2767 15.0802 28.2552Z" fill="#0288FD"/>
</g>
</svg>
