<svg preserveAspectRatio="none" width="100%" height="100%" overflow="visible" style="display: block;" viewBox="0 0 123.374 33.386" fill="none" xmlns="http://www.w3.org/2000/svg">
<g id="Frame 14">
<path id="Vector" fill-rule="evenodd" clip-rule="evenodd" d="M46.2588 11.9664C43.5377 12.5782 40.8411 14.5046 39.359 16.8953C38.2638 18.6614 37.8614 19.9852 37.7685 22.1246C37.6228 25.4739 38.5587 27.9156 40.8839 30.2516C42.4734 31.8494 43.9528 32.6614 46.1478 33.1403C48.0833 33.5618 50.8581 33.4289 52.5469 32.8326C55.8061 31.6819 58.1631 29.3549 59.2437 26.2213C59.7672 24.7019 59.8983 21.6357 59.5078 20.0716C58.6156 16.5038 55.8052 13.4777 52.2811 12.2887C50.6178 11.7279 47.9531 11.585 46.2588 11.9664ZM69.9864 11.9773C68.1173 12.3788 66.1618 13.464 64.7735 14.8715C60.5502 19.1494 60.5829 26.0566 64.8454 30.319C66.9839 32.4575 69.3391 33.3843 72.632 33.3843C75.9813 33.3843 78.3055 32.4566 80.4841 30.2507C82.6627 28.0439 83.5357 25.9 83.5485 22.7218C83.5621 19.5636 82.5625 17.122 80.333 14.8678C77.7566 12.2632 73.8009 11.158 69.9864 11.9773ZM85.6906 22.5515V33.0493H90.1288V25.5385L91.5372 25.5404L92.9455 25.5413L95.0786 29.2939L97.2125 33.0465L99.5595 33.0475C100.85 33.0484 101.905 32.9919 101.903 32.9209C101.9 32.8508 100.87 31.0337 99.6114 28.8833L97.3254 24.9723L98.2932 24.5144C100.598 23.4219 101.7 21.0403 101.37 17.8567C101.072 14.9753 99.138 12.9733 96.0136 12.3115C95.1359 12.1257 93.6238 12.0584 90.2571 12.0565L85.6906 12.0538V22.5515ZM110.5 12.2596C110.408 12.3806 109.862 13.7089 109.285 15.2111C107.85 18.9519 104.541 27.4877 103.377 30.4547C102.851 31.7975 102.419 32.9309 102.419 32.9728C102.419 33.0147 103.45 33.0493 104.709 33.0493H106.998L107.462 31.8121C107.717 31.1311 108.089 30.1515 108.288 29.6353L108.652 28.6967H116.973L117.818 30.8725L118.663 33.0493H121.058C122.903 33.0493 123.433 33.0001 123.369 32.8362C123.323 32.7188 122.25 30.0113 120.984 26.8186C119.717 23.6267 117.928 19.0948 117.007 16.7478C116.086 14.4008 115.267 12.3925 115.185 12.2841C114.965 11.991 110.719 11.9692 110.5 12.2596ZM7.97685 12.5181C7.90038 12.7794 4.89882 20.4567 1.09611 30.116C0.493433 31.6473 6.02943e-07 32.9537 6.02943e-07 33.0174C-0.000909964 33.082 1.02965 33.1112 2.28873 33.083L4.57836 33.0311L5.30303 31.0346C5.70087 29.9366 6.10145 28.9416 6.19249 28.8241C6.3163 28.6639 7.38419 28.6111 10.4804 28.6111H14.6036L15.4521 30.8297L16.3015 33.0475L21.1229 33.0493L17.5806 24.1302C15.6323 19.225 13.7751 14.5583 13.4538 13.7608L12.8684 12.3096L10.4668 12.2623C8.28912 12.2195 8.05697 12.2432 7.97685 12.5181ZM17.3712 12.9669C17.5341 13.3757 19.3959 18.0606 21.508 23.3782L25.3489 33.0456L29.9573 33.0438L31.7463 28.4809C33.11 25.0078 34.4793 21.5383 35.8549 18.0706L38.1745 12.2241H33.517L31.6616 17.0464C30.6411 19.6984 29.3264 23.1351 28.7411 24.6828C27.8034 27.1599 27.6559 27.4467 27.5139 27.0726C27.269 26.4298 22.0624 12.8659 21.9295 12.5227C21.8266 12.2577 21.5417 12.2241 19.4441 12.2241H17.0753L17.3712 12.9669ZM47.1983 16.0386C43.8836 16.9017 41.9882 19.5891 42.2085 23.1133C42.3696 25.7015 43.676 27.6898 45.9174 28.7604C46.7632 29.1637 47.0527 29.2083 48.8198 29.2083C50.6515 29.2083 50.849 29.1756 51.7694 28.7094C52.9857 28.0931 54.1592 26.865 54.7637 25.5759C55.177 24.6937 55.2207 24.4097 55.2207 22.6335C55.2207 20.7563 55.1952 20.6142 54.6617 19.5309C53.3053 16.7742 50.1107 15.2802 47.1983 16.0386ZM70.8713 16.075C68.9476 16.593 67.602 17.7629 66.6862 19.7139C66.2101 20.7289 66.1554 21.0093 66.1536 22.466C66.1509 25.0187 66.9375 26.7221 68.7464 28.0813C69.9736 29.0026 71.1954 29.3412 73.0189 29.2657C75.5206 29.161 77.3423 28.0403 78.3556 25.9819C79.3698 23.9199 79.4126 21.5647 78.473 19.5117C77.1775 16.6832 73.9821 15.2384 70.8713 16.075ZM90.1288 18.8326V21.8087L92.5613 21.7531C94.5806 21.7076 95.1086 21.6402 95.6712 21.3562C96.5907 20.8937 97.0132 20.1135 97.0132 18.8818C97.0132 17.5799 96.5998 16.8698 95.5301 16.3381C94.8 15.9749 94.4495 15.9248 92.4184 15.892L90.1288 15.8565V18.8326ZM10.1008 17.7993C9.64014 19.0693 9.18221 20.3402 8.72702 21.6129C8.17168 23.1615 7.66186 24.5635 7.5954 24.7274C7.48251 25.0051 7.68098 25.026 10.4058 25.026H13.3372L13.218 24.6427C13.1515 24.4315 12.5061 22.5807 11.7823 20.5305L10.4659 16.8024L10.1008 17.7993ZM112.77 17.0036C112.715 17.1447 112.081 18.9109 111.363 20.9301C110.644 22.9485 110.02 24.6955 109.975 24.813C109.912 24.9787 110.551 25.026 112.831 25.026C115.561 25.026 115.762 25.0051 115.652 24.7274C115.556 24.4861 113.276 17.9513 112.958 17.0036C112.881 16.776 112.86 16.776 112.77 17.0036Z" fill="var(--fill-0, #0288FD)"/>
<path id="Vector_2" d="M10.4872 0.0327599L10.5091 0.0391327C10.5965 0.065534 10.6793 0.110143 10.7503 0.166587L10.7676 0.181154C10.8013 0.207555 10.8013 0.207555 10.814 0.21939V0.231225H10.8259V0.24306L10.8368 0.247612C10.8568 0.258537 10.8687 0.276745 10.8823 0.295863C10.885 0.299505 10.8887 0.304056 10.8914 0.307698C10.9615 0.40602 11.0007 0.509805 11.0161 0.629067C11.0207 0.675496 11.0198 0.721926 11.0198 0.768357C11.0198 0.786564 11.0198 0.805682 11.0198 0.82389C11.0198 0.835725 11.0189 0.847561 11.0189 0.859396V0.905826C11.018 0.920392 11.0152 0.934048 11.0125 0.947704C11.0116 0.957718 11.0107 0.966822 11.0107 0.976836L11.0098 0.993223L11.0089 1.01143V1.03055C11.0079 1.05058 11.007 1.07061 11.0061 1.09064C11.0052 1.1225 11.0043 1.15527 11.0025 1.18805C11.0007 1.23175 10.9988 1.27636 10.9943 1.32096H10.9834L10.9843 1.33553C10.9879 1.36648 10.9897 1.39471 10.9834 1.42566C10.9788 1.46025 10.977 1.49303 10.977 1.52762C10.977 1.59044 10.977 1.59044 10.9652 1.61229C10.9642 1.62686 10.9633 1.64142 10.9624 1.65508C10.9606 1.69696 10.9606 1.69696 10.957 1.71152C10.9533 1.72427 10.9524 1.7361 10.9515 1.74885L10.9497 1.76432C10.9497 1.77525 10.9488 1.78526 10.9479 1.79528C10.9451 1.82623 10.9406 1.85627 10.9342 1.88723C10.9233 1.9373 10.9178 1.98737 10.9124 2.03835C10.9105 2.05565 10.9087 2.07386 10.9069 2.09116L10.906 2.1039C10.9033 2.12939 10.8969 2.15306 10.8896 2.17764C10.8887 2.18584 10.8878 2.19312 10.8869 2.20131L10.885 2.21315L10.8823 2.23682C10.8796 2.2614 10.8741 2.28234 10.8668 2.30601C10.865 2.31875 10.8641 2.3315 10.8632 2.34333C10.8623 2.367 10.8596 2.38703 10.8523 2.40979C10.8441 2.44075 10.8404 2.47261 10.835 2.50356L10.8268 2.54908L10.8231 2.57093C10.8186 2.59733 10.8149 2.62282 10.8104 2.64832L10.8068 2.66925C10.8022 2.69019 10.7986 2.71204 10.794 2.73298C10.7904 2.75028 10.7867 2.76758 10.784 2.78487L10.7722 2.84132C10.7658 2.87227 10.7594 2.90414 10.753 2.93509C10.7485 2.95512 10.7439 2.97424 10.7403 2.99426L10.7385 3.0061L10.7321 3.03432H10.7212L10.7184 3.05617C10.7121 3.11079 10.7039 3.1636 10.6902 3.2164C10.6784 3.26192 10.6684 3.30744 10.6574 3.35387C10.6502 3.38573 10.642 3.4176 10.631 3.44855C10.6256 3.46585 10.6219 3.48406 10.6192 3.50135C10.5992 3.60514 10.5992 3.60514 10.5801 3.64975C10.5746 3.66613 10.5728 3.6807 10.5719 3.698L10.57 3.71529L10.5691 3.72804C10.5864 3.69982 10.6037 3.67069 10.6192 3.64155C10.7221 3.45128 10.8432 3.2692 10.9606 3.08803C10.9752 3.06436 10.9897 3.04069 11.0052 3.01793C11.0425 2.95876 11.0808 2.90049 11.1208 2.84223C11.1363 2.81947 11.1518 2.79671 11.1673 2.77395C11.2583 2.64103 11.3512 2.50812 11.4468 2.37793C11.4641 2.35517 11.4814 2.3315 11.4977 2.30783C11.5342 2.25685 11.5724 2.20769 11.6124 2.15852C11.6334 2.13303 11.6534 2.10663 11.6734 2.08023C11.6844 2.06657 11.6944 2.05292 11.7053 2.03926L11.7144 2.02834C11.7199 2.02197 11.7253 2.01468 11.7308 2.00831C11.7426 1.99192 11.7545 1.97645 11.7654 1.96006L11.7754 1.94458H11.7872L11.7918 1.93548C11.8018 1.91636 11.8155 1.90088 11.8291 1.88541L11.8382 1.87448C11.8537 1.85627 11.8701 1.83807 11.8865 1.81986C11.8974 1.80711 11.9065 1.79528 11.9156 1.78162C11.9293 1.76159 11.9457 1.74612 11.9629 1.72882C11.9748 1.71698 11.9748 1.71698 11.9857 1.69878C11.9985 1.68148 12.0103 1.67055 12.0276 1.6569C12.0394 1.64688 12.0394 1.64688 12.0485 1.63141C12.0649 1.60683 12.0849 1.58862 12.1059 1.56859L12.1223 1.5522C12.1323 1.54219 12.1323 1.54219 12.1414 1.52671C12.156 1.50486 12.1732 1.48848 12.1915 1.47027L12.2024 1.45934C12.2169 1.44478 12.2315 1.43021 12.247 1.41565C12.2998 1.36466 12.2998 1.36466 12.3462 1.3064C12.3699 1.27362 12.4008 1.24904 12.4345 1.2281L12.4518 1.21172C12.5092 1.16256 12.5793 1.12978 12.6503 1.1052L12.6658 1.09974C12.7759 1.06514 12.9116 1.06605 13.0236 1.09064C13.1565 1.1225 13.2703 1.17894 13.3731 1.26816L13.3886 1.28182C13.4023 1.29456 13.4168 1.30822 13.4314 1.32096L13.4423 1.33098C13.4715 1.3592 13.497 1.39197 13.5188 1.42566V1.43749H13.5297L13.537 1.45024L13.5561 1.48483C13.5616 1.49576 13.568 1.50668 13.5743 1.51761C13.5825 1.53126 13.5889 1.54492 13.5944 1.5604V1.58316H13.6062C13.6463 1.69878 13.6463 1.69878 13.6526 1.75249L13.6545 1.76888C13.6645 1.86902 13.6654 1.98373 13.629 2.07841C13.6281 2.08296 13.6262 2.08751 13.6244 2.09207C13.619 2.10663 13.6135 2.12211 13.6062 2.13668C13.5971 2.15488 13.5898 2.174 13.5825 2.19312C13.5771 2.20678 13.5771 2.20678 13.5652 2.22407H13.5534V2.24228H13.5416L13.5379 2.25412C13.497 2.34607 13.3886 2.43073 13.314 2.49446C13.2958 2.51085 13.2776 2.52723 13.2603 2.54453C13.2293 2.57275 13.1984 2.60097 13.1674 2.62829C13.1565 2.63739 13.1565 2.63739 13.151 2.65014L13.1374 2.65833C13.1219 2.66652 13.1219 2.66652 13.1091 2.68018L13.0991 2.6911H13.0873L13.0827 2.70112C13.0754 2.71386 13.0754 2.71386 13.0627 2.72115C13.0463 2.73116 13.0381 2.74026 13.0263 2.75483C13.0099 2.77486 12.9926 2.78761 12.9708 2.80126C12.9607 2.80945 12.9516 2.81765 12.9416 2.82584C12.917 2.84769 12.8915 2.86863 12.8661 2.88866L12.8488 2.90231C12.8442 2.90687 12.8387 2.91142 12.8333 2.91597L12.8187 2.9269L12.8078 2.936H12.796V2.94692C12.7869 2.95603 12.7768 2.96422 12.7668 2.9715L12.7495 2.98607C12.7259 3.00428 12.7022 3.02249 12.6794 3.04069L12.6548 3.05981C12.582 3.11626 12.5101 3.17179 12.4354 3.2255C12.4209 3.23643 12.4054 3.24735 12.3908 3.25828L12.3626 3.27831L12.349 3.28923C12.3271 3.30471 12.308 3.31836 12.2825 3.32565V3.33748C12.2743 3.34477 12.2743 3.34476 12.2625 3.35387L12.2497 3.36297L12.2206 3.383C12.206 3.39393 12.1924 3.40394 12.1778 3.41395L12.1669 3.42124C12.1496 3.43398 12.1314 3.44582 12.1132 3.45856C12.1004 3.46676 12.0886 3.47586 12.0758 3.48405C12.023 3.52047 11.9693 3.55689 11.9156 3.59239C11.9029 3.60059 11.891 3.60878 11.8783 3.61697C11.8309 3.64884 11.7827 3.6807 11.7335 3.71256C11.7144 3.7244 11.6962 3.73714 11.678 3.74989C11.6625 3.76081 11.647 3.77083 11.6297 3.77993C11.6043 3.7945 11.5797 3.81089 11.5542 3.82727C11.5132 3.85367 11.4722 3.87916 11.4313 3.90466C11.4031 3.92195 11.3757 3.94016 11.3475 3.95837C11.333 3.96747 11.3175 3.97567 11.3029 3.98386C11.2838 3.99569 11.2656 4.00753 11.2465 4.01937C11.2146 4.03939 11.1818 4.05851 11.1491 4.07581C11.1299 4.08582 11.1136 4.09766 11.0953 4.10949C11.0671 4.12861 11.0362 4.145 11.0052 4.15957L10.9943 4.16503L10.9888 4.17686L10.9988 4.17413C11.1272 4.14045 11.2556 4.10858 11.3849 4.07763L11.3967 4.07399C11.4194 4.06853 11.4422 4.06306 11.4659 4.0576C11.475 4.05578 11.4832 4.05305 11.4923 4.05123C11.5715 4.03211 11.6516 4.0139 11.7308 3.99661L11.7481 3.99296C11.8437 3.97202 11.9393 3.95382 12.0349 3.93561C12.0676 3.93015 12.0995 3.92377 12.1323 3.91649C12.1842 3.90648 12.237 3.89646 12.2907 3.88736C12.2952 3.88645 12.3007 3.88554 12.3053 3.88463L12.3189 3.8819C12.3298 3.88008 12.3298 3.88008 12.3408 3.8737C12.3526 3.87188 12.3635 3.87006 12.3744 3.86915L12.3954 3.86642L12.4391 3.86005C12.4755 3.85458 12.5128 3.84912 12.5502 3.84184C12.6002 3.83182 12.6521 3.82545 12.7031 3.81817C12.7168 3.81635 12.7304 3.81453 12.7432 3.81271C12.7523 3.8118 12.7614 3.80998 12.7696 3.80906C12.796 3.80542 12.8214 3.80178 12.8478 3.79814C12.8934 3.79177 12.9398 3.78722 12.9862 3.78266C13.0554 3.77629 13.1246 3.76901 13.1938 3.7599C13.344 3.74079 13.497 3.7335 13.6481 3.72986H13.6681L13.6854 3.72895C13.7 3.72895 13.7 3.72895 13.7164 3.72258C13.7291 3.72167 13.7419 3.72167 13.7546 3.72167H13.7664C13.7792 3.72167 13.7919 3.72167 13.8047 3.72167L13.8174 3.72076C13.8411 3.72076 13.8638 3.72076 13.8875 3.72076C13.9112 3.72076 13.9349 3.72076 13.9585 3.72076C13.9776 3.72076 13.9959 3.72076 14.0141 3.72076C14.0232 3.72076 14.0314 3.72076 14.0405 3.72076C14.1506 3.71985 14.2508 3.74352 14.3482 3.79723C14.4237 3.84093 14.4957 3.89282 14.5503 3.9611L14.5621 3.97658C14.6486 4.08673 14.7078 4.21965 14.7287 4.35894C14.7406 4.44088 14.7406 4.52099 14.7251 4.60293L14.7223 4.62113C14.7196 4.63388 14.7169 4.64754 14.7132 4.66119L14.7078 4.68577C14.7032 4.71035 14.6941 4.73129 14.6841 4.75405L14.675 4.77954C14.6495 4.84327 14.6149 4.90245 14.5776 4.9598L14.5703 4.96981C14.5557 4.99166 14.5403 5.00987 14.5211 5.02808L14.512 5.03809C14.4565 5.09636 14.3882 5.13642 14.3172 5.17374L14.2999 5.18285C14.2171 5.2229 14.1279 5.23292 14.0377 5.23292H14.0132C13.9868 5.23383 13.9603 5.23383 13.9339 5.23383H13.9203C13.7528 5.23383 13.5862 5.22746 13.4196 5.21471L13.4005 5.21289C13.3331 5.20834 13.2648 5.20287 13.1965 5.19377C13.1492 5.18831 13.1028 5.18376 13.0554 5.1792C12.9808 5.17283 12.9061 5.16555 12.8333 5.15189C12.7878 5.1437 12.7422 5.13824 12.6967 5.13277C12.6421 5.1264 12.5884 5.11912 12.5347 5.10819C12.5001 5.10182 12.4655 5.09727 12.43 5.09272C12.3672 5.08361 12.3034 5.07269 12.2406 5.05994C12.2097 5.05448 12.1787 5.04902 12.1478 5.04265C12.1141 5.03718 12.0813 5.03081 12.0476 5.02444C11.9193 5.00077 11.7927 4.97164 11.6653 4.9425C11.6316 4.93431 11.5988 4.92703 11.5651 4.91974C11.4713 4.89971 11.3785 4.87786 11.2856 4.8551L11.2692 4.85055C11.211 4.83599 11.1527 4.82142 11.0953 4.80594C11.0653 4.79775 11.0362 4.79047 11.0061 4.78318V4.77135L10.9888 4.78318C11.0207 4.80503 11.0526 4.82415 11.0862 4.84236C11.1117 4.85602 11.1363 4.87058 11.1618 4.88515L11.1755 4.89334C11.2037 4.90973 11.2301 4.92612 11.2565 4.94432C11.2711 4.95343 11.2856 4.96162 11.3011 4.96981C11.3248 4.98256 11.3475 4.99713 11.3703 5.0126C11.3894 5.02535 11.4085 5.03627 11.4285 5.04811L11.4404 5.05539C11.4568 5.06541 11.4741 5.07542 11.4914 5.08543L11.5068 5.09454L11.5214 5.10273L11.5305 5.11001V5.12094L11.5596 5.12731V5.13915L11.5697 5.14006C11.586 5.14552 11.597 5.15371 11.6106 5.16373C11.6297 5.17647 11.648 5.18922 11.668 5.20014C11.6935 5.2138 11.7171 5.23019 11.7408 5.24657C11.7517 5.25568 11.7517 5.25568 11.7645 5.26114V5.27297L11.7754 5.27571C11.7872 5.27844 11.7872 5.27844 11.7991 5.28481V5.29573L11.8091 5.29756C11.8246 5.30302 11.8364 5.3103 11.8501 5.3194L11.8674 5.33033C11.8956 5.34854 11.9238 5.36766 11.952 5.38677C11.9666 5.39588 11.9802 5.40498 11.9948 5.415L12.0139 5.42683L12.0312 5.43867L12.044 5.44777V5.4596L12.0558 5.46325C12.0777 5.47326 12.0959 5.48601 12.115 5.49875L12.1268 5.50786C12.1714 5.5379 12.2142 5.56976 12.2579 5.60163C12.2752 5.61437 12.2934 5.62621 12.3107 5.63895C12.3189 5.64533 12.328 5.6517 12.3362 5.65807C12.3599 5.67446 12.3826 5.69175 12.4063 5.70814L12.4209 5.71816C12.43 5.72544 12.44 5.73181 12.4491 5.73818L12.4618 5.74729L12.4728 5.75548L12.481 5.76277V5.77369L12.4928 5.77824C12.5146 5.78826 12.531 5.80191 12.5502 5.81739C12.582 5.84379 12.6148 5.86928 12.6485 5.89386L12.6603 5.90297L12.6712 5.91116L12.6812 5.91844C12.6894 5.92482 12.6976 5.93028 12.7049 5.93574L12.714 5.94302V5.95486L12.724 5.95941C12.7377 5.96669 12.7486 5.97398 12.7605 5.98308L12.7732 5.99309L12.7869 6.00311L12.7996 6.01403C12.8087 6.02041 12.8169 6.02678 12.8251 6.03315C12.8351 6.04043 12.8442 6.04863 12.8542 6.05591L12.8661 6.06593V6.07685L12.8752 6.0814C12.8906 6.0896 12.9034 6.0987 12.917 6.10962L12.9307 6.11964L12.9416 6.12965V6.14149L12.9708 6.15332V6.16425L12.9799 6.1688C12.999 6.17881 13.0135 6.19338 13.029 6.20795C13.0463 6.22433 13.0618 6.2389 13.0809 6.25165V6.26348L13.0918 6.2653L13.1046 6.26985C13.1082 6.27714 13.1128 6.28533 13.1164 6.29261C13.1237 6.29717 13.1319 6.30081 13.1392 6.30445C13.1465 6.30991 13.1528 6.31446 13.1583 6.31992L13.1692 6.32903L13.1801 6.33904L13.2056 6.36089L13.2175 6.37091C13.2275 6.38001 13.2275 6.38001 13.2329 6.39731C13.2402 6.40186 13.2484 6.4055 13.2566 6.40914C13.2694 6.42189 13.2821 6.43554 13.2949 6.44829C13.3085 6.46195 13.3085 6.46195 13.3249 6.47196C13.3458 6.48653 13.3622 6.502 13.3804 6.52021L13.3904 6.53023C13.3968 6.5366 13.4041 6.54388 13.4114 6.55116C13.4223 6.56118 13.4323 6.5721 13.4432 6.58303C13.4806 6.61944 13.5133 6.65677 13.5416 6.70047C13.5461 6.70684 13.5507 6.71321 13.5552 6.71959C13.6171 6.80972 13.649 6.90895 13.6572 7.01637C13.6645 7.13928 13.6645 7.13928 13.6526 7.1848C13.6508 7.19663 13.6499 7.20847 13.6481 7.2203C13.6381 7.29313 13.6135 7.36505 13.5771 7.42969L13.568 7.44608C13.5443 7.48705 13.5179 7.52528 13.4897 7.56352L13.4815 7.57353C13.4369 7.63271 13.3941 7.68824 13.3285 7.72466C13.3149 7.73194 13.304 7.74014 13.2912 7.74924L13.2739 7.76199H13.2566V7.77291C13.2411 7.7811 13.2248 7.7893 13.2093 7.79658L13.1938 7.80477C13.0645 7.86759 12.9307 7.8858 12.7887 7.87761C12.6885 7.86941 12.5847 7.833 12.5019 7.77837C12.4455 7.73832 12.4455 7.73832 12.4254 7.71738C12.4163 7.70736 12.4163 7.70736 12.399 7.70372C12.3908 7.69462 12.3908 7.69462 12.3817 7.68369C12.3644 7.66275 12.3462 7.64363 12.3271 7.62452L12.318 7.61632C12.3089 7.60722 12.3007 7.59811 12.2916 7.58992C12.2543 7.5526 12.2179 7.51618 12.1842 7.47612C12.1751 7.46702 12.1669 7.457 12.1587 7.4479L12.1478 7.43516C12.1414 7.42787 12.135 7.4215 12.1286 7.41513C12.1141 7.40056 12.1013 7.38508 12.0886 7.36961C12.0795 7.35868 12.0795 7.35868 12.0667 7.35322L12.0595 7.34047C12.0494 7.32409 12.0394 7.31316 12.0258 7.30042C12.0012 7.27675 11.9802 7.25126 11.9584 7.22485C11.9438 7.20665 11.9284 7.18844 11.9129 7.17023C11.8883 7.1411 11.8637 7.11197 11.84 7.08283C11.83 7.07009 11.8191 7.05734 11.8082 7.04551C11.78 7.01364 11.7545 6.97905 11.729 6.94536C11.6889 6.89256 11.6489 6.84067 11.6043 6.7906C11.597 6.7824 11.5906 6.7733 11.5833 6.76511V6.74781H11.5715C11.5533 6.72687 11.5378 6.7032 11.5241 6.67862C11.5141 6.66132 11.5041 6.6504 11.4905 6.63674L11.4722 6.60761C11.4668 6.60033 11.4613 6.59213 11.455 6.58485C11.4158 6.53478 11.3776 6.48289 11.3421 6.42917C11.3275 6.40732 11.312 6.38547 11.2965 6.36453C11.282 6.3436 11.2674 6.32357 11.2538 6.30354C11.2155 6.24891 11.2155 6.24891 11.1755 6.19702C11.1627 6.18064 11.1554 6.16516 11.1463 6.14695C11.1372 6.13329 11.1281 6.11964 11.119 6.10598L11.1108 6.09415C11.1063 6.08595 11.1008 6.07867 11.0953 6.07048C11.0653 6.02678 11.0362 5.98217 11.0079 5.93756C10.9952 5.91662 10.9806 5.89659 10.967 5.87656C10.9533 5.85836 10.9415 5.84015 10.9315 5.82012C10.9233 5.80646 10.9142 5.79281 10.906 5.77915C10.8705 5.72362 10.8359 5.66717 10.8022 5.61073C10.7776 5.56885 10.7521 5.52697 10.7266 5.4851C10.703 5.44777 10.6802 5.40953 10.6574 5.3713C10.6511 5.36037 10.6438 5.34854 10.6365 5.3367L10.6292 5.32487C10.6256 5.31758 10.621 5.3103 10.6165 5.30302C10.6101 5.293 10.6046 5.28299 10.5983 5.27297L10.5919 5.26205C10.5855 5.25204 10.5801 5.24202 10.5755 5.23201V5.22017H10.5637C10.5664 5.24566 10.571 5.2666 10.581 5.29027C10.5837 5.30211 10.5873 5.31394 10.5901 5.32578L10.5946 5.34399L10.5983 5.36037C10.6001 5.36766 10.6019 5.37585 10.6046 5.38313C10.6083 5.39861 10.6083 5.39861 10.6101 5.41226L10.6046 5.43047H10.6156L10.6192 5.44868L10.6247 5.47235L10.6265 5.4851C10.6301 5.50239 10.6338 5.51878 10.6392 5.53517L10.6338 5.547H10.6447V5.59343H10.6565L10.6593 5.60891C10.6638 5.62803 10.6675 5.64806 10.6711 5.66717C10.6729 5.67537 10.6738 5.68356 10.6757 5.69175C10.6784 5.7045 10.6802 5.71634 10.6829 5.72817L10.6875 5.75002C10.6911 5.76914 10.6911 5.76914 10.703 5.78553C10.7066 5.80191 10.7093 5.81739 10.7112 5.83287C10.7175 5.8711 10.7239 5.90843 10.733 5.94666L10.7357 5.95941C10.7385 5.96942 10.7412 5.97944 10.7439 5.98945L10.7503 5.99583L10.7521 6.01767C10.7549 6.04681 10.7612 6.07321 10.7694 6.10143C10.7731 6.11873 10.7758 6.13512 10.7794 6.15332C10.7831 6.17517 10.7876 6.19793 10.7922 6.21978C10.8031 6.2735 10.8131 6.32721 10.8231 6.38001C10.8295 6.41643 10.8368 6.45193 10.8441 6.48835C10.8696 6.61489 10.8696 6.61489 10.8605 6.6422H10.8723L10.8741 6.6595C10.8787 6.70593 10.886 6.75145 10.8951 6.79697C10.9096 6.87162 10.9178 6.94627 10.9269 7.02184C10.9324 7.07373 10.9388 7.12562 10.9479 7.1766C10.9542 7.21393 10.9579 7.25217 10.9615 7.2904C10.9642 7.32045 10.967 7.35049 10.9715 7.38053C10.977 7.41968 10.9797 7.45791 10.9806 7.49706C10.9825 7.51982 10.9843 7.54076 10.9888 7.56352C10.9907 7.58082 10.9907 7.5972 10.9916 7.6145C10.9934 7.6409 10.9943 7.6673 10.9979 7.69462C11.0007 7.72284 11.0025 7.75197 11.0034 7.7811L11.0043 7.7984C11.0052 7.83118 11.007 7.86486 11.0079 7.89854L11.0089 7.92039C11.0089 7.93405 11.0098 7.94862 11.0098 7.96227L11.0107 7.9823V7.9996C11.0116 8.01872 11.0116 8.01872 11.0152 8.03966C11.0189 8.06788 11.0189 8.09519 11.0189 8.1225V8.1398C11.0189 8.15072 11.0189 8.16256 11.0189 8.17348C11.0189 8.19169 11.0189 8.20899 11.0198 8.22629C11.0198 8.36011 11.0198 8.36011 10.9943 8.4202C10.9934 8.42839 10.9916 8.43568 10.9897 8.44387C10.9734 8.52034 10.9324 8.59226 10.8841 8.65326L10.8714 8.66874C10.8477 8.7006 10.8477 8.7006 10.8377 8.71152H10.8259V8.72336H10.814V8.73519H10.8022L10.7967 8.75249C10.7849 8.76251 10.7731 8.77252 10.7612 8.78253L10.7503 8.79073C10.6402 8.87448 10.5045 8.9282 10.3679 8.94641C10.215 8.96279 10.0648 8.94641 9.92185 8.88632C9.86632 8.86083 9.81443 8.82988 9.76526 8.79346C9.75707 8.788 9.74888 8.78253 9.74068 8.77707L9.7243 8.76433V8.75249L9.71337 8.74794C9.70063 8.74066 9.69152 8.73337 9.68151 8.72245L9.67149 8.71334C9.58774 8.61775 9.53129 8.50851 9.50125 8.38469C9.48942 8.32916 9.49033 8.27271 9.49033 8.21627V8.20353C9.49033 8.17803 9.49033 8.15163 9.49124 8.12523C9.49124 8.11613 9.49124 8.10702 9.49124 8.09792C9.49306 7.8594 9.51218 7.6227 9.53493 7.38599L9.53676 7.36779C9.54586 7.27128 9.55587 7.17478 9.57226 7.0801C9.58228 7.02002 9.59047 6.96084 9.59775 6.90075C9.60048 6.88437 9.6023 6.86707 9.60503 6.85068L9.60686 6.8343C9.6105 6.80881 9.61414 6.78422 9.6196 6.75873C9.62506 6.7296 9.62871 6.70138 9.63235 6.67134C9.64145 6.60215 9.65511 6.53478 9.66876 6.46559C9.67149 6.4492 9.67514 6.4319 9.67787 6.41552C9.6979 6.29261 9.72248 6.17153 9.75161 6.05045C9.75889 6.02223 9.76344 5.994 9.768 5.96578C9.77164 5.94211 9.77801 5.92026 9.78347 5.89841C9.78802 5.8793 9.79167 5.86109 9.79622 5.84288C9.80714 5.7919 9.81898 5.74092 9.83081 5.68993L9.83445 5.67537C9.84902 5.61528 9.86359 5.5552 9.87815 5.4942L9.8827 5.47781C9.88726 5.45778 9.89272 5.43685 9.89909 5.41591C9.90729 5.38586 9.91457 5.35582 9.92185 5.32487C9.93187 5.28845 9.94097 5.25113 9.95098 5.21471C9.93369 5.2311 9.92185 5.24748 9.91002 5.26933L9.90091 5.28572C9.89272 5.30302 9.88361 5.32031 9.87542 5.3367H9.86359L9.86268 5.34672C9.85721 5.36401 9.84811 5.37858 9.8381 5.39497C9.82535 5.41591 9.81443 5.43593 9.80532 5.4596H9.7944L9.78984 5.47144C9.78074 5.49238 9.76891 5.5115 9.75707 5.53153L9.74979 5.54336C9.73977 5.56066 9.72885 5.57796 9.71792 5.59434C9.70791 5.60891 9.69881 5.62439 9.69061 5.63986C9.65329 5.70996 9.60777 5.77551 9.56316 5.84106C9.54859 5.862 9.53493 5.88294 9.5231 5.9057C9.51126 5.92846 9.4967 5.94757 9.48031 5.9676C9.47212 5.97853 9.47212 5.97853 9.46757 5.99583H9.45573L9.45118 6.00857C9.4439 6.02496 9.4357 6.03861 9.42387 6.05318C9.4093 6.07412 9.39655 6.09415 9.38563 6.11782H9.37471C9.37197 6.12419 9.37197 6.12419 9.37015 6.13056C9.36287 6.14786 9.35377 6.16061 9.34284 6.17608L9.33192 6.19156L9.3219 6.20522C9.31007 6.22251 9.29914 6.23799 9.29277 6.25802H9.28094L9.27729 6.26894C9.26637 6.29443 9.24998 6.31537 9.23359 6.33722L9.22358 6.35179C9.21357 6.36453 9.20355 6.37819 9.19354 6.39185C9.16167 6.43554 9.16167 6.43554 9.13072 6.48015C9.11342 6.50747 9.09431 6.53478 9.0761 6.56118L9.06608 6.57483L9.05698 6.58758L9.0497 6.59942L9.04241 6.60761H9.03058L9.02694 6.61944C9.01965 6.63492 9.01328 6.64311 9.00236 6.65586C8.98051 6.67953 8.9623 6.70593 8.94318 6.73233C8.91769 6.76966 8.89038 6.80516 8.86124 6.84067C8.83302 6.87617 8.8048 6.91168 8.77749 6.9481C8.76383 6.96539 8.75018 6.98269 8.73561 6.99908C8.72196 7.01364 8.72195 7.01364 8.71558 7.0273H8.70375L8.70011 7.0364C8.68645 7.06189 8.67006 7.08465 8.65003 7.10468C8.63547 7.11925 8.62363 7.13473 8.6118 7.15202C8.59541 7.17478 8.57811 7.19481 8.55717 7.21484C8.53077 7.24124 8.50801 7.27219 8.48525 7.30133C8.47888 7.30952 8.4716 7.3168 8.46522 7.32409H8.45339V7.33592H8.44155V7.34776H8.42972L8.42608 7.35686C8.41606 7.37598 8.40332 7.39055 8.38966 7.40602H8.37783L8.37327 7.41695C8.36599 7.42878 8.35962 7.43789 8.3496 7.4479L8.3405 7.45791L8.32958 7.46884C8.3232 7.47521 8.31683 7.4825 8.31046 7.48978L8.30044 7.49979C8.29043 7.51072 8.28042 7.52164 8.27131 7.53348C8.24491 7.56352 8.21578 7.59174 8.18755 7.61996L8.17117 7.63635C8.16115 7.64637 8.15114 7.65638 8.14112 7.66639C8.13111 7.6755 8.1211 7.68551 8.11199 7.69553C8.09834 7.70918 8.08377 7.72102 8.06829 7.73285L8.05373 7.74469L8.04007 7.75561L8.02733 7.76563L8.0164 7.77291H7.9991V7.78475C7.8589 7.85758 7.72599 7.8858 7.56758 7.87852C7.46197 7.86941 7.36274 7.82935 7.26988 7.77928L7.25167 7.76927C7.1843 7.73194 7.12058 7.68824 7.07233 7.62725C7.06322 7.61814 7.05503 7.60813 7.04592 7.59903C7.02043 7.57171 6.99949 7.54258 6.97855 7.51072L6.96854 7.49706C6.93486 7.44699 6.91301 7.39237 6.89116 7.33592L6.88661 7.32409C6.842 7.20847 6.84109 7.07737 6.85929 6.95629C6.86202 6.9399 6.86202 6.9399 6.8684 6.9226L6.87113 6.90713C6.88752 6.817 6.93486 6.74326 6.99039 6.67134L7.0004 6.65859C7.03045 6.62035 7.06322 6.58576 7.09691 6.55208L7.11238 6.5366C7.14334 6.50565 7.1752 6.47833 7.20888 6.45102C7.23164 6.4319 7.25167 6.41096 7.27261 6.39003C7.29628 6.36544 7.31631 6.34451 7.34635 6.32812C7.36001 6.31446 7.37275 6.30081 7.38641 6.28624C7.4028 6.26894 7.41736 6.26075 7.43921 6.25165C7.44559 6.24072 7.44559 6.24072 7.45105 6.22889C7.45924 6.21978 7.45924 6.21978 7.46926 6.2125C7.48473 6.19975 7.4993 6.18701 7.51478 6.17335C7.5348 6.15605 7.55665 6.13876 7.57759 6.12237C7.58943 6.11327 7.60126 6.10325 7.61219 6.09324C7.63313 6.07503 7.65498 6.05773 7.67683 6.04043C7.70414 6.0195 7.73054 5.99765 7.75694 5.97489C7.79062 5.94575 7.82613 5.91844 7.86072 5.89204C7.87711 5.88021 7.89259 5.86837 7.90806 5.85563C7.92718 5.84106 7.9463 5.82649 7.96542 5.81102C8.04189 5.75093 8.1211 5.69267 8.20121 5.63713C8.23125 5.61619 8.26039 5.59434 8.29043 5.5734C8.40605 5.48965 8.52349 5.40862 8.64184 5.32942C8.65732 5.3194 8.67188 5.30939 8.68736 5.29938C8.76019 5.25021 8.83393 5.20287 8.90767 5.15553C8.92497 5.14461 8.94227 5.13368 8.95957 5.12276C9.02056 5.08361 9.08247 5.04538 9.14438 5.00896C9.16532 4.99622 9.18625 4.98347 9.20719 4.96981C9.24543 4.94705 9.28367 4.92429 9.3219 4.90153C9.35286 4.88333 9.38381 4.86512 9.41476 4.846L9.43479 4.83417C9.44754 4.82597 9.46028 4.81869 9.47303 4.8105L9.49124 4.79957L9.50671 4.79047C9.52037 4.78318 9.52037 4.78318 9.53767 4.78318V4.77135L9.51764 4.77681C9.46666 4.79047 9.41567 4.80321 9.36378 4.81596C9.3301 4.82324 9.29641 4.83144 9.26364 4.84145C9.2163 4.85511 9.16714 4.86694 9.11889 4.87786C9.09795 4.88242 9.07792 4.88788 9.05698 4.89243L9.02238 4.90062L8.98961 4.90882C8.9541 4.91701 8.9186 4.92429 8.88218 4.93158C8.85214 4.93704 8.82301 4.94432 8.79297 4.95161C8.73925 4.96526 8.68463 4.9771 8.63001 4.98893L8.61453 4.99257C8.50437 5.01624 8.39512 5.03718 8.28406 5.05721L8.26221 5.06085C8.17026 5.07815 8.07831 5.09181 7.98636 5.10546C7.94448 5.11092 7.90351 5.1173 7.86163 5.12549C7.82522 5.13186 7.78971 5.13642 7.75239 5.14006C7.72234 5.1437 7.69321 5.14734 7.66317 5.1528C7.55574 5.17192 7.44832 5.18103 7.33998 5.19013C7.29355 5.19468 7.24803 5.19832 7.20251 5.20378C7.16518 5.20743 7.12695 5.21107 7.08962 5.21471L7.07597 5.21562C6.91574 5.23019 6.75642 5.23383 6.59619 5.23383C6.58162 5.23383 6.56706 5.23383 6.55249 5.23474C6.52973 5.23474 6.50606 5.23474 6.4833 5.23474C6.47511 5.23474 6.466 5.23474 6.45781 5.23474C6.4041 5.23474 6.35494 5.22928 6.30304 5.21471L6.28302 5.20925C6.21018 5.18922 6.14282 5.15462 6.08364 5.10819C6.06998 5.09727 6.06998 5.09727 6.0536 5.08817L6.04085 5.08088V5.06905H6.02902C6.019 5.05903 6.00899 5.04993 5.99988 5.03991L5.98623 5.02626C5.91431 4.9507 5.84967 4.84782 5.81872 4.74859C5.81598 4.73493 5.81325 4.72128 5.80961 4.70762C5.80688 4.69305 5.80142 4.68031 5.79596 4.66665C5.76227 4.5565 5.76045 4.42995 5.78685 4.31797L5.78958 4.30523L5.79322 4.29066C5.81143 4.21874 5.83419 4.1541 5.87152 4.08947L5.87789 4.07763C5.91249 4.01754 5.95254 3.96565 5.99988 3.91467L6.0099 3.90375L6.01718 3.89737H6.02902V3.88554C6.04358 3.87279 6.05906 3.86187 6.07545 3.85094L6.08455 3.84366C6.1592 3.79086 6.23568 3.75262 6.3258 3.73441L6.34765 3.72804C6.38589 3.71985 6.42504 3.72076 6.46418 3.72076H6.48876C6.51152 3.72076 6.53428 3.72076 6.55613 3.72076C6.5707 3.72076 6.58436 3.72076 6.59892 3.72076C6.75551 3.72076 6.9121 3.72622 7.06959 3.73896C7.08234 3.73987 7.096 3.74079 7.10965 3.7417C7.16701 3.74625 7.22436 3.75171 7.28172 3.75717L7.29992 3.75899C7.62493 3.79177 7.62493 3.79177 7.76331 3.81271C7.78607 3.81635 7.80792 3.81908 7.83068 3.82272C8.12474 3.8646 8.12474 3.8646 8.23125 3.88827C8.27131 3.89737 8.31137 3.90466 8.35143 3.91194C8.4015 3.92104 8.45066 3.93015 8.50073 3.94016C8.52986 3.94653 8.55899 3.952 8.58904 3.95746C8.68008 3.97476 8.77021 3.99387 8.86033 4.01572C8.87945 4.01937 8.89857 4.02392 8.9186 4.02847C8.9796 4.04304 9.04059 4.05669 9.10159 4.07399C9.13345 4.08218 9.16532 4.08947 9.19809 4.09584C9.24088 4.10494 9.28276 4.11496 9.32554 4.12679C9.35741 4.13498 9.38927 4.14318 9.42114 4.15228L9.44207 4.15774C9.44845 4.15866 9.45573 4.16048 9.4621 4.1623L9.4794 4.16685C9.4967 4.1714 9.514 4.17413 9.5322 4.17686L9.52219 4.1714C9.46848 4.14318 9.41658 4.11223 9.3656 4.08036C9.34557 4.06853 9.32554 4.05669 9.30552 4.04486L9.28458 4.03211C9.27001 4.02392 9.25544 4.01481 9.24179 4.00662C9.17897 3.96929 9.11615 3.93106 9.05516 3.89191C9.03149 3.87643 9.00782 3.86187 8.98506 3.8473C8.92224 3.80815 8.85942 3.7681 8.79752 3.72804L8.78477 3.72076C8.67552 3.65066 8.56628 3.57783 8.46067 3.50044C8.44702 3.49043 8.43518 3.48314 8.41879 3.47768V3.46585L8.40514 3.4613C8.39057 3.45492 8.37874 3.44764 8.36508 3.43854L8.3496 3.42761C8.32138 3.40667 8.29316 3.38573 8.26403 3.36388C8.21487 3.32747 8.1648 3.29196 8.11563 3.25646L8.10289 3.24735C8.09196 3.23916 8.08013 3.23097 8.0692 3.22277L8.05828 3.21549C8.04098 3.20274 8.04098 3.20274 8.02186 3.19182V3.17998L8.01185 3.17543C8.00001 3.16906 7.99 3.16269 7.97908 3.15449L7.96633 3.14448L7.93356 3.1199L7.92354 3.1117C7.91717 3.10715 7.9108 3.10169 7.90442 3.09623C7.88713 3.08348 7.86892 3.07074 7.85162 3.05799L7.83523 3.04616V3.03432L7.82613 3.02977C7.81065 3.02249 7.797 3.01429 7.78334 3.00519V2.99426L7.77333 2.9888C7.75967 2.98243 7.74966 2.97424 7.73873 2.96513L7.72599 2.95512L7.71415 2.9451C7.68138 2.91779 7.68138 2.91779 7.64587 2.89321L7.63131 2.8832V2.87136L7.6222 2.86772C7.61037 2.86044 7.60035 2.85406 7.59034 2.84496C7.57486 2.8313 7.57486 2.8313 7.56212 2.82493V2.8131L7.5521 2.80945C7.53298 2.79853 7.51751 2.78305 7.50203 2.76758C7.48018 2.74755 7.45924 2.72752 7.43466 2.71022L7.41554 2.69657V2.68473L7.40553 2.68018C7.39187 2.6729 7.38004 2.66379 7.36638 2.65378L7.35364 2.64376C7.33816 2.63102 7.3245 2.61736 7.31085 2.60371C7.29628 2.58823 7.2808 2.57275 7.26533 2.55728L7.25349 2.54544C7.23073 2.52177 7.20615 2.49992 7.18157 2.47807C7.16792 2.46624 7.15517 2.45349 7.14243 2.43984C7.12513 2.42254 7.10692 2.40524 7.08871 2.38976C7.04501 2.35153 7.0086 2.31056 6.97309 2.26504L6.96217 2.25138C6.93304 2.21224 6.91392 2.16945 6.89571 2.12484C6.89116 2.11392 6.88661 2.1039 6.88205 2.09298C6.87386 2.07295 6.8684 2.05383 6.86476 2.03289L6.8602 2.01377C6.85201 1.96734 6.84928 1.92091 6.84928 1.87448V1.8581C6.85019 1.77798 6.85838 1.69696 6.89116 1.62412C6.8948 1.61593 6.89844 1.60683 6.90117 1.59863C6.93759 1.5085 6.98402 1.41473 7.05594 1.34828C7.06595 1.33917 7.07506 1.32825 7.08416 1.31732C7.10328 1.29456 7.12513 1.27635 7.14789 1.25724L7.16336 1.24358C7.2362 1.18441 7.32086 1.14071 7.41008 1.11157L7.4292 1.10429C7.54482 1.06879 7.67591 1.06423 7.79518 1.0879C7.86892 1.10429 7.93447 1.13069 7.9991 1.16984V1.18076L8.00821 1.18258C8.07376 1.20261 8.12656 1.26543 8.17299 1.31277L8.18209 1.32096C8.21305 1.35283 8.24218 1.38378 8.26858 1.41929C8.28679 1.44205 8.30864 1.46299 8.32958 1.48301C8.33868 1.49212 8.34687 1.50031 8.35598 1.5085L8.3669 1.52034C8.37783 1.53126 8.38693 1.54128 8.39512 1.55402V1.56586H8.40696C8.41515 1.57405 8.41515 1.57405 8.42517 1.58589C8.44337 1.60774 8.46249 1.62868 8.4807 1.64962L8.48889 1.65872V1.67055L8.50619 1.67693C8.51439 1.68603 8.52258 1.69605 8.53077 1.70606C8.54716 1.72609 8.56355 1.74703 8.58084 1.76615C8.60998 1.79983 8.60998 1.79983 8.62272 1.81622V1.82805L8.63274 1.8326C8.6473 1.8408 8.65459 1.84899 8.66369 1.86356V1.87448H8.67461L8.67644 1.88632L8.68099 1.89815L8.69828 1.90362C8.7083 1.91545 8.7174 1.92637 8.72651 1.93821C8.73197 1.94549 8.73743 1.95369 8.74289 1.96097C8.74654 1.96461 8.74927 1.96825 8.75291 1.9728C8.76292 1.98646 8.77385 2.00012 8.78477 2.01377L8.7957 2.02834C8.80298 2.03744 8.81117 2.04655 8.81846 2.05656L8.82847 2.06931L8.83757 2.08114L8.84395 2.09025V2.10208H8.85578L8.86124 2.12575H8.87308C8.88309 2.1385 8.89311 2.15124 8.90312 2.16399C8.9095 2.17309 8.91587 2.18128 8.92224 2.19039L8.93226 2.20404C8.94682 2.22407 8.9623 2.2441 8.97777 2.26413C9.01237 2.30874 9.04605 2.35426 9.07974 2.39978L9.08975 2.41252L9.09795 2.42527L9.10614 2.43528C9.11251 2.44712 9.11524 2.45622 9.11798 2.46897H9.12981C9.14074 2.48353 9.15075 2.4981 9.16167 2.51267L9.17078 2.52632C9.18079 2.54089 9.1899 2.55454 9.19991 2.5682C9.20537 2.57639 9.21084 2.58459 9.2163 2.59278C9.22904 2.6119 9.2427 2.63102 9.25544 2.65014C9.2691 2.67016 9.28367 2.69019 9.29732 2.71022L9.30552 2.72206C9.32008 2.743 9.33465 2.76485 9.34921 2.78578C9.37197 2.81765 9.39382 2.85042 9.41476 2.8832L9.42751 2.9014L9.44845 2.93418C9.45573 2.94692 9.45573 2.94692 9.45573 2.95876H9.46757L9.47303 2.98789H9.48486C9.49397 3.00064 9.50216 3.01429 9.51035 3.02795C9.51582 3.03614 9.52128 3.04434 9.52583 3.05344L9.53493 3.0671C9.54404 3.08166 9.55314 3.09623 9.56225 3.1117L9.57226 3.12627C9.57863 3.13629 9.58501 3.14539 9.59138 3.1554L9.59957 3.16906L9.60686 3.18089C9.61323 3.19182 9.61687 3.20274 9.6196 3.21549H9.63053C9.63781 3.22459 9.63781 3.22459 9.646 3.23916L9.65511 3.25555L9.66603 3.27375C9.67331 3.2865 9.68151 3.30016 9.6897 3.3129C9.69152 3.31654 9.69425 3.32018 9.69607 3.32383C9.7161 3.35751 9.73613 3.39028 9.75616 3.42306L9.76617 3.43854C9.78074 3.46221 9.7944 3.48497 9.80896 3.50772L9.81625 3.51774C9.82171 3.52684 9.82717 3.53595 9.83354 3.54505C9.84083 3.55962 9.84083 3.55962 9.84083 3.57691H9.85266L9.85812 3.60605H9.86996L9.89454 3.64975L9.90182 3.66249C9.90637 3.67069 9.91093 3.67888 9.91548 3.68707C9.92003 3.69527 9.92458 3.70346 9.92913 3.71074C9.9346 3.72076 9.94006 3.73077 9.94552 3.73987L9.95736 3.74534L9.9528 3.73441C9.93642 3.6898 9.92276 3.64428 9.91093 3.59785L9.90455 3.57418C9.88999 3.51683 9.87542 3.45947 9.86177 3.40121C9.85721 3.38209 9.85266 3.36206 9.84811 3.34203C9.81989 3.22186 9.79166 3.10078 9.76617 2.97879C9.75616 2.92872 9.74432 2.87955 9.73249 2.82948C9.72703 2.80581 9.7243 2.78487 9.7243 2.76029C9.72065 2.74664 9.7161 2.73389 9.71246 2.72024C9.70973 2.70749 9.707 2.69566 9.70518 2.68382L9.70245 2.6729C9.69334 2.62647 9.68515 2.58095 9.67696 2.53543C9.67149 2.50447 9.66512 2.47352 9.65966 2.44166C9.64782 2.38157 9.63781 2.32057 9.62871 2.25958C9.62506 2.23227 9.62142 2.20586 9.61687 2.17855C9.58865 2.01104 9.58865 2.01104 9.58501 1.94003L9.5841 1.92729L9.57863 1.92182C9.57681 1.90999 9.57499 1.89815 9.57317 1.88723L9.57044 1.86447L9.56771 1.8408L9.56407 1.81531C9.55496 1.73792 9.54586 1.66054 9.53767 1.58316L9.53585 1.56313C9.52401 1.45297 9.51582 1.34281 9.50853 1.23266C9.50853 1.22719 9.50762 1.22173 9.50762 1.21627C9.50671 1.20625 9.5058 1.19624 9.5058 1.18623C9.50398 1.16438 9.50216 1.14253 9.49943 1.12068C9.49579 1.09063 9.49579 1.06059 9.49488 1.02964V1.01143C9.49397 0.998685 9.49397 0.98594 9.49397 0.973195C9.49397 0.954076 9.49306 0.934958 9.49306 0.91584C9.49124 0.851202 9.49033 0.787475 9.49033 0.722837V0.704629C9.49124 0.631798 9.4967 0.56807 9.52037 0.498881C9.52128 0.495239 9.5231 0.490687 9.52401 0.487045C9.54677 0.419676 9.57772 0.364143 9.6196 0.306788C9.62324 0.300415 9.62779 0.294042 9.63144 0.286759L9.64236 0.272193H9.6542L9.65875 0.262179C9.66694 0.246702 9.67696 0.235777 9.68879 0.223942L9.70154 0.211197L9.71246 0.202093H9.7243V0.190258C9.73522 0.182064 9.74706 0.174781 9.75889 0.166587L9.77255 0.155663C9.87087 0.0782794 9.9965 0.0272975 10.1194 0.00908964C10.245 -0.0072973 10.3661 -0.0027454 10.4872 0.0327599Z" fill="var(--fill-0, #0288FD)"/>
</g>
</svg>
