<svg width="104.443" height="18.3135" viewBox="0 0 104.443 18.3135" fill="none" xmlns="http://www.w3.org/2000/svg">
<g id="Group">
<path id="Vector" d="M29.942 18.2762C24.8709 18.1644 20.6201 14.2864 20.732 8.87973C20.8811 4.62893 24.2743 -0.181184 30.4641 0.00525415C34.7894 0.0798296 39.5995 3.32386 39.4877 9.28989C39.3385 15.2932 34.3047 18.4254 29.942 18.2762ZM30.1285 1.12389C26.2505 1.12389 23.5658 3.95775 23.5658 8.76787C23.5658 14.5102 26.959 17.083 30.1658 17.083C34.0437 17.083 36.6165 14.1 36.6165 9.40176C36.6538 4.36792 34.0437 1.12389 30.1285 1.12389Z" fill="black"/>
<path id="Vector_2" d="M104.443 0.527282V0.266268H99.3717V0.527282C100.379 0.601857 100.64 0.788296 100.64 2.20523V8.39499H91.5413V2.20523C91.5413 0.788296 91.8023 0.56457 92.8091 0.527282V0.266268H87.738V0.527282C88.7447 0.601857 89.0058 0.788296 89.0058 2.20523V16.0763C89.0058 17.4932 88.7447 17.7169 87.738 17.7542V18.0152H92.8091V17.7542C91.8023 17.6796 91.5413 17.4932 91.5413 16.0763V9.47633H100.64V16.1135C100.64 17.5305 100.379 17.7542 99.3717 17.7915V18.0525H104.443V17.7915C103.436 17.7169 103.175 17.5305 103.175 16.1135V2.24252C103.175 0.788296 103.436 0.601857 104.443 0.527282Z" fill="black"/>
<path id="Vector_3" d="M40.83 0.266268V0.527282C41.7995 0.56457 42.0978 0.676433 42.0978 1.72049V16.1135C42.0978 17.5305 41.8368 17.7542 40.83 17.7915V18.0525H44.6707V17.7915C43.6639 17.7169 43.4029 17.5305 43.4029 16.1135V3.17471C43.4029 3.39844 53.2841 15.4424 55.4468 18.0525H55.857V1.72049C55.857 0.676433 56.118 0.601857 57.1248 0.527282V0.266268H53.3587V0.527282C54.3282 0.56457 54.6265 0.676433 54.6265 1.72049V13.0187L44.1859 0.266268H40.83Z" fill="black"/>
<path id="Vector_4" d="M65.7382 0.266268H65.4026C64.5077 2.39167 60.3315 12.2356 58.9146 15.6288C58.6536 16.2254 58.2434 17.1576 57.9451 17.4932C57.7214 17.7542 57.4976 17.7542 57.2739 17.7915V18.0525H60.6671V17.7915C60.4061 17.7915 59.8095 17.7915 59.7722 17.2695C59.7722 17.1203 59.8095 16.9339 59.8841 16.7474C59.9959 16.4491 60.6671 14.6966 61.5247 12.7576H68.2738C68.945 14.3983 69.5416 15.8152 69.8399 16.4491C69.9145 16.6356 70.1009 17.083 70.1009 17.2695C70.1009 17.7542 69.6534 17.7915 69.1687 17.7915V18.0525H73.9042V17.7915C73.3076 17.7542 73.1212 17.6051 72.711 16.6356L65.7382 0.266268ZM61.9349 11.639C63.0908 8.80515 64.8433 4.33063 64.8433 4.33063C64.8433 4.33063 66.4467 8.3577 67.7891 11.639H61.9349Z" fill="black"/>
<path id="Vector_5" d="M0.0372871 0.266268V0.527282C0.596603 0.56457 0.894906 0.601857 1.08134 0.825584C1.11863 0.900159 1.1932 1.01202 1.23049 1.0866C1.26778 1.16117 1.26778 1.27304 1.26778 1.3849C1.26778 1.49676 1.26778 1.60863 1.26778 1.72049V16.1135C1.26778 17.5305 1.00677 17.7542 0 17.7915V18.0525H3.80334V17.7915C2.79658 17.7169 2.53556 17.5305 2.53556 16.1135V3.77131C2.53556 3.54759 2.49828 3.10013 2.49828 3.10013L2.722 3.77131L8.87447 17.9779H9.24735L15.5117 3.36115L15.6981 2.76454C15.6981 2.76454 15.6608 3.06285 15.6608 3.32386V16.1135C15.6608 17.5305 15.3998 17.7542 14.3931 17.7915V18.0525H19.4642V17.7915C18.4574 17.7169 18.1964 17.5305 18.1964 16.1135V1.72049C18.1964 0.676433 18.4574 0.601857 19.4642 0.527282V0.266268H15.5117L9.84395 13.6898L4.10165 0.266268H0.0372871Z" fill="black"/>
<path id="Vector_6" d="M74.7618 16.8593C75.9551 17.5678 77.7076 18.3135 79.6093 18.3135C79.6465 18.3135 79.6838 18.3135 79.7211 18.3135C82.4804 18.2762 85.4261 16.2254 85.4261 12.9814C85.4261 9.47633 82.9651 8.656 80.5042 7.38822C78.0059 6.15773 76.9618 5.52383 76.9618 3.88318C76.9618 2.76454 77.633 1.12389 79.8703 1.12389C80.5787 1.12389 81.2126 1.31032 81.7347 1.57134C83.5245 2.57811 83.6363 3.99504 83.86 4.88994H84.1211L83.9719 0.937447C82.816 0.452707 81.9211 0.22898 81.2872 0.154405C80.9143 0.117117 80.5414 0.0798296 80.2431 0.0798296C77.7449 0.0798296 74.8364 1.57134 74.8364 4.7035C74.8364 6.8289 76.1042 8.17126 78.6398 9.43904C81.138 10.7068 83.0397 11.2289 83.0397 13.7271C83.0397 14.9949 82.294 17.2322 79.4974 17.2322C78.3788 17.2322 77.4838 16.8593 76.7754 16.2627C75.0974 14.6966 75.1347 13.4288 75.0229 12.9441H74.7618V16.8593Z" fill="black"/>
</g>
</svg>
