<svg viewBox="0 0 58 46" fill="none" xmlns="http://www.w3.org/2000/svg">
<g id="solar:health-bold" clip-path="url(#clip0_0_4)">
<path id="Vector" fill-rule="evenodd" clip-rule="evenodd" d="M21.8248 42.3837C14.7126 36.9341 5 27.932 5 19.4205C5 5.20082 18.2917 -0.108598 29.1667 10.8727C40.0417 -0.108598 53.3333 5.20082 53.3333 19.4205C53.3333 27.932 43.6183 36.9341 36.5085 42.3837C33.2895 44.8487 31.68 46.0836 29.1667 46.0836C26.6533 46.0836 25.0438 44.8511 21.8248 42.3837ZM40.0417 12.8544C40.5224 12.8544 40.9834 13.0454 41.3233 13.3853C41.6632 13.7252 41.8542 14.1862 41.8542 14.6669V17.6877H44.875C45.3557 17.6877 45.8167 17.8787 46.1566 18.2186C46.4965 18.5585 46.6875 19.0195 46.6875 19.5002C46.6875 19.9809 46.4965 20.442 46.1566 20.7819C45.8167 21.1218 45.3557 21.3127 44.875 21.3127H41.8542V24.3336C41.8542 24.8143 41.6632 25.2753 41.3233 25.6152C40.9834 25.9551 40.5224 26.1461 40.0417 26.1461C39.561 26.1461 39.0999 25.9551 38.76 25.6152C38.4201 25.2753 38.2292 24.8143 38.2292 24.3336V21.3127H35.2083C34.7276 21.3127 34.2666 21.1218 33.9267 20.7819C33.5868 20.442 33.3958 19.9809 33.3958 19.5002C33.3958 19.0195 33.5868 18.5585 33.9267 18.2186C34.2666 17.8787 34.7276 17.6877 35.2083 17.6877H38.2292V14.6669C38.2292 14.1862 38.4201 13.7252 38.76 13.3853C39.0999 13.0454 39.561 12.8544 40.0417 12.8544Z" fill="#0288FD"/>
</g>
<defs>
<clipPath id="clip0_0_4">
<rect width="58" height="46" fill="white"/>
</clipPath>
</defs>
</svg>
