<svg viewBox="0 0 50 50" fill="none" xmlns="http://www.w3.org/2000/svg">
<g id="material-symbols:person-outline-rounded">
<path id="Vector" d="M19.1146 22.5521C17.4826 20.9201 16.6667 18.9583 16.6667 16.6667C16.6667 14.375 17.4826 12.4132 19.1146 10.7813C20.7465 9.14931 22.7083 8.33333 25 8.33333C27.2917 8.33333 29.2535 9.14931 30.8854 10.7813C32.5174 12.4132 33.3333 14.375 33.3333 16.6667C33.3333 18.9583 32.5174 20.9201 30.8854 22.5521C29.2535 24.184 27.2917 25 25 25C22.7083 25 20.7465 24.184 19.1146 22.5521ZM8.33333 37.5V35.8333C8.33333 34.6528 8.6375 33.5681 9.24583 32.5792C9.85417 31.5903 10.6611 30.8347 11.6667 30.3125C13.8194 29.2361 16.0069 28.4292 18.2292 27.8917C20.4514 27.3542 22.7083 27.0847 25 27.0833C27.2917 27.0819 29.5486 27.3514 31.7708 27.8917C33.9931 28.4319 36.1806 29.2389 38.3333 30.3125C39.3403 30.8333 40.1479 31.5889 40.7562 32.5792C41.3646 33.5694 41.6681 34.6542 41.6667 35.8333V37.5C41.6667 38.6458 41.259 39.6271 40.4437 40.4437C39.6285 41.2604 38.6472 41.6681 37.5 41.6667H12.5C11.3542 41.6667 10.3736 41.259 9.55833 40.4437C8.74306 39.6285 8.33472 38.6472 8.33333 37.5ZM12.5 37.5H37.5V35.8333C37.5 35.4514 37.4049 35.1042 37.2146 34.7917C37.0243 34.4792 36.7722 34.2361 36.4583 34.0625C34.5833 33.125 32.691 32.4222 30.7812 31.9542C28.8715 31.4861 26.9444 31.2514 25 31.25C23.0556 31.2486 21.1285 31.4833 19.2188 31.9542C17.309 32.425 15.4167 33.1278 13.5417 34.0625C13.2292 34.2361 12.9771 34.4792 12.7854 34.7917C12.5938 35.1042 12.4986 35.4514 12.5 35.8333V37.5ZM27.9438 19.6104C28.759 18.7938 29.1667 17.8125 29.1667 16.6667C29.1667 15.5208 28.759 14.5403 27.9438 13.725C27.1285 12.9097 26.1472 12.5014 25 12.5C23.8528 12.4986 22.8722 12.9069 22.0583 13.725C21.2444 14.5431 20.8361 15.5236 20.8333 16.6667C20.8306 17.8097 21.2389 18.791 22.0583 19.6104C22.8778 20.4299 23.8583 20.8375 25 20.8333C26.1417 20.8292 27.1229 20.4215 27.9438 19.6104Z" fill="#0288FD"/>
</g>
</svg>
