<svg viewBox="0 0 537 537" fill="none" xmlns="http://www.w3.org/2000/svg">
<path id="Vector" d="M282.527 1.96507L283.835 2.34734C289.068 3.93099 294.029 6.60683 298.281 9.99257L299.316 10.8663C301.333 12.45 301.333 12.45 302.097 13.1599V13.8698H302.805V14.5797L303.459 14.8528C304.659 15.5081 305.367 16.6003 306.185 17.747C306.348 17.9655 306.566 18.2385 306.73 18.457C310.927 24.3547 313.271 30.5801 314.198 37.7339C314.47 40.519 314.416 43.304 314.416 46.0891C314.416 47.1813 314.416 48.328 314.416 49.4202C314.416 50.1301 314.361 50.8401 314.361 51.55V54.335C314.307 55.2088 314.143 56.0279 313.98 56.847C313.925 57.4477 313.871 57.9938 313.871 58.5945L313.816 59.5775L313.762 60.6697V61.8165C313.707 63.0178 313.653 64.2192 313.598 65.4206C313.544 67.332 313.489 69.2979 313.38 71.2638C313.271 73.885 313.162 76.5609 312.89 79.2367H312.236L312.29 80.1105C312.508 81.9671 312.617 83.66 312.236 85.5167C311.963 87.5919 311.854 89.5578 311.854 91.6329C311.854 95.4009 311.854 95.401 311.145 96.7116C311.091 97.5853 311.036 98.459 310.982 99.2782C310.873 101.79 310.873 101.79 310.655 102.664C310.437 103.428 310.382 104.138 310.328 104.903L310.219 105.831C310.219 106.487 310.164 107.087 310.11 107.688C309.946 109.545 309.674 111.347 309.292 113.203C308.638 116.207 308.311 119.21 307.984 122.269C307.875 123.306 307.766 124.398 307.657 125.436L307.602 126.2C307.439 127.729 307.057 129.149 306.621 130.624C306.566 131.115 306.512 131.552 306.457 132.044L306.348 132.753L306.185 134.173C306.021 135.648 305.694 136.904 305.258 138.324C305.149 139.088 305.095 139.853 305.04 140.563C304.986 141.982 304.822 143.184 304.386 144.549C303.895 146.406 303.677 148.317 303.35 150.174L302.86 152.904L302.642 154.215C302.369 155.798 302.151 157.327 301.878 158.857L301.66 160.113C301.388 161.369 301.17 162.679 300.897 163.935C300.679 164.973 300.461 166.01 300.298 167.048L299.589 170.434C299.207 172.29 298.826 174.202 298.444 176.058C298.172 177.26 297.899 178.407 297.681 179.608L297.572 180.318L297.191 182.011H296.536L296.373 183.321C295.991 186.598 295.501 189.765 294.683 192.932C293.974 195.663 293.375 198.393 292.721 201.178C292.285 203.09 291.794 205.001 291.14 206.858C290.813 207.895 290.595 208.988 290.431 210.025C289.232 216.25 289.232 216.251 288.087 218.926C287.76 219.909 287.651 220.783 287.597 221.821L287.488 222.858L287.433 223.623C288.469 221.93 289.505 220.182 290.431 218.435C296.591 207.022 303.841 196.1 310.873 185.233C311.745 183.813 312.617 182.393 313.544 181.028C315.779 177.478 318.068 173.983 320.467 170.488C321.393 169.123 322.32 167.758 323.247 166.393C328.698 158.42 334.258 150.447 339.982 142.638C341.017 141.272 342.053 139.853 343.034 138.433C345.215 135.375 347.504 132.426 349.903 129.477C351.156 127.948 352.355 126.364 353.555 124.781C354.209 123.961 354.808 123.142 355.463 122.323L356.008 121.668C356.335 121.286 356.662 120.849 356.989 120.466C357.698 119.483 358.406 118.555 359.06 117.572L359.66 116.644H360.369L360.641 116.098C361.241 114.951 362.058 114.023 362.876 113.094L363.421 112.439C364.348 111.347 365.329 110.255 366.31 109.162C366.964 108.398 367.509 107.688 368.055 106.869C368.872 105.667 369.853 104.739 370.889 103.702C371.598 102.992 371.598 102.992 372.252 101.899C373.015 100.862 373.724 100.207 374.759 99.3874C375.468 98.7867 375.468 98.7867 376.013 97.8583C376.994 96.3839 378.194 95.2917 379.447 94.0903L380.429 93.1074C381.028 92.5067 381.028 92.5067 381.573 91.5783C382.445 90.2677 383.481 89.2847 384.571 88.1925L385.226 87.5373C386.098 86.6635 386.97 85.7898 387.897 84.916C391.058 81.8579 391.058 81.8579 393.838 78.363C395.256 76.397 397.109 74.9226 399.126 73.6666L400.161 72.6836C403.596 69.7348 407.793 67.7688 412.045 66.2944L412.972 65.9667C419.567 63.8916 427.689 63.9462 434.394 65.4206C442.353 67.332 449.167 70.7177 455.326 76.0694L456.253 76.8885C457.071 77.653 457.943 78.4722 458.815 79.2367L459.469 79.8374C461.214 81.5303 462.74 83.4962 464.048 85.5167V86.2267H464.702L465.138 86.9912L466.283 89.0663C466.61 89.7216 466.992 90.3769 467.373 91.0322C467.864 91.8514 468.245 92.6705 468.573 93.5988V94.9641H469.281C471.68 101.899 471.68 101.899 472.061 105.121L472.17 106.104C472.77 112.111 472.824 118.992 470.644 124.671C470.589 124.944 470.48 125.217 470.371 125.49C470.044 126.364 469.717 127.293 469.281 128.166C468.736 129.258 468.3 130.405 467.864 131.552C467.537 132.371 467.537 132.371 466.828 133.409H466.12V134.501H465.411L465.193 135.211C462.74 140.726 456.253 145.805 451.783 149.628C450.693 150.611 449.603 151.594 448.567 152.631C446.714 154.324 444.86 156.017 443.007 157.655C442.353 158.201 442.353 158.201 442.026 158.966L441.208 159.457C440.281 159.949 440.281 159.949 439.518 160.768L438.919 161.423H438.21L437.937 162.024C437.501 162.788 437.501 162.788 436.738 163.225C435.757 163.826 435.266 164.372 434.558 165.246C433.577 166.447 432.541 167.212 431.233 168.031C430.633 168.522 430.088 169.014 429.488 169.505C428.017 170.816 426.49 172.072 424.964 173.273L423.928 174.092C423.656 174.365 423.329 174.638 423.002 174.912L422.129 175.567L421.475 176.113H420.767V176.768C420.221 177.314 419.622 177.806 419.022 178.243L417.987 179.116C416.569 180.209 415.152 181.301 413.789 182.393L412.317 183.54C407.957 186.925 403.65 190.257 399.18 193.479C398.308 194.134 397.381 194.789 396.509 195.444L394.819 196.646L394.002 197.301C392.694 198.23 391.549 199.049 390.022 199.486V200.195C389.532 200.632 389.532 200.632 388.823 201.178L388.06 201.725L386.316 202.926C385.444 203.581 384.626 204.182 383.754 204.783L383.1 205.219C382.064 205.984 380.974 206.694 379.883 207.458C379.12 207.95 378.412 208.496 377.649 208.988C374.487 211.172 371.271 213.356 368.055 215.486C367.291 215.977 366.583 216.469 365.82 216.96C362.985 218.872 360.096 220.783 357.152 222.694C356.008 223.404 354.918 224.169 353.827 224.933C352.901 225.589 351.974 226.189 350.938 226.735C349.412 227.609 347.94 228.592 346.414 229.575C343.961 231.159 341.508 232.688 339.055 234.217C337.365 235.254 335.73 236.347 334.04 237.439C333.168 237.985 332.241 238.476 331.369 238.968C330.224 239.678 329.134 240.388 327.989 241.098C326.081 242.299 324.119 243.446 322.156 244.483C321.012 245.084 320.031 245.794 318.94 246.504C317.251 247.651 315.397 248.634 313.544 249.507L312.89 249.835L312.563 250.545L313.162 250.381C320.848 248.361 328.534 246.449 336.275 244.593L336.983 244.374C338.346 244.046 339.709 243.719 341.126 243.391C341.671 243.282 342.162 243.118 342.707 243.009C347.45 241.862 352.246 240.77 356.989 239.732L358.025 239.514C363.748 238.258 369.472 237.166 375.196 236.074C377.158 235.746 379.066 235.364 381.028 234.927C384.135 234.326 387.297 233.725 390.513 233.179C390.786 233.125 391.113 233.07 391.385 233.015L392.203 232.852C392.857 232.742 392.857 232.742 393.511 232.36C394.22 232.251 394.874 232.142 395.528 232.087L396.782 231.923L399.398 231.541C401.579 231.213 403.814 230.886 406.049 230.449C409.047 229.848 412.154 229.466 415.206 229.029C416.024 228.92 416.842 228.811 417.605 228.701C418.15 228.647 418.695 228.537 419.186 228.483C420.767 228.264 422.293 228.046 423.874 227.828C426.599 227.445 429.379 227.172 432.159 226.899C436.302 226.517 440.445 226.08 444.588 225.534C453.582 224.387 462.74 223.95 471.789 223.732H472.988L474.024 223.677C474.896 223.677 474.896 223.677 475.877 223.295C476.64 223.24 477.403 223.24 478.166 223.24H478.875C479.638 223.24 480.401 223.24 481.165 223.24L481.928 223.186C483.345 223.186 484.708 223.186 486.125 223.186C487.542 223.186 488.96 223.186 490.377 223.186C491.522 223.186 492.612 223.186 493.702 223.186C494.247 223.186 494.738 223.186 495.283 223.186C501.879 223.131 507.875 224.551 513.708 227.773C518.232 230.394 522.538 233.507 525.809 237.603L526.518 238.531C531.696 245.139 535.239 253.112 536.493 261.467C537.202 266.381 537.202 271.187 536.275 276.102L536.111 277.194C535.948 277.959 535.784 278.778 535.566 279.597L535.239 281.071C534.967 282.546 534.422 283.802 533.822 285.167L533.277 286.696C531.751 290.519 529.679 294.068 527.444 297.509L527.008 298.109C526.136 299.42 525.209 300.512 524.065 301.604L523.519 302.205C520.194 305.7 516.106 308.103 511.854 310.342L510.818 310.888C505.858 313.291 500.516 313.891 495.119 313.891H493.648C492.067 313.946 490.486 313.946 488.905 313.946H488.087C478.057 313.946 468.082 313.564 458.106 312.799L456.962 312.69C452.928 312.417 448.84 312.089 444.751 311.543C441.917 311.215 439.137 310.942 436.302 310.669C431.832 310.287 427.362 309.85 423.002 309.031C420.276 308.54 417.55 308.212 414.825 307.884C411.554 307.502 408.338 307.065 405.122 306.41C403.051 306.028 400.979 305.755 398.853 305.481C395.092 304.935 391.276 304.28 387.515 303.516C385.662 303.188 383.808 302.86 381.955 302.478C379.938 302.15 377.976 301.768 375.959 301.386C368.273 299.966 360.696 298.219 353.064 296.471C351.047 295.98 349.085 295.543 347.068 295.106C341.453 293.904 335.893 292.594 330.333 291.229L329.352 290.956C325.863 290.082 322.375 289.208 318.94 288.28C317.141 287.788 315.397 287.351 313.598 286.914V286.205L312.563 286.914C314.47 288.225 316.378 289.372 318.395 290.464C319.922 291.283 321.393 292.157 322.92 293.031L323.737 293.522C325.427 294.505 327.008 295.488 328.589 296.58C329.461 297.126 330.333 297.618 331.26 298.109C332.677 298.874 334.04 299.748 335.403 300.676C336.547 301.44 337.692 302.096 338.891 302.806L339.6 303.243C340.581 303.843 341.617 304.444 342.653 305.045L343.579 305.591L344.451 306.082L344.997 306.519V307.174L346.741 307.557V308.267L347.341 308.321C348.322 308.649 348.976 309.14 349.793 309.741C350.938 310.506 352.028 311.27 353.228 311.925C354.754 312.744 356.171 313.727 357.589 314.71C358.243 315.256 358.243 315.256 359.006 315.584V316.294L359.66 316.458C360.369 316.622 360.369 316.622 361.077 317.004V317.659L361.677 317.768C362.604 318.096 363.312 318.533 364.13 319.079L365.166 319.734C366.855 320.827 368.545 321.973 370.235 323.12C371.107 323.666 371.925 324.212 372.797 324.813L373.942 325.523L374.977 326.233L375.741 326.779V327.489L376.449 327.707C377.758 328.308 378.848 329.073 379.992 329.837L380.701 330.383C383.372 332.185 385.934 334.097 388.551 336.008C389.586 336.772 390.677 337.482 391.712 338.247C392.203 338.629 392.748 339.011 393.239 339.394C394.656 340.377 396.019 341.414 397.436 342.397L398.308 342.998C398.853 343.435 399.453 343.817 399.998 344.199L400.761 344.745L401.415 345.237L401.906 345.674V346.329L402.614 346.602C403.923 347.203 404.904 348.022 406.049 348.95C407.957 350.534 409.919 352.063 411.936 353.537L412.644 354.083L413.299 354.575L413.898 355.012C414.389 355.394 414.879 355.722 415.316 356.049L415.861 356.486V357.196L416.46 357.469C417.278 357.906 417.932 358.343 418.641 358.889L419.404 359.49L420.221 360.09L420.985 360.746C421.53 361.128 422.02 361.51 422.511 361.892C423.111 362.329 423.656 362.821 424.255 363.258L424.964 363.858V364.514L425.509 364.787C426.436 365.278 427.199 365.824 428.017 366.48L428.834 367.08L429.488 367.681V368.391L431.233 369.101V369.756L431.778 370.029C432.922 370.63 433.795 371.504 434.721 372.377C435.757 373.36 436.684 374.234 437.828 374.999V375.709L438.483 375.818L439.246 376.091C439.464 376.528 439.736 377.019 439.954 377.456C440.39 377.729 440.881 377.948 441.317 378.166C441.753 378.494 442.135 378.767 442.462 379.094L443.116 379.64L443.77 380.241L445.296 381.552L446.005 382.152C446.605 382.698 446.605 382.699 446.932 383.736C447.368 384.009 447.858 384.228 448.349 384.446C449.112 385.211 449.875 386.03 450.639 386.794C451.456 387.613 451.456 387.613 452.437 388.214C453.691 389.088 454.672 390.016 455.763 391.108L456.362 391.709C456.744 392.091 457.18 392.528 457.616 392.965C458.27 393.566 458.87 394.221 459.524 394.876C461.759 397.061 463.721 399.3 465.411 401.921C465.684 402.303 465.956 402.685 466.229 403.068C469.935 408.474 471.843 414.426 472.334 420.87C472.77 428.242 472.77 428.242 472.061 430.973C471.952 431.683 471.898 432.393 471.789 433.103C471.189 437.471 469.717 441.785 467.537 445.663L466.992 446.646C465.574 449.103 463.994 451.397 462.304 453.69L461.813 454.291C459.142 457.84 456.58 461.172 452.655 463.356C451.838 463.793 451.184 464.284 450.42 464.83L449.385 465.595H448.349V466.25C447.422 466.742 446.441 467.233 445.514 467.67L444.588 468.161C436.847 471.929 428.834 473.022 420.33 472.53C414.334 472.039 408.12 469.854 403.16 466.578C399.78 464.175 399.78 464.175 398.581 462.919C398.036 462.318 398.036 462.318 397 462.1C396.509 461.554 396.509 461.554 395.964 460.898C394.928 459.642 393.838 458.496 392.694 457.349L392.148 456.857C391.603 456.311 391.113 455.765 390.568 455.274C388.333 453.035 386.152 450.85 384.135 448.448C383.59 447.902 383.1 447.301 382.609 446.755L381.955 445.99C381.573 445.553 381.192 445.171 380.81 444.789C379.938 443.915 379.175 442.987 378.412 442.058C377.867 441.403 377.867 441.403 377.103 441.075L376.667 440.311C376.068 439.328 375.468 438.673 374.65 437.908C373.179 436.488 371.925 434.959 370.617 433.376C369.744 432.283 368.818 431.191 367.891 430.099C366.419 428.352 364.948 426.604 363.53 424.857C362.931 424.092 362.276 423.328 361.622 422.618C359.933 420.706 358.406 418.631 356.88 416.611C354.481 413.443 352.083 410.331 349.412 407.327C348.976 406.836 348.594 406.29 348.158 405.798V404.761H347.45C346.359 403.504 345.433 402.085 344.615 400.61C344.015 399.573 343.416 398.917 342.598 398.098L341.508 396.351C341.181 395.914 340.854 395.422 340.472 394.986C338.128 391.982 335.839 388.869 333.713 385.647C332.841 384.337 331.914 383.026 330.987 381.77C330.115 380.514 329.243 379.313 328.425 378.111C326.136 374.835 326.136 374.835 323.737 371.722C322.974 370.739 322.538 369.811 321.993 368.719C321.448 367.899 320.903 367.08 320.358 366.261L319.867 365.551C319.595 365.06 319.267 364.623 318.94 364.131C317.141 361.51 315.397 358.834 313.707 356.159C312.944 354.903 312.072 353.701 311.254 352.5C310.437 351.408 309.728 350.315 309.128 349.114C308.638 348.295 308.093 347.476 307.602 346.657C305.476 343.325 303.405 339.94 301.388 336.554C299.916 334.042 298.39 331.53 296.863 329.018C295.446 326.779 294.083 324.485 292.721 322.192C292.339 321.536 291.903 320.827 291.467 320.117L291.031 319.407C290.813 318.97 290.54 318.533 290.268 318.096C289.886 317.495 289.559 316.895 289.177 316.294L288.796 315.639C288.414 315.038 288.087 314.437 287.815 313.837V313.127H287.106C287.27 314.656 287.542 315.912 288.142 317.332C288.305 318.042 288.523 318.751 288.687 319.461L288.959 320.554L289.177 321.537C289.286 321.973 289.395 322.465 289.559 322.902C289.777 323.83 289.777 323.83 289.886 324.649L289.559 325.741H290.213L290.431 326.834L290.758 328.253L290.867 329.018C291.085 330.056 291.303 331.038 291.63 332.021L291.303 332.731H291.958V335.516H292.666L292.83 336.445C293.102 337.592 293.32 338.793 293.538 339.94C293.647 340.431 293.702 340.923 293.811 341.414C293.974 342.179 294.083 342.889 294.247 343.599L294.52 344.909C294.738 346.056 294.738 346.056 295.446 347.039C295.664 348.022 295.828 348.95 295.937 349.879C296.318 352.172 296.7 354.411 297.245 356.705L297.409 357.469C297.572 358.07 297.736 358.671 297.899 359.271L298.281 359.654L298.39 360.964C298.553 362.712 298.935 364.295 299.425 365.988C299.644 367.026 299.807 368.009 300.025 369.101C300.243 370.411 300.516 371.777 300.788 373.087C301.442 376.309 302.042 379.531 302.642 382.699C303.023 384.883 303.459 387.013 303.895 389.197C305.422 396.788 305.422 396.788 304.877 398.426H305.585L305.694 399.463C305.967 402.248 306.403 404.979 306.948 407.709C307.82 412.187 308.311 416.665 308.856 421.198C309.183 424.31 309.565 427.423 310.11 430.481C310.491 432.72 310.709 435.014 310.927 437.307C311.091 439.11 311.254 440.912 311.527 442.714C311.854 445.062 312.017 447.355 312.072 449.704C312.181 451.069 312.29 452.325 312.563 453.69C312.672 454.728 312.672 455.711 312.726 456.748C312.835 458.332 312.89 459.916 313.108 461.554C313.271 463.247 313.38 464.994 313.435 466.742L313.489 467.779C313.544 469.745 313.653 471.766 313.707 473.786L313.762 475.097C313.762 475.916 313.816 476.79 313.816 477.609L313.871 478.81V479.848C313.925 480.995 313.925 480.995 314.143 482.251C314.361 483.943 314.361 485.582 314.361 487.22V488.258C314.361 488.913 314.361 489.623 314.361 490.278C314.361 491.37 314.361 492.408 314.416 493.445C314.416 501.473 314.416 501.473 312.89 505.077C312.835 505.569 312.726 506.005 312.617 506.497C311.636 511.084 309.183 515.398 306.294 519.057L305.531 519.985C304.113 521.897 304.113 521.897 303.514 522.552H302.805V523.262H302.097V523.972H301.388L301.061 525.009C300.352 525.61 299.644 526.211 298.935 526.811L298.281 527.303C291.685 532.327 283.563 535.549 275.386 536.641C266.228 537.624 257.234 536.641 248.676 533.037C245.351 531.508 242.244 529.651 239.3 527.467C238.809 527.139 238.319 526.811 237.828 526.484L236.847 525.719V525.009L236.193 524.736C235.43 524.299 234.885 523.863 234.285 523.207L233.685 522.661C228.67 516.927 225.291 510.374 223.492 502.947C222.783 499.616 222.838 496.23 222.838 492.845V492.08C222.838 490.551 222.838 488.967 222.892 487.384C222.892 486.838 222.892 486.292 222.892 485.746C223.001 471.438 224.146 457.24 225.509 443.041L225.618 441.949C226.163 436.161 226.763 430.372 227.744 424.693C228.343 421.089 228.834 417.539 229.27 413.935C229.434 412.952 229.543 411.914 229.706 410.931L229.815 409.948C230.033 408.419 230.251 406.945 230.578 405.416C230.905 403.668 231.123 401.975 231.341 400.173C231.887 396.023 232.704 391.982 233.522 387.832C233.685 386.849 233.903 385.811 234.067 384.828C235.266 377.456 236.738 370.193 238.482 362.93C238.918 361.237 239.191 359.544 239.464 357.851C239.682 356.432 240.063 355.121 240.39 353.81C240.663 352.664 240.881 351.571 241.153 350.479C241.808 347.421 242.516 344.363 243.225 341.305L243.443 340.431C244.315 336.827 245.187 333.223 246.059 329.564L246.332 328.581C246.605 327.38 246.932 326.124 247.313 324.868C247.804 323.066 248.24 321.263 248.676 319.407C249.276 317.222 249.821 314.983 250.42 312.799C249.385 313.782 248.676 314.765 247.967 316.076L247.422 317.059C246.932 318.096 246.386 319.134 245.896 320.117H245.187L245.133 320.717C244.806 321.755 244.261 322.629 243.661 323.612C242.898 324.868 242.244 326.069 241.699 327.489H241.044L240.772 328.199C240.227 329.455 239.518 330.602 238.809 331.803L238.373 332.513C237.774 333.55 237.12 334.588 236.465 335.571C235.866 336.445 235.321 337.373 234.83 338.301C232.595 342.506 229.87 346.438 227.199 350.37C226.326 351.626 225.509 352.882 224.8 354.247C224.092 355.612 223.219 356.759 222.238 357.961C221.748 358.616 221.748 358.616 221.475 359.654H220.766L220.494 360.418C220.058 361.401 219.567 362.22 218.858 363.094C217.986 364.35 217.223 365.551 216.569 366.971H215.915C215.751 367.353 215.751 367.353 215.642 367.736C215.206 368.773 214.661 369.538 214.007 370.466L213.353 371.394L212.753 372.214C212.045 373.251 211.39 374.18 211.009 375.381H210.3L210.082 376.036C209.428 377.565 208.447 378.821 207.466 380.132L206.866 381.006C206.266 381.77 205.667 382.589 205.067 383.408C203.159 386.03 203.159 386.03 201.306 388.705C200.27 390.344 199.126 391.982 198.035 393.566L197.436 394.385L196.891 395.149L196.455 395.859L196.018 396.351H195.31L195.092 397.061C194.656 397.989 194.274 398.481 193.62 399.245C192.312 400.665 191.221 402.248 190.077 403.832C188.55 406.071 186.915 408.201 185.171 410.331C183.481 412.46 181.791 414.59 180.156 416.774C179.338 417.812 178.52 418.85 177.648 419.833C176.831 420.706 176.831 420.706 176.449 421.525H175.74L175.522 422.072C174.705 423.601 173.724 424.966 172.524 426.167C171.652 427.041 170.943 427.969 170.235 429.007C169.254 430.372 168.218 431.573 166.964 432.775C165.383 434.359 164.021 436.215 162.658 437.963C162.276 438.454 161.84 438.891 161.459 439.328H160.75V440.038H160.041V440.748H159.333L159.115 441.294C158.515 442.441 157.752 443.314 156.934 444.243H156.226L155.953 444.898C155.517 445.608 155.135 446.154 154.536 446.755L153.991 447.355L153.336 448.011C152.955 448.393 152.573 448.83 152.192 449.267L151.592 449.867C150.993 450.523 150.393 451.178 149.848 451.888C148.267 453.69 146.523 455.383 144.833 457.076L143.852 458.059C143.252 458.66 142.652 459.26 142.053 459.861C141.453 460.407 140.854 461.008 140.308 461.608C139.491 462.428 138.619 463.137 137.692 463.847L136.82 464.557L136.002 465.213L135.239 465.813L134.585 466.25H133.549V466.96C125.154 471.329 117.196 473.022 107.711 472.585C101.388 472.039 95.446 469.636 89.8859 466.632L88.7957 466.032C84.7619 463.793 80.9461 461.172 78.057 457.513C77.5119 456.967 77.0213 456.366 76.4762 455.82C74.9499 454.182 73.6962 452.434 72.4424 450.523L71.8428 449.704C69.8259 446.7 68.5176 443.424 67.2094 440.038L66.9368 439.328C64.2658 432.393 64.2113 424.529 65.3015 417.266C65.465 416.283 65.465 416.283 65.8466 415.245L66.0101 414.317C66.9913 408.911 69.8259 404.487 73.1511 400.173L73.7507 399.409C75.5495 397.115 77.5119 395.04 79.5288 393.02L80.4555 392.091C82.3089 390.235 84.2168 388.596 86.2337 386.958C87.5964 385.811 88.7957 384.555 90.0494 383.299C91.4667 381.825 92.6659 380.569 94.4648 379.586C95.2825 378.767 96.0456 377.948 96.8633 377.074C97.8445 376.036 98.7166 375.545 100.025 374.999C100.406 374.343 100.406 374.343 100.734 373.633C101.224 373.087 101.224 373.087 101.824 372.65C102.75 371.886 103.623 371.121 104.549 370.302C105.749 369.265 107.057 368.227 108.311 367.244C109.019 366.698 109.728 366.097 110.382 365.497C111.636 364.405 112.944 363.367 114.252 362.329C115.888 361.073 117.468 359.763 119.049 358.398C121.066 356.65 123.192 355.012 125.263 353.428C126.245 352.718 127.171 352.008 128.098 351.244C129.243 350.37 130.387 349.496 131.532 348.568C136.111 344.964 140.854 341.469 145.65 338.138C147.449 336.882 149.194 335.571 150.993 334.315C157.915 329.291 164.947 324.431 172.034 319.68C172.96 319.079 173.833 318.478 174.759 317.878C179.12 314.929 183.535 312.089 187.951 309.249C188.987 308.594 190.022 307.939 191.058 307.284C194.71 304.935 198.417 302.642 202.124 300.457C203.377 299.693 204.631 298.928 205.885 298.109C208.174 296.744 210.464 295.379 212.753 294.014C214.607 292.921 216.46 291.829 218.313 290.682L219.513 289.973C220.276 289.481 221.039 289.044 221.802 288.553L222.892 287.897L223.819 287.351C224.637 286.914 224.637 286.914 225.672 286.914V286.205L224.473 286.532C221.421 287.351 218.368 288.116 215.261 288.88C213.244 289.317 211.227 289.809 209.265 290.409C206.43 291.229 203.486 291.938 200.597 292.594C199.344 292.867 198.144 293.194 196.891 293.468L194.819 293.959L192.857 294.45C190.731 294.942 188.605 295.379 186.425 295.816C184.626 296.143 182.881 296.58 181.082 297.017C177.866 297.836 174.596 298.546 171.325 299.256L170.398 299.475C163.803 300.894 157.261 302.15 150.611 303.352L149.303 303.57C143.797 304.608 138.291 305.427 132.786 306.246C130.278 306.574 127.825 306.956 125.318 307.447C123.137 307.83 121.012 308.103 118.777 308.321C116.978 308.54 115.233 308.758 113.435 309.086C107.002 310.232 100.57 310.779 94.0832 311.325C91.3032 311.598 88.5776 311.816 85.8521 312.144C83.6171 312.362 81.3277 312.581 79.0927 312.799L78.2751 312.854C68.6812 313.727 59.1418 313.946 49.5479 313.946C48.6757 313.946 47.8035 313.946 46.9314 314C45.5686 314 44.1513 314 42.7885 314C42.2979 314 41.7528 314 41.2622 314C38.0461 314 35.1025 313.673 31.9954 312.799L30.7962 312.471C26.4353 311.27 22.4015 309.195 18.8583 306.41C18.0406 305.755 18.0406 305.755 17.0594 305.208L16.2963 304.772V304.062H15.5876C14.988 303.461 14.3884 302.915 13.8433 302.314L13.0256 301.495C8.71927 296.962 4.849 290.792 2.99564 284.839C2.8321 284.02 2.66857 283.201 2.45053 282.382C2.28699 281.508 1.95994 280.744 1.63286 279.925C-0.384032 273.317 -0.493054 265.726 1.08776 259.009L1.25129 258.245L1.46933 257.371C2.55956 253.057 3.92232 249.18 6.15726 245.302L6.53884 244.593C8.61024 240.988 11.0087 237.876 13.8433 234.818L14.4429 234.162L14.879 233.78H15.5876V233.07C16.4598 232.306 17.3865 231.65 18.3677 230.995L18.9128 230.558C23.3827 227.391 27.9616 225.097 33.3582 224.005L34.6664 223.623C36.9559 223.131 39.2998 223.186 41.6438 223.186H43.1156C44.4784 223.186 45.8411 223.186 47.1494 223.186C48.0216 223.186 48.8392 223.186 49.7114 223.186C59.0873 223.186 68.4631 223.513 77.8935 224.278C78.6566 224.333 79.4743 224.387 80.292 224.442C83.7262 224.715 87.1603 225.043 90.5945 225.37L91.6847 225.479C111.145 227.445 111.145 227.445 119.431 228.701C120.794 228.92 122.102 229.084 123.465 229.302C141.072 231.814 141.072 231.814 147.449 233.234C149.848 233.78 152.246 234.217 154.645 234.654C157.643 235.2 160.586 235.746 163.585 236.347C165.329 236.729 167.073 237.056 168.872 237.384C174.323 238.422 179.72 239.569 185.116 240.879C186.261 241.098 187.406 241.371 188.605 241.644C192.257 242.517 195.909 243.337 199.562 244.374C201.47 244.866 203.377 245.302 205.34 245.685C207.902 246.231 210.409 246.831 212.971 247.541C214.879 248.033 216.787 248.524 218.695 249.07L219.949 249.398C220.33 249.453 220.766 249.562 221.148 249.671L222.184 249.944C223.219 250.217 224.255 250.381 225.345 250.545L224.746 250.217C221.53 248.524 218.422 246.668 215.37 244.756C214.171 244.046 212.971 243.337 211.772 242.627L210.518 241.862C209.646 241.371 208.774 240.825 207.956 240.333C204.195 238.094 200.434 235.8 196.782 233.452C195.364 232.524 193.947 231.65 192.584 230.776C188.823 228.428 185.062 226.025 181.355 223.623L180.592 223.186C174.051 218.981 167.509 214.612 161.186 209.97C160.368 209.37 159.66 208.933 158.679 208.605V207.895L157.861 207.622C156.989 207.24 156.28 206.803 155.462 206.257L154.536 205.602C152.846 204.346 151.156 203.09 149.412 201.779C146.468 199.595 143.47 197.465 140.526 195.335L139.763 194.789C139.109 194.298 138.4 193.806 137.746 193.315L137.092 192.878C136.057 192.113 136.057 192.113 134.912 191.458V190.748L134.312 190.475C133.604 190.093 133.004 189.711 132.35 189.219L131.587 188.618L129.624 187.144L129.025 186.652C128.643 186.379 128.262 186.052 127.88 185.724C126.844 184.96 125.754 184.195 124.718 183.431L123.737 182.721V182.011L123.192 181.738C122.265 181.301 121.448 180.809 120.63 180.263V179.608L120.03 179.28C119.213 178.898 118.613 178.407 117.959 177.86L117.196 177.26L116.487 176.659C114.525 175.021 114.525 175.021 112.399 173.546L111.527 172.946V172.236L110.982 172.017C110.273 171.58 109.673 171.198 109.074 170.652C108.147 169.833 108.147 169.833 107.384 169.451V168.741L106.784 168.522C105.64 167.867 104.713 166.939 103.786 166.01C102.478 164.809 101.224 163.607 99.7523 162.57L98.6076 161.751V161.041L98.008 160.768C97.1903 160.331 96.4817 159.785 95.664 159.184L94.9009 158.583C93.9742 157.819 93.1565 157 92.3389 156.181C91.4667 155.252 90.54 154.324 89.6133 153.396L88.9047 152.686C87.5419 151.266 86.0701 149.955 84.5983 148.645C83.7807 147.935 83.0175 147.17 82.2544 146.351C81.2187 145.313 80.1284 144.276 79.0382 143.348C76.4217 141.054 74.2413 138.597 72.1154 135.866L71.4612 135.047C69.7169 132.699 68.5721 130.132 67.4819 127.456C67.2094 126.801 66.9368 126.2 66.6643 125.545C66.1737 124.344 65.8466 123.197 65.6286 121.941L65.356 120.794C64.8654 118.009 64.7019 115.224 64.7019 112.439V111.456C64.7564 106.65 65.247 101.79 67.2094 97.4215C67.4274 96.93 67.6455 96.3839 67.809 95.8924C69.9894 90.4861 72.7695 84.8614 77.0758 80.875C77.6755 80.3289 78.2206 79.6736 78.7657 79.0182C79.9104 77.653 81.2187 76.5609 82.5814 75.4141L83.5081 74.5949C87.869 71.0454 92.9385 68.4241 98.2805 66.6766L99.4253 66.2398C106.348 64.11 114.198 63.837 121.339 65.2568C125.754 66.2398 129.679 67.8234 133.549 70.1716V70.8269L134.094 70.9362C138.019 72.1375 141.181 75.9056 143.961 78.7452L144.506 79.2367C146.359 81.148 148.103 83.0047 149.684 85.1344C150.774 86.4997 152.083 87.7557 153.336 88.9571C153.882 89.5032 154.372 89.9947 154.917 90.4861L155.571 91.1961C156.226 91.8514 156.771 92.4521 157.261 93.2166V93.9265H157.97C158.46 94.418 158.46 94.418 159.06 95.1279C160.15 96.4385 161.295 97.6945 162.385 98.9505L162.876 99.4966V100.207L163.912 100.589C164.402 101.135 164.893 101.736 165.383 102.336C166.365 103.538 167.346 104.794 168.381 105.94C170.126 107.961 170.126 107.961 170.889 108.944V109.654L171.489 109.927C172.361 110.418 172.797 110.91 173.342 111.784V112.439H173.996L174.105 113.149L174.378 113.859L175.413 114.186C176.013 114.896 176.558 115.552 177.103 116.262C177.43 116.698 177.757 117.19 178.084 117.627C178.302 117.845 178.466 118.064 178.684 118.337C179.284 119.156 179.938 119.975 180.592 120.794L181.246 121.668C181.682 122.214 182.173 122.76 182.609 123.361L183.208 124.125L183.754 124.835L184.135 125.381V126.091H184.844L185.171 127.511H185.879C186.479 128.276 187.079 129.04 187.678 129.805C188.06 130.351 188.441 130.842 188.823 131.388L189.423 132.207C190.295 133.409 191.221 134.61 192.148 135.812C194.22 138.487 196.236 141.218 198.253 143.948L198.853 144.713L199.344 145.477L199.834 146.078C200.216 146.788 200.379 147.334 200.543 148.099H201.251C201.906 148.972 202.505 149.846 203.159 150.72L203.704 151.539C204.304 152.413 204.849 153.232 205.449 154.051C205.776 154.542 206.103 155.034 206.43 155.525C207.193 156.672 208.011 157.819 208.774 158.966C209.592 160.167 210.464 161.369 211.281 162.57L211.772 163.28C212.644 164.536 213.516 165.846 214.389 167.102C215.751 169.014 217.06 170.98 218.313 172.946L219.077 174.038L220.33 176.004C220.766 176.768 220.766 176.768 220.766 177.478H221.475L221.802 179.226H222.511C223.056 179.99 223.546 180.809 224.037 181.628C224.364 182.12 224.691 182.611 224.964 183.157L225.509 183.977C226.054 184.85 226.599 185.724 227.144 186.652L227.744 187.526C228.125 188.127 228.507 188.673 228.888 189.274L229.379 190.093L229.815 190.803C230.197 191.458 230.415 192.113 230.578 192.878H231.232C231.669 193.424 231.669 193.424 232.159 194.298L232.704 195.281L233.358 196.373C233.794 197.137 234.285 197.957 234.776 198.721C234.885 198.939 235.048 199.158 235.157 199.376C236.356 201.397 237.556 203.363 238.755 205.329L239.355 206.257C240.227 207.677 241.044 209.042 241.917 210.407L242.353 211.008C242.68 211.554 243.007 212.1 243.388 212.646C243.824 213.52 243.824 213.52 243.824 214.558H244.533L244.86 216.305H245.569L247.041 218.926L247.477 219.691C247.749 220.182 248.022 220.674 248.294 221.165C248.567 221.657 248.839 222.148 249.112 222.585C249.439 223.186 249.766 223.787 250.093 224.333L250.802 224.66L250.529 224.005C249.548 221.329 248.73 218.599 248.022 215.814L247.64 214.394C246.768 210.953 245.896 207.513 245.078 204.018C244.806 202.871 244.533 201.67 244.261 200.469C242.571 193.26 240.881 185.997 239.355 178.68C238.755 175.676 238.046 172.727 237.338 169.724C237.011 168.304 236.847 167.048 236.847 165.573C236.629 164.754 236.356 163.99 236.138 163.171C235.975 162.406 235.811 161.696 235.702 160.986L235.539 160.331C234.994 157.546 234.503 154.815 234.013 152.085C233.685 150.228 233.304 148.372 232.977 146.46C232.268 142.856 231.669 139.197 231.123 135.539C230.905 133.9 230.687 132.317 230.415 130.678C228.725 120.63 228.725 120.63 228.507 116.371L228.452 115.606L228.125 115.279C228.016 114.569 227.907 113.859 227.798 113.203L227.635 111.838L227.471 110.418L227.253 108.889C226.708 104.248 226.163 99.6058 225.672 94.9641L225.563 93.7627C224.855 87.155 224.364 80.5473 223.928 73.9396C223.928 73.612 223.873 73.2843 223.873 72.9567C223.819 72.356 223.764 71.7553 223.764 71.1546C223.655 69.8439 223.546 68.5333 223.383 67.2227C223.165 65.4206 223.165 63.6185 223.11 61.7618V60.6697C223.056 59.9051 223.056 59.1406 223.056 58.3761C223.056 57.2293 223.001 56.0825 223.001 54.9357C222.892 51.0585 222.838 47.2359 222.838 43.3586V42.2664C222.892 37.8977 223.219 34.0751 224.637 29.9248C224.691 29.7064 224.8 29.4334 224.855 29.2149C226.217 25.1739 228.071 21.8427 230.578 18.4024C230.796 18.0201 231.069 17.6378 231.287 17.201L231.941 16.3272H232.65L232.922 15.7265C233.413 14.7982 234.013 14.1429 234.721 13.4329L235.484 12.6684L236.138 12.1223H236.847V11.4124C237.501 10.9209 238.21 10.4841 238.918 9.99257L239.736 9.33728C245.623 4.69551 253.146 1.63741 260.505 0.545233C268.027 -0.437721 275.277 -0.16468 282.527 1.96507Z" fill="#0288FD" fill-opacity="0.15"/>
</svg>
