<svg viewBox="0 0 50 50" fill="none" xmlns="http://www.w3.org/2000/svg">
<g id="heroicons:user-group">
<path id="Vector" d="M35.5396 32.3375C36.4788 31.6961 37.5751 31.323 38.7106 31.2586C39.8461 31.1942 40.9777 31.4409 41.9834 31.972C42.989 32.5031 43.8307 33.2986 44.4177 34.2727C45.0048 35.2468 45.3148 36.3627 45.3146 37.5C45.3146 37.6681 45.3076 37.8354 45.2937 38.0021C42.794 38.8753 40.1391 39.2153 37.5 39C37.492 36.6388 36.812 34.3265 35.5396 32.3375ZM37.4979 38.9979L37.5 39.0625C37.5 39.5306 37.4743 39.9931 37.4229 40.45C33.6426 42.6194 29.3586 43.7574 25 43.75C20.4792 43.75 16.2354 42.55 12.5771 40.45C12.5232 39.9679 12.4975 39.483 12.5 38.9979C12.5074 36.6369 13.1908 34.3268 14.4625 32.3375C15.5924 30.5672 17.1501 29.1101 18.9918 28.1008C20.8335 27.0914 22.8998 26.5624 25 26.5625C27.1005 26.562 29.1673 27.0909 31.0094 28.1003C32.8515 29.1096 34.4095 30.5669 35.5396 32.3375M12.5 38.9979C9.86175 39.2205 7.20835 38.8818 4.71042 38.0042C4.61531 36.8282 4.85499 35.6494 5.40173 34.6039C5.94846 33.5585 6.77994 32.6892 7.8 32.0964C8.82007 31.5037 9.98708 31.2118 11.1661 31.2544C12.3451 31.2971 13.4879 31.6726 14.4625 32.3375M31.25 14.0625C31.25 15.7201 30.5915 17.3098 29.4194 18.4819C28.2473 19.654 26.6576 20.3125 25 20.3125C23.3424 20.3125 21.7527 19.654 20.5806 18.4819C19.4085 17.3098 18.75 15.7201 18.75 14.0625C18.75 12.4049 19.4085 10.8152 20.5806 9.64308C21.7527 8.47098 23.3424 7.8125 25 7.8125C26.6576 7.8125 28.2473 8.47098 29.4194 9.64308C30.5915 10.8152 31.25 12.4049 31.25 14.0625ZM43.75 20.3125C43.75 20.9281 43.6288 21.5376 43.3932 22.1063C43.1576 22.675 42.8123 23.1918 42.3771 23.6271C41.9418 24.0623 41.425 24.4076 40.8563 24.6432C40.2876 24.8788 39.6781 25 39.0625 25C38.4469 25 37.8374 24.8788 37.2687 24.6432C36.7 24.4076 36.1832 24.0623 35.7479 23.6271C35.3127 23.1918 34.9674 22.675 34.7318 22.1063C34.4962 21.5376 34.375 20.9281 34.375 20.3125C34.375 19.0693 34.8689 17.877 35.7479 16.9979C36.627 16.1189 37.8193 15.625 39.0625 15.625C40.3057 15.625 41.498 16.1189 42.3771 16.9979C43.2561 17.877 43.75 19.0693 43.75 20.3125ZM15.625 20.3125C15.625 20.9281 15.5038 21.5376 15.2682 22.1063C15.0326 22.675 14.6873 23.1918 14.2521 23.6271C13.8168 24.0623 13.3 24.4076 12.7313 24.6432C12.1626 24.8788 11.5531 25 10.9375 25C10.3219 25 9.71239 24.8788 9.14367 24.6432C8.57496 24.4076 8.05821 24.0623 7.62294 23.6271C7.18766 23.1918 6.84238 22.675 6.60682 22.1063C6.37125 21.5376 6.25 20.9281 6.25 20.3125C6.25 19.0693 6.74386 17.877 7.62294 16.9979C8.50201 16.1189 9.6943 15.625 10.9375 15.625C12.1807 15.625 13.373 16.1189 14.2521 16.9979C15.1311 17.877 15.625 19.0693 15.625 20.3125Z" stroke="#0288FD" stroke-width="4.0625" stroke-linecap="round" stroke-linejoin="round"/>
</g>
</svg>
