<svg viewBox="0 0 17 17" fill="none" xmlns="http://www.w3.org/2000/svg">
<g id="SVG">
<path id="Vector" d="M12.0417 14.875V13.4583C12.0417 12.7069 11.7432 11.9862 11.2118 11.4549C10.6804 10.9235 9.95978 10.625 9.20833 10.625H3.54167C2.79022 10.625 2.06955 10.9235 1.5382 11.4549C1.00684 11.9862 0.708334 12.7069 0.708334 13.4583V14.875" stroke="#0288FD" stroke-width="1.41667" stroke-linecap="round" stroke-linejoin="round"/>
<path id="Vector_2" d="M6.375 7.79167C7.93981 7.79167 9.20833 6.52314 9.20833 4.95833C9.20833 3.39353 7.93981 2.125 6.375 2.125C4.81019 2.125 3.54167 3.39353 3.54167 4.95833C3.54167 6.52314 4.81019 7.79167 6.375 7.79167Z" stroke="#0288FD" stroke-width="1.41667" stroke-linecap="round" stroke-linejoin="round"/>
<path id="Vector_3" d="M16.2917 14.875V13.4583C16.2912 12.8306 16.0823 12.2207 15.6976 11.7246C15.313 11.2284 14.7745 10.874 14.1667 10.7171" stroke="#0288FD" stroke-width="1.41667" stroke-linecap="round" stroke-linejoin="round"/>
<path id="Vector_4" d="M11.3333 2.21708C11.9428 2.37313 12.483 2.72758 12.8687 3.22455C13.2545 3.72153 13.4639 4.33275 13.4639 4.96188C13.4639 5.591 13.2545 6.20222 12.8687 6.6992C12.483 7.19617 11.9428 7.55062 11.3333 7.70667" stroke="#0288FD" stroke-width="1.41667" stroke-linecap="round" stroke-linejoin="round"/>
</g>
</svg>
