<svg preserveAspectRatio="none" width="100%" height="100%" overflow="visible" style="display: block;" viewBox="0 0 123.953 42.64" fill="none" xmlns="http://www.w3.org/2000/svg">
<g id="google-play-badge-black.svg" clip-path="url(#clip0_0_4)">
<path id="Vector" d="M116.03 0.241957H8.73525C4.52648 0.241957 1.11459 3.65384 1.11459 7.86262V33.9038C1.11459 38.1125 4.52648 41.5244 8.73525 41.5244H116.03C120.239 41.5244 123.651 38.1125 123.651 33.9038V7.86262C123.651 3.65384 120.239 0.241957 116.03 0.241957Z" fill="var(--fill-0, #0D1530)"/>
<path id="Vector_2" d="M116.03 0.241957H8.73525C4.52648 0.241957 1.11459 3.65384 1.11459 7.86262V33.9038C1.11459 38.1125 4.52648 41.5244 8.73525 41.5244H116.03C120.239 41.5244 123.651 38.1125 123.651 33.9038V7.86262C123.651 3.65384 120.239 0.241957 116.03 0.241957Z" stroke="var(--stroke-0, black)" stroke-width="0.365911"/>
<path id="Vector_3" d="M20.4523 20.368L10.9357 30.4678L10.9377 30.4737C11.0398 30.8565 11.2292 31.2104 11.4908 31.5078C11.7525 31.8052 12.0794 32.0381 12.4461 32.1882C12.8127 32.3383 13.209 32.4015 13.6042 32.373C13.9993 32.3444 14.3825 32.2249 14.7237 32.0236L14.7534 32.0058L25.466 25.825L20.4523 20.368Z" fill="var(--fill-0, #EA4335)"/>
<path id="Vector_4" d="M30.08 18.6486L30.0701 18.6416L25.4462 15.9612L20.2352 20.5981L25.465 25.825L30.0642 23.1714C30.4716 22.9515 30.8122 22.6258 31.0501 22.2286C31.288 21.8314 31.4144 21.3774 31.4159 20.9144C31.4174 20.4514 31.2941 19.9966 31.0588 19.5978C30.8235 19.199 30.486 18.8711 30.08 18.6486Z" fill="var(--fill-0, #FFD700)"/>
<path id="Vector_5" d="M10.9357 11.2976C10.8774 11.5133 10.8481 11.7357 10.8484 11.959V29.8064C10.8484 30.0354 10.8782 30.2575 10.9377 30.4678L20.7796 20.6249L10.9357 11.2976Z" fill="var(--fill-0, #4285F4)"/>
<path id="Vector_6" d="M20.5227 20.8837L25.4481 15.9593L14.7485 9.75564C14.407 9.55 14.0223 9.42655 13.6249 9.39504C13.2275 9.36353 12.8282 9.42481 12.4586 9.57406C12.0889 9.72331 11.759 9.95643 11.4949 10.255C11.2308 10.5536 11.0397 10.9095 10.9367 11.2946V11.2976L20.5227 20.8837Z" fill="var(--fill-0, #4DBF39)"/>
<path id="Vector_7" d="M75.5492 9.82108H76.3345V15.6836H75.922L72.4077 11.5267V15.6836H71.6223V9.82108H71.9793L75.5492 14.0018V9.82108ZM67.5596 15.7798C65.8451 15.7798 64.552 14.4629 64.552 12.789C64.552 11.0755 65.9165 9.71894 67.5824 9.71894C68.3878 9.72052 69.1597 10.0411 69.7291 10.6106C70.2986 11.1801 70.6192 11.952 70.6208 12.7573C70.6208 14.4232 69.2731 15.7798 67.5596 15.7798ZM67.5824 15.0103C68.82 15.0103 69.7957 14.0583 69.7957 12.7652C69.7957 11.4642 68.812 10.4964 67.5824 10.4964C66.3607 10.4964 65.377 11.4801 65.377 12.7652C65.377 14.0345 66.329 15.0103 67.5824 15.0103ZM60.0639 10.5906H58.3276V9.82108H62.5955V10.5906H60.8582V15.6836H60.0649L60.0639 10.5906ZM56.7806 9.82108H57.5739V15.6836H56.7806V9.82108ZM51.9117 10.5906H50.1744V9.82108H54.4424V10.5906H52.705V15.6836H51.9117V10.5906ZM46.0651 15.6836V9.82108H49.7143V10.5747H46.8584V12.3279H49.5001V13.0816H46.8584V14.9299H49.7143V15.6836H46.0651ZM42.3504 15.7718C40.621 15.7718 39.3518 14.4946 39.3518 12.7573C39.3518 10.9724 40.74 9.71894 42.398 9.71894C43.3976 9.71894 44.3258 10.1632 44.8414 10.7978L44.2782 11.3135C44.0425 11.051 43.7537 10.8417 43.4309 10.6994C43.1081 10.5572 42.7587 10.4853 42.406 10.4884C41.1446 10.4884 40.1609 11.4325 40.1609 12.7652C40.1609 14.0662 41.1446 15.0103 42.3822 15.0103C43.0962 15.0103 43.7863 14.685 44.2623 14.1852V13.0191H42.3028V12.2892H45.008V14.5343C44.2861 15.3673 43.3421 15.7718 42.3504 15.7718ZM83.1202 29.3423H84.3598V21.0384H83.1202V29.3423ZM94.283 24.0291L92.863 27.6287H92.8203L91.3458 24.0291H90.0101L92.2214 29.0606L90.962 31.859H92.2531L95.6614 24.0291H94.283ZM87.2543 28.3982C86.8478 28.3982 86.2825 28.1959 86.2825 27.6932C86.2825 27.0526 86.9866 26.8067 87.5964 26.8067C88.1408 26.8067 88.3977 26.9247 88.7289 27.0843C88.6834 27.4446 88.5089 27.7761 88.2379 28.0176C87.9668 28.2592 87.6174 28.3944 87.2543 28.3982ZM87.4041 23.8477C86.5066 23.8477 85.5765 24.2433 85.1927 25.1189L86.2934 25.5781C86.5275 25.1189 86.9658 24.9692 87.4249 24.9692C88.0665 24.9692 88.718 25.353 88.7289 26.0372V26.1225C88.3307 25.911 87.8866 25.801 87.4358 25.8022C86.2498 25.8022 85.043 26.4537 85.043 27.6714C85.043 28.782 86.0148 29.4989 87.1046 29.4989C87.9376 29.4989 88.3977 29.1251 88.6862 28.6858H88.7289V29.3274H89.9248V26.1443C89.9248 24.6697 88.8241 23.8477 87.4041 23.8477ZM79.7447 25.0396H77.9816V22.1936H79.7447C80.1259 22.1899 80.493 22.3377 80.7652 22.6046C81.0374 22.8714 81.1926 23.2354 81.1965 23.6166C81.1965 24.2602 80.6719 25.0396 79.7447 25.0396ZM79.712 21.0384H76.7431V29.3413H77.9816V26.1958H79.712C81.0864 26.1958 82.436 25.2002 82.436 23.6166C82.436 22.032 81.0864 21.0384 79.712 21.0384ZM63.5187 28.3992C62.662 28.3992 61.945 27.6833 61.945 26.6986C61.945 25.704 62.662 24.9751 63.5177 24.9751C64.3636 24.9751 65.026 25.704 65.026 26.6986C65.026 27.6833 64.3636 28.3992 63.5187 28.3992ZM64.9417 24.4942H64.8981C64.6204 24.162 64.0849 23.8625 63.4106 23.8625C61.9986 23.8625 60.7035 25.1041 60.7035 26.6986C60.7035 28.2822 61.9986 29.5128 63.4106 29.5128C64.0849 29.5128 64.6204 29.2134 64.8981 28.8703H64.9417V29.2768C64.9417 30.3577 64.3636 30.9358 63.4325 30.9358C62.6729 30.9358 62.2018 30.3904 62.0085 29.9303L60.9276 30.3795C61.238 31.1292 62.063 32.0484 63.4325 32.0484C64.8882 32.0484 66.1188 31.1926 66.1188 29.1063V24.0341H64.9417V24.4942ZM66.9745 29.3413H68.2161V21.0374H66.9745V29.3413ZM70.0456 26.6024C70.0139 25.5116 70.8905 24.9543 71.5222 24.9543C72.015 24.9543 72.4315 25.2002 72.5703 25.5533L70.0456 26.6024ZM73.8981 25.6604C73.6631 25.0297 72.9461 23.8625 71.4785 23.8625C70.0238 23.8625 68.815 25.0069 68.815 26.6887C68.815 28.2713 70.0139 29.5128 71.6183 29.5128C72.9134 29.5128 73.6631 28.7205 73.9725 28.2604L73.0106 27.6188C72.6893 28.0889 72.25 28.3992 71.6183 28.3992C70.9877 28.3992 70.5375 28.1107 70.2489 27.5444L74.025 25.9807L73.8961 25.6594L73.8981 25.6604ZM43.8032 24.7302V25.9281H46.671C46.5847 26.6024 46.3606 27.0942 46.0185 27.4364C45.601 27.8538 44.9475 28.3149 43.8032 28.3149C42.0371 28.3149 40.6567 26.891 40.6567 25.1259C40.6567 23.3598 42.0371 21.9368 43.8032 21.9368C44.7551 21.9368 45.4513 22.3116 45.9649 22.7926L46.8098 21.9477C46.0929 21.2625 45.1409 20.7379 43.8032 20.7379C41.3846 20.7379 39.3508 22.7073 39.3508 25.1259C39.3508 27.5444 41.3846 29.5128 43.8032 29.5128C45.1082 29.5128 46.0928 29.0844 46.8633 28.2822C47.6566 27.4899 47.9016 26.3783 47.9016 25.4779C47.9044 25.2268 47.8829 24.9761 47.8371 24.7292L43.8032 24.7302ZM51.1621 28.3992C50.3063 28.3992 49.5675 27.6932 49.5675 26.6877C49.5675 25.6713 50.3063 24.9751 51.1621 24.9751C52.0178 24.9751 52.7566 25.6713 52.7566 26.6877C52.7566 27.6932 52.0178 28.3992 51.1621 28.3992ZM51.1621 23.8625C49.5992 23.8625 48.326 25.0505 48.326 26.6887C48.326 28.3149 49.5992 29.5128 51.1621 29.5128C52.7239 29.5128 53.9981 28.3149 53.9981 26.6877C53.9981 25.0515 52.7239 23.8625 51.1621 23.8625ZM57.3478 28.3992C56.4921 28.3992 55.7533 27.6932 55.7533 26.6877C55.7533 25.6713 56.4921 24.9751 57.3478 24.9751C58.2046 24.9751 58.9424 25.6713 58.9424 26.6877C58.9424 27.6932 58.2046 28.3992 57.3478 28.3992ZM57.3478 23.8625C55.786 23.8625 54.5118 25.0505 54.5118 26.6887C54.5118 28.3149 55.786 29.5128 57.3478 29.5128C58.9106 29.5128 60.1839 28.3149 60.1839 26.6877C60.1839 25.0515 58.9106 23.8625 57.3478 23.8625Z" fill="var(--fill-0, white)"/>
</g>
<defs>
<clipPath id="clip0_0_4">
<rect width="123.953" height="42.64" fill="white"/>
</clipPath>
</defs>
</svg>
