<svg preserveAspectRatio="none" width="100%" height="100%" overflow="visible" style="display: block;" viewBox="0 0 405 405" fill="none" xmlns="http://www.w3.org/2000/svg">
<path id="Vector" d="M213.079 1.48204L214.066 1.77034C218.013 2.96471 221.754 4.9828 224.96 7.5363L225.741 8.19527C227.263 9.38965 227.263 9.38965 227.838 9.92506V10.4605H228.373V10.9959L228.866 11.2018C229.77 11.696 230.305 12.5198 230.922 13.3846C231.045 13.5494 231.209 13.7553 231.333 13.9201C234.498 18.3681 236.266 23.0632 236.965 28.4585C237.17 30.559 237.129 32.6595 237.129 34.7599C237.129 35.5836 237.129 36.4485 237.129 37.2722C237.129 37.8076 237.088 38.3431 237.088 38.8785V40.9789C237.047 41.6379 236.924 42.2557 236.8 42.8735C236.759 43.3265 236.718 43.7384 236.718 44.1914L236.677 44.9327L236.636 45.7564V46.6213C236.595 47.5274 236.554 48.4335 236.513 49.3396C236.472 50.7811 236.43 52.2638 236.348 53.7464C236.266 55.7233 236.184 57.7414 235.978 59.7595H235.485L235.526 60.4185C235.69 61.8188 235.773 63.0955 235.485 64.4958C235.279 66.0609 235.197 67.5436 235.197 69.1086C235.197 71.9504 235.197 71.9504 234.663 72.9389C234.622 73.5979 234.58 74.2568 234.539 74.8746C234.457 76.7691 234.457 76.7691 234.293 77.4281C234.128 78.0047 234.087 78.5401 234.046 79.1167L233.964 79.8169C233.964 80.3111 233.923 80.7641 233.882 81.2172C233.758 82.6175 233.553 83.9766 233.265 85.3769C232.772 87.6421 232.525 89.9073 232.278 92.2137C232.196 92.9962 232.114 93.8199 232.032 94.6025L231.99 95.179C231.867 96.3322 231.579 97.4031 231.25 98.5151C231.209 98.8857 231.168 99.2152 231.127 99.5859L231.045 100.121L230.922 101.192C230.798 102.304 230.552 103.251 230.223 104.322C230.14 104.899 230.099 105.475 230.058 106.011C230.017 107.082 229.894 107.988 229.565 109.017C229.195 110.418 229.03 111.859 228.784 113.259L228.414 115.319L228.249 116.307C228.044 117.502 227.879 118.655 227.674 119.808L227.509 120.755C227.304 121.703 227.139 122.691 226.934 123.638C226.769 124.421 226.605 125.203 226.481 125.986L225.947 128.539C225.659 129.94 225.371 131.381 225.084 132.781C224.878 133.687 224.673 134.552 224.508 135.458L224.426 135.994L224.138 137.271H223.645L223.521 138.259C223.234 140.73 222.864 143.119 222.247 145.508C221.713 147.567 221.26 149.626 220.767 151.727C220.438 153.168 220.068 154.61 219.575 156.01C219.328 156.793 219.164 157.616 219.04 158.399C218.136 163.094 218.136 163.094 217.273 165.112C217.026 165.853 216.944 166.512 216.902 167.295L216.82 168.077L216.779 168.654C217.56 167.377 218.341 166.059 219.04 164.741C223.686 156.134 229.154 147.896 234.457 139.701C235.115 138.63 235.773 137.559 236.472 136.529C238.157 133.852 239.884 131.216 241.693 128.58C242.392 127.551 243.091 126.521 243.789 125.492C247.901 119.478 252.094 113.465 256.411 107.576C257.192 106.546 257.973 105.475 258.713 104.405C260.357 102.098 262.084 99.8742 263.893 97.6502C264.839 96.497 265.743 95.3026 266.647 94.1082C267.141 93.4904 267.593 92.8727 268.086 92.2549L268.497 91.7607C268.744 91.4724 268.991 91.1429 269.237 90.8546C269.772 90.1132 270.306 89.4131 270.8 88.6717L271.252 87.9716H271.786L271.992 87.5597C272.444 86.6948 273.061 85.9947 273.677 85.2945L274.089 84.8003C274.788 83.9766 275.528 83.1529 276.268 82.3292C276.761 81.7526 277.172 81.2172 277.583 80.5994C278.2 79.6933 278.94 78.9932 279.721 78.2106C280.255 77.6752 280.255 77.6752 280.749 76.8515C281.324 76.069 281.859 75.5748 282.64 74.957C283.174 74.5039 283.174 74.5039 283.585 73.8038C284.325 72.6918 285.23 71.8681 286.175 70.962L286.915 70.2206C287.368 69.7676 287.368 69.7676 287.779 69.0674C288.437 68.079 289.218 67.3377 290.04 66.5139L290.533 66.0197C291.191 65.3608 291.849 64.7018 292.548 64.0428C294.932 61.7364 294.932 61.7364 297.029 59.1006C298.098 57.6179 299.496 56.5059 301.017 55.5586L301.798 54.8173C304.388 52.5932 307.553 51.1106 310.76 49.9986L311.459 49.7514C316.433 48.1864 322.559 48.2276 327.616 49.3396C333.618 50.7811 338.757 53.3346 343.403 57.3708L344.102 57.9885C344.718 58.5651 345.376 59.1829 346.034 59.7595L346.527 60.2126C347.843 61.4893 348.994 62.972 349.98 64.4958V65.0313H350.474L350.803 65.6079L351.666 67.1729C351.913 67.6671 352.201 68.1614 352.488 68.6556C352.858 69.2734 353.146 69.8912 353.393 70.5913V71.621H353.927C355.736 76.8515 355.736 76.8515 356.024 79.2814L356.106 80.0228C356.558 84.5532 356.599 89.7426 354.955 94.0259C354.914 94.2318 354.832 94.4377 354.749 94.6436C354.503 95.3026 354.256 96.0028 353.927 96.6617C353.516 97.4854 353.187 98.3503 352.858 99.2152C352.612 99.833 352.612 99.833 352.077 100.616H351.543V101.439H351.008L350.844 101.975C348.994 106.134 344.102 109.965 340.73 112.848C339.908 113.589 339.086 114.33 338.305 115.113C336.907 116.39 335.509 117.666 334.111 118.902C333.618 119.314 333.618 119.314 333.371 119.89L332.755 120.261C332.056 120.632 332.056 120.632 331.48 121.249L331.028 121.744H330.494L330.288 122.197C329.959 122.773 329.959 122.773 329.384 123.103C328.644 123.556 328.274 123.968 327.739 124.627C326.999 125.533 326.218 126.109 325.231 126.727C324.779 127.098 324.368 127.468 323.916 127.839C322.806 128.828 321.655 129.775 320.504 130.681L319.722 131.299C319.517 131.505 319.27 131.711 319.023 131.917L318.366 132.411L317.872 132.823H317.338V133.317C316.927 133.729 316.475 134.099 316.022 134.429L315.241 135.088C314.172 135.912 313.103 136.735 312.076 137.559L310.966 138.424C307.677 140.977 304.429 143.49 301.058 145.92C300.4 146.414 299.701 146.908 299.043 147.402L297.769 148.308L297.152 148.803C296.165 149.503 295.302 150.121 294.151 150.45V150.985C293.781 151.315 293.781 151.315 293.247 151.727L292.671 152.139L291.355 153.045C290.698 153.539 290.081 153.992 289.423 154.445L288.93 154.774C288.149 155.351 287.327 155.886 286.504 156.463C285.929 156.834 285.394 157.246 284.819 157.616C282.434 159.264 280.009 160.911 277.583 162.517C277.008 162.888 276.473 163.259 275.898 163.629C273.76 165.071 271.581 166.512 269.361 167.954C268.497 168.489 267.675 169.066 266.853 169.642C266.154 170.137 265.455 170.59 264.674 171.002C263.523 171.661 262.413 172.402 261.262 173.143C259.412 174.338 257.562 175.491 255.712 176.644C254.437 177.427 253.204 178.25 251.93 179.074C251.272 179.486 250.573 179.856 249.915 180.227C249.052 180.763 248.229 181.298 247.366 181.833C245.927 182.739 244.447 183.604 242.967 184.387C242.104 184.84 241.364 185.375 240.542 185.911C239.267 186.776 237.869 187.517 236.472 188.176L235.978 188.423L235.732 188.958L236.184 188.835C241.981 187.311 247.777 185.87 253.615 184.469L254.15 184.304C255.177 184.057 256.205 183.81 257.274 183.563C257.685 183.481 258.055 183.357 258.466 183.275C262.043 182.41 265.661 181.586 269.237 180.804L270.019 180.639C274.335 179.692 278.652 178.868 282.969 178.044C284.449 177.797 285.888 177.509 287.368 177.179C289.711 176.726 292.095 176.273 294.521 175.861C294.727 175.82 294.973 175.779 295.179 175.738L295.795 175.614C296.289 175.532 296.289 175.532 296.782 175.244C297.317 175.161 297.81 175.079 298.303 175.038L299.249 174.914L301.222 174.626C302.867 174.379 304.552 174.132 306.238 173.802C308.499 173.349 310.842 173.061 313.145 172.731C313.761 172.649 314.378 172.567 314.953 172.484C315.365 172.443 315.776 172.361 316.146 172.319C317.338 172.155 318.489 171.99 319.681 171.825C321.737 171.537 323.834 171.331 325.93 171.125C329.055 170.837 332.179 170.507 335.304 170.095C342.087 169.231 348.994 168.901 355.818 168.736H356.723L357.504 168.695C358.162 168.695 358.162 168.695 358.902 168.407C359.477 168.366 360.053 168.366 360.628 168.366H361.163C361.738 168.366 362.314 168.366 362.889 168.366L363.465 168.324C364.534 168.324 365.562 168.324 366.631 168.324C367.7 168.324 368.768 168.324 369.837 168.324C370.701 168.324 371.523 168.324 372.345 168.324C372.756 168.324 373.126 168.324 373.537 168.324C378.512 168.283 383.034 169.354 387.433 171.784C390.845 173.761 394.093 176.109 396.56 179.197L397.094 179.898C401 184.881 403.672 190.894 404.618 197.196C405.152 200.902 405.152 204.527 404.453 208.233L404.33 209.057C404.207 209.634 404.083 210.251 403.919 210.869L403.672 211.981C403.467 213.093 403.055 214.04 402.603 215.07L402.192 216.223C401.041 219.106 399.479 221.783 397.793 224.378L397.464 224.831C396.806 225.819 396.108 226.643 395.244 227.467L394.833 227.92C392.325 230.556 389.242 232.368 386.035 234.057L385.254 234.468C381.513 236.281 377.484 236.734 373.414 236.734H372.304C371.112 236.775 369.92 236.775 368.727 236.775H368.111C360.546 236.775 353.023 236.487 345.499 235.91L344.636 235.828C341.594 235.622 338.51 235.375 335.427 234.963C333.289 234.716 331.192 234.51 329.055 234.304C325.684 234.015 322.312 233.686 319.023 233.068C316.968 232.697 314.912 232.45 312.857 232.203C310.39 231.915 307.964 231.585 305.539 231.091C303.977 230.803 302.414 230.597 300.811 230.391C297.974 229.979 295.097 229.485 292.26 228.908C290.862 228.661 289.464 228.414 288.067 228.126C286.545 227.879 285.065 227.59 283.544 227.302C277.748 226.231 272.033 224.913 266.277 223.595C264.756 223.225 263.276 222.895 261.755 222.566C257.521 221.66 253.327 220.671 249.134 219.642L248.394 219.436C245.763 218.777 243.132 218.118 240.542 217.418C239.185 217.047 237.869 216.717 236.513 216.388V215.853L235.732 216.388C237.17 217.376 238.609 218.241 240.13 219.065C241.282 219.683 242.392 220.342 243.543 221.001L244.159 221.371C245.434 222.113 246.626 222.854 247.818 223.678C248.476 224.09 249.134 224.46 249.833 224.831C250.902 225.408 251.929 226.067 252.957 226.767C253.821 227.343 254.684 227.838 255.588 228.373L256.123 228.702C256.863 229.155 257.644 229.609 258.425 230.062L259.124 230.473L259.782 230.844L260.193 231.174V231.668L261.508 231.956V232.492L261.961 232.533C262.701 232.78 263.194 233.15 263.811 233.604C264.674 234.18 265.496 234.757 266.401 235.251C267.552 235.869 268.621 236.61 269.69 237.351C270.183 237.763 270.183 237.763 270.759 238.01V238.546L271.252 238.669C271.786 238.793 271.786 238.793 272.321 239.081V239.575L272.773 239.658C273.472 239.905 274.006 240.234 274.623 240.646L275.404 241.14C276.679 241.964 277.953 242.829 279.228 243.694C279.885 244.106 280.502 244.518 281.16 244.971L282.023 245.506L282.804 246.042L283.38 246.453V246.989L283.914 247.154C284.901 247.607 285.723 248.183 286.586 248.76L287.121 249.172C289.135 250.531 291.068 251.972 293.041 253.414C293.822 253.99 294.644 254.526 295.425 255.102C295.795 255.391 296.207 255.679 296.577 255.967C297.646 256.709 298.673 257.491 299.742 258.232L300.4 258.685C300.811 259.015 301.263 259.303 301.674 259.592L302.25 260.003L302.743 260.374L303.113 260.704V261.198L303.648 261.404C304.634 261.857 305.374 262.475 306.238 263.175C307.677 264.369 309.157 265.522 310.678 266.634L311.212 267.046L311.706 267.417L312.158 267.746C312.528 268.035 312.898 268.282 313.227 268.529L313.638 268.858V269.394L314.09 269.6C314.707 269.929 315.2 270.259 315.735 270.67L316.31 271.124L316.927 271.577L317.502 272.071C317.913 272.359 318.283 272.647 318.653 272.936C319.106 273.265 319.517 273.636 319.969 273.965L320.504 274.418V274.913L320.915 275.118C321.614 275.489 322.189 275.901 322.806 276.395L323.422 276.848L323.916 277.301V277.837L325.231 278.372V278.866L325.642 279.072C326.506 279.525 327.164 280.184 327.862 280.843C328.644 281.585 329.342 282.244 330.206 282.82V283.356L330.699 283.438L331.275 283.644C331.439 283.973 331.645 284.344 331.809 284.674C332.138 284.879 332.508 285.044 332.837 285.209C333.166 285.456 333.454 285.662 333.7 285.909L334.194 286.321L334.687 286.774L335.838 287.762L336.373 288.215C336.825 288.627 336.825 288.627 337.071 289.41C337.4 289.616 337.77 289.781 338.14 289.945C338.716 290.522 339.291 291.14 339.867 291.716C340.484 292.334 340.484 292.334 341.224 292.787C342.169 293.446 342.909 294.146 343.732 294.97L344.184 295.423C344.472 295.711 344.8 296.041 345.129 296.37C345.623 296.823 346.075 297.318 346.568 297.812C348.254 299.459 349.734 301.148 351.008 303.125C351.214 303.413 351.419 303.701 351.625 303.99C354.421 308.067 355.859 312.556 356.229 317.416C356.558 322.976 356.558 322.976 356.024 325.035C355.942 325.571 355.901 326.106 355.818 326.642C355.366 329.936 354.256 333.19 352.612 336.114L352.2 336.856C351.132 338.709 349.939 340.439 348.665 342.169L348.295 342.622C346.28 345.299 344.348 347.811 341.388 349.458C340.771 349.788 340.278 350.158 339.703 350.57L338.921 351.147H338.14V351.641C337.441 352.012 336.701 352.383 336.003 352.712L335.304 353.083C329.466 355.924 323.422 356.748 317.009 356.377C312.487 356.007 307.8 354.359 304.059 351.888C301.51 350.076 301.51 350.076 300.606 349.129C300.194 348.676 300.194 348.676 299.413 348.511C299.043 348.099 299.043 348.099 298.632 347.605C297.851 346.658 297.029 345.793 296.165 344.928L295.754 344.557C295.343 344.145 294.973 343.734 294.562 343.363C292.877 341.674 291.232 340.027 289.711 338.215C289.3 337.803 288.93 337.35 288.56 336.938L288.067 336.361C287.779 336.032 287.491 335.744 287.203 335.455C286.545 334.796 285.97 334.096 285.394 333.396C284.983 332.902 284.983 332.902 284.408 332.655L284.079 332.078C283.626 331.337 283.174 330.842 282.558 330.266C281.448 329.195 280.502 328.042 279.515 326.847C278.858 326.024 278.159 325.2 277.46 324.376C276.35 323.058 275.24 321.74 274.171 320.423C273.719 319.846 273.225 319.269 272.732 318.734C271.457 317.292 270.306 315.727 269.155 314.204C267.346 311.815 265.537 309.467 263.523 307.202C263.194 306.831 262.906 306.419 262.577 306.049V305.266H262.043C261.221 304.319 260.522 303.248 259.905 302.136C259.453 301.354 259.001 300.859 258.384 300.242L257.562 298.924C257.315 298.594 257.068 298.224 256.781 297.894C255.013 295.629 253.286 293.281 251.683 290.851C251.025 289.863 250.326 288.874 249.627 287.927C248.969 286.98 248.312 286.074 247.695 285.168C245.968 282.697 245.968 282.697 244.159 280.349C243.584 279.608 243.255 278.908 242.844 278.084C242.433 277.466 242.022 276.848 241.611 276.231L241.241 275.695C241.035 275.324 240.788 274.995 240.542 274.624C239.185 272.647 237.869 270.629 236.595 268.611C236.019 267.664 235.362 266.758 234.745 265.852C234.128 265.028 233.594 264.204 233.142 263.298C232.772 262.68 232.36 262.063 231.99 261.445C230.387 258.933 228.825 256.379 227.304 253.826C226.194 251.931 225.043 250.037 223.891 248.142C222.823 246.453 221.795 244.724 220.767 242.994C220.479 242.5 220.15 241.964 219.821 241.429L219.493 240.893C219.328 240.564 219.123 240.234 218.917 239.905C218.629 239.452 218.383 238.999 218.095 238.546L217.807 238.052C217.519 237.599 217.272 237.145 217.067 236.692V236.157H216.532C216.656 237.31 216.861 238.257 217.314 239.328C217.437 239.864 217.601 240.399 217.725 240.935L217.93 241.758L218.095 242.5C218.177 242.829 218.259 243.2 218.383 243.529C218.547 244.229 218.547 244.229 218.629 244.847L218.383 245.671H218.876L219.04 246.495L219.287 247.565L219.369 248.142C219.534 248.925 219.698 249.666 219.945 250.407L219.698 250.943H220.191V253.043H220.726L220.849 253.743C221.055 254.608 221.219 255.514 221.384 256.379C221.466 256.75 221.507 257.12 221.589 257.491C221.713 258.068 221.795 258.603 221.918 259.139L222.124 260.127C222.288 260.992 222.288 260.992 222.823 261.733C222.987 262.475 223.11 263.175 223.193 263.875C223.48 265.605 223.768 267.293 224.179 269.023L224.303 269.6C224.426 270.053 224.549 270.506 224.673 270.959L224.96 271.247L225.043 272.236C225.166 273.553 225.454 274.748 225.824 276.025C225.988 276.807 226.111 277.548 226.276 278.372C226.44 279.361 226.646 280.39 226.851 281.379C227.345 283.809 227.797 286.239 228.249 288.627C228.537 290.275 228.866 291.881 229.195 293.528C230.346 299.253 230.346 299.253 229.935 300.489H230.469L230.552 301.271C230.757 303.372 231.086 305.431 231.497 307.49C232.155 310.868 232.525 314.245 232.936 317.663C233.183 320.011 233.47 322.358 233.882 324.665C234.169 326.353 234.334 328.083 234.498 329.813C234.622 331.172 234.745 332.531 234.95 333.89C235.197 335.661 235.32 337.391 235.362 339.162C235.444 340.192 235.526 341.139 235.732 342.169C235.814 342.951 235.814 343.692 235.855 344.475C235.937 345.669 235.978 346.864 236.143 348.099C236.266 349.376 236.348 350.694 236.389 352.012L236.43 352.794C236.472 354.277 236.554 355.801 236.595 357.325L236.636 358.313C236.636 358.931 236.677 359.59 236.677 360.208L236.718 361.114V361.896C236.759 362.761 236.759 362.761 236.924 363.709C237.088 364.985 237.088 366.221 237.088 367.456V368.239C237.088 368.733 237.088 369.269 237.088 369.763C237.088 370.586 237.088 371.369 237.129 372.152C237.129 378.206 237.129 378.206 235.978 380.924C235.937 381.295 235.855 381.624 235.773 381.995C235.033 385.454 233.183 388.708 231.004 391.468L230.428 392.168C229.359 393.609 229.359 393.609 228.907 394.103H228.373V394.639H227.838V395.174H227.304L227.057 395.957C226.523 396.41 225.988 396.863 225.454 397.316L224.96 397.687C219.986 401.476 213.86 403.906 207.694 404.729C200.787 405.471 194.003 404.729 187.549 402.011C185.041 400.858 182.698 399.458 180.478 397.81C180.108 397.563 179.738 397.316 179.368 397.069L178.628 396.492V395.957L178.134 395.751C177.559 395.421 177.148 395.092 176.695 394.598L176.243 394.186C172.461 389.861 169.912 384.919 168.555 379.318C168.021 376.806 168.062 374.252 168.062 371.698V371.122C168.062 369.969 168.062 368.774 168.103 367.58C168.103 367.168 168.103 366.756 168.103 366.344C168.185 355.554 169.049 344.846 170.076 334.137L170.159 333.314C170.57 328.948 171.022 324.582 171.762 320.299C172.214 317.581 172.584 314.904 172.913 312.185C173.037 311.444 173.119 310.662 173.242 309.92L173.324 309.179C173.489 308.026 173.653 306.914 173.9 305.761C174.147 304.443 174.311 303.166 174.475 301.807C174.887 298.677 175.503 295.629 176.12 292.499C176.243 291.757 176.408 290.975 176.531 290.234C177.435 284.674 178.545 279.196 179.861 273.718C180.19 272.441 180.395 271.165 180.601 269.888C180.765 268.817 181.053 267.829 181.3 266.84C181.505 265.975 181.67 265.152 181.875 264.328C182.369 262.022 182.903 259.715 183.438 257.409L183.602 256.75C184.26 254.032 184.918 251.313 185.576 248.554L185.781 247.813C185.987 246.906 186.233 245.959 186.521 245.012C186.891 243.653 187.22 242.294 187.549 240.893C188.001 239.246 188.412 237.557 188.864 235.91C188.083 236.651 187.549 237.393 187.014 238.381L186.603 239.122C186.233 239.905 185.822 240.687 185.452 241.429H184.918L184.877 241.882C184.63 242.664 184.219 243.323 183.767 244.065C183.191 245.012 182.698 245.918 182.287 246.989H181.793L181.588 247.524C181.177 248.471 180.642 249.336 180.108 250.242L179.779 250.778C179.327 251.56 178.833 252.343 178.34 253.084C177.888 253.743 177.477 254.443 177.107 255.144C175.421 258.315 173.365 261.28 171.351 264.246C170.693 265.193 170.076 266.14 169.542 267.17C169.008 268.199 168.35 269.064 167.61 269.97C167.24 270.465 167.24 270.465 167.034 271.247H166.5L166.294 271.824C165.965 272.565 165.595 273.183 165.061 273.842C164.403 274.789 163.828 275.695 163.334 276.766H162.841C162.718 277.054 162.718 277.054 162.635 277.343C162.306 278.125 161.895 278.702 161.402 279.402L160.909 280.102L160.456 280.72C159.922 281.502 159.429 282.202 159.141 283.108H158.606L158.442 283.603C157.949 284.756 157.209 285.703 156.469 286.692L156.016 287.351C155.564 287.927 155.112 288.545 154.66 289.163C153.221 291.14 153.221 291.14 151.823 293.158C151.042 294.393 150.179 295.629 149.356 296.823L148.904 297.441L148.493 298.018L148.164 298.553L147.835 298.924H147.301L147.136 299.459C146.807 300.159 146.52 300.53 146.026 301.107C145.04 302.177 144.217 303.372 143.354 304.566C142.203 306.255 140.97 307.861 139.654 309.467C138.379 311.073 137.105 312.68 135.872 314.327C135.255 315.11 134.638 315.892 133.981 316.633C133.364 317.292 133.364 317.292 133.076 317.91H132.542L132.377 318.322C131.761 319.475 131.021 320.505 130.116 321.411C129.458 322.07 128.924 322.77 128.389 323.553C127.649 324.582 126.868 325.488 125.923 326.394C124.73 327.589 123.703 328.989 122.675 330.307C122.387 330.678 122.058 331.007 121.77 331.337H121.236V331.872H120.702V332.408H120.167L120.003 332.819C119.55 333.684 118.975 334.343 118.358 335.043H117.824L117.618 335.538C117.289 336.073 117.002 336.485 116.549 336.938L116.138 337.391L115.645 337.885C115.357 338.174 115.069 338.503 114.781 338.832L114.329 339.286C113.877 339.78 113.425 340.274 113.014 340.809C111.821 342.169 110.506 343.445 109.231 344.722L108.491 345.463C108.039 345.916 107.587 346.369 107.135 346.822C106.683 347.234 106.23 347.687 105.819 348.14C105.203 348.758 104.545 349.294 103.846 349.829L103.188 350.364L102.571 350.859L101.996 351.312L101.502 351.641H100.721V352.177C94.3902 355.471 88.3879 356.748 81.2345 356.419C76.4656 356.007 71.9844 354.195 67.791 351.929L66.9688 351.476C63.9265 349.788 61.0487 347.811 58.8698 345.051C58.4587 344.64 58.0887 344.187 57.6776 343.775C56.5265 342.539 55.5809 341.221 54.6353 339.78L54.1831 339.162C52.662 336.897 51.6753 334.426 50.6886 331.872L50.4831 331.337C48.4686 326.106 48.4275 320.175 49.2497 314.698C49.3731 313.956 49.3731 313.956 49.6608 313.174L49.7842 312.474C50.5242 308.396 52.662 305.06 55.1698 301.807L55.622 301.23C56.9787 299.5 58.4587 297.935 59.9798 296.411L60.6787 295.711C62.0765 294.311 63.5154 293.075 65.0366 291.84C66.0644 290.975 66.9688 290.028 67.9144 289.08C68.9833 287.968 69.8877 287.021 71.2444 286.28C71.8611 285.662 72.4366 285.044 73.0533 284.385C73.7933 283.603 74.4511 283.232 75.4378 282.82C75.7256 282.326 75.7255 282.326 75.9722 281.791C76.3422 281.379 76.3422 281.379 76.7944 281.049C77.4933 280.473 78.1511 279.896 78.85 279.278C79.7545 278.496 80.7412 277.713 81.6867 276.972C82.2212 276.56 82.7556 276.107 83.249 275.654C84.1945 274.83 85.1812 274.048 86.1679 273.265C87.4012 272.318 88.5934 271.329 89.7857 270.3C91.3068 268.982 92.9102 267.746 94.4724 266.552C95.2124 266.017 95.9113 265.481 96.6102 264.905C97.4735 264.246 98.3369 263.587 99.2002 262.886C102.654 260.168 106.23 257.532 109.848 255.02C111.205 254.073 112.52 253.084 113.877 252.137C119.098 248.348 124.402 244.682 129.746 241.099C130.445 240.646 131.103 240.193 131.802 239.74C135.091 237.516 138.421 235.375 141.751 233.233C142.532 232.739 143.313 232.244 144.094 231.75C146.848 229.979 149.644 228.249 152.44 226.602C153.385 226.025 154.331 225.449 155.276 224.831C157.003 223.801 158.73 222.772 160.456 221.742C161.854 220.918 163.252 220.095 164.65 219.23L165.554 218.694C166.13 218.324 166.705 217.994 167.281 217.624L168.103 217.129L168.802 216.717C169.419 216.388 169.419 216.388 170.2 216.388V215.853L169.295 216.1C166.993 216.717 164.691 217.294 162.348 217.871C160.826 218.2 159.305 218.571 157.825 219.024C155.687 219.642 153.467 220.177 151.289 220.671C150.343 220.877 149.438 221.124 148.493 221.33L146.931 221.701L145.451 222.072C143.847 222.442 142.244 222.772 140.6 223.101C139.243 223.348 137.927 223.678 136.571 224.007C134.145 224.625 131.678 225.16 129.212 225.696L128.513 225.861C123.538 226.931 118.605 227.879 113.589 228.785L112.603 228.95C108.45 229.732 104.298 230.35 100.146 230.968C98.2547 231.215 96.4046 231.503 94.5135 231.874C92.8691 232.162 91.2657 232.368 89.5801 232.533C88.2235 232.697 86.9079 232.862 85.5512 233.109C80.7 233.974 75.8489 234.386 70.9566 234.798C68.8599 235.004 66.8043 235.169 64.7488 235.416C63.0632 235.58 61.3365 235.745 59.6509 235.91L59.0343 235.951C51.7987 236.61 44.6041 236.775 37.3685 236.775C36.7107 236.775 36.0529 236.775 35.3952 236.816C34.3674 236.816 33.2985 236.816 32.2707 236.816C31.9007 236.816 31.4896 236.816 31.1196 236.816C28.694 236.816 26.474 236.569 24.1306 235.91L23.2262 235.663C19.9372 234.757 16.895 233.192 14.2227 231.091C13.6061 230.597 13.606 230.597 12.866 230.185L12.2905 229.856V229.32H11.756C11.3038 228.867 10.8516 228.455 10.4405 228.002L9.8238 227.385C6.57598 223.966 3.65706 219.312 2.25928 214.823C2.13594 214.205 2.01261 213.587 1.84816 212.97C1.72483 212.311 1.47816 211.734 1.23149 211.116C-0.289633 206.133 -0.371856 200.408 0.820375 195.342L0.94371 194.766L1.10816 194.107C1.9304 190.853 2.95818 187.929 4.64375 185.005L4.93153 184.469C6.49376 181.751 8.30267 179.403 10.4405 177.097L10.8927 176.603L11.2216 176.314H11.756V175.779C12.4138 175.202 13.1127 174.708 13.8527 174.214L14.2638 173.885C17.635 171.496 21.0883 169.766 25.1584 168.942L26.1451 168.654C27.8717 168.283 29.6395 168.324 31.4073 168.324H32.5174C33.5451 168.324 34.5729 168.324 35.5596 168.324C36.2174 168.324 36.8341 168.324 37.4918 168.324C44.563 168.324 51.6342 168.572 58.7465 169.148C59.3221 169.189 59.9387 169.231 60.5554 169.272C63.1454 169.478 65.7355 169.725 68.3255 169.972L69.1477 170.054C83.8245 171.537 83.8245 171.537 90.0735 172.484C91.1013 172.649 92.0879 172.773 93.1157 172.937C106.395 174.832 106.395 174.832 111.205 175.903C113.014 176.314 114.823 176.644 116.632 176.973C118.893 177.385 121.113 177.797 123.374 178.25C124.689 178.538 126.005 178.786 127.362 179.033C131.473 179.815 135.543 180.68 139.613 181.669C140.476 181.833 141.34 182.039 142.244 182.245C144.998 182.904 147.753 183.522 150.507 184.304C151.946 184.675 153.385 185.005 154.865 185.293C156.797 185.705 158.689 186.158 160.621 186.693C162.06 187.064 163.499 187.435 164.938 187.846L165.883 188.094C166.171 188.135 166.5 188.217 166.788 188.299L167.569 188.505C168.35 188.711 169.131 188.835 169.953 188.958L169.501 188.711C167.075 187.435 164.732 186.034 162.43 184.593C161.525 184.057 160.621 183.522 159.716 182.987L158.771 182.41C158.113 182.039 157.455 181.627 156.839 181.257C154.002 179.568 151.165 177.838 148.411 176.067C147.342 175.367 146.273 174.708 145.245 174.049C142.408 172.278 139.572 170.466 136.776 168.654L136.201 168.324C131.267 165.153 126.334 161.858 121.565 158.358C120.948 157.905 120.414 157.575 119.674 157.328V156.793L119.057 156.587C118.399 156.298 117.865 155.969 117.248 155.557L116.549 155.063C115.275 154.116 114 153.168 112.685 152.18C110.465 150.532 108.204 148.926 105.984 147.32L105.408 146.908C104.915 146.537 104.38 146.167 103.887 145.796L103.394 145.467C102.612 144.89 102.612 144.89 101.749 144.396V143.86L101.297 143.654C100.762 143.366 100.31 143.078 99.8169 142.707L99.2413 142.254L97.7613 141.142L97.3091 140.771C97.0213 140.565 96.7335 140.318 96.4458 140.071C95.6646 139.495 94.8424 138.918 94.0613 138.341L93.3213 137.806V137.271L92.9102 137.065C92.2113 136.735 91.5946 136.365 90.9779 135.953V135.458L90.5257 135.211C89.909 134.923 89.4568 134.552 88.9635 134.141L88.3879 133.687L87.8534 133.234C86.3734 131.999 86.3734 131.999 84.7701 130.887L84.1123 130.434V129.898L83.7012 129.734C83.1667 129.404 82.7145 129.116 82.2623 128.704C81.5634 128.086 81.5634 128.086 80.9878 127.798V127.263L80.5356 127.098C79.6722 126.604 78.9734 125.903 78.2745 125.203C77.2878 124.297 76.3422 123.391 75.2322 122.609L74.3689 121.991V121.455L73.9166 121.249C73.3 120.92 72.7655 120.508 72.1488 120.055L71.5733 119.602C70.8744 119.025 70.2577 118.408 69.641 117.79C68.9833 117.09 68.2844 116.39 67.5855 115.689L67.051 115.154C66.0232 114.083 64.9132 113.095 63.8032 112.106C63.1865 111.571 62.611 110.994 62.0354 110.376C61.2543 109.594 60.4321 108.811 59.6098 108.111C57.6365 106.381 55.992 104.528 54.3887 102.469L53.8953 101.851C52.5798 100.08 51.7164 98.1444 50.8942 96.1263C50.6886 95.6321 50.4831 95.1791 50.2775 94.6848C49.9075 93.7788 49.6608 92.9138 49.4964 91.9666L49.2908 91.1017C48.9208 89.0012 48.7975 86.9008 48.7975 84.8003V84.059C48.8386 80.4346 49.2086 76.7691 50.6886 73.4743C50.8531 73.1036 51.0175 72.6918 51.1409 72.3211C52.7853 68.2437 54.882 64.0016 58.1298 60.9951C58.582 60.5832 58.9932 60.089 59.4043 59.5948C60.2676 58.5651 61.2543 57.7414 62.2821 56.8765L62.981 56.2587C66.2699 53.5817 70.0933 51.6048 74.1222 50.2869L74.9855 49.9574C80.2067 48.3511 86.1268 48.1452 91.5124 49.216C94.8424 49.9574 97.8024 51.1517 100.721 52.9227V53.417L101.132 53.4993C104.092 54.4054 106.477 57.2472 108.574 59.3888L108.985 59.7595C110.383 61.201 111.698 62.6013 112.89 64.2075C113.713 65.2372 114.699 66.1845 115.645 67.0905C116.056 67.5024 116.426 67.8731 116.837 68.2437L117.33 68.7791C117.824 69.2734 118.235 69.7264 118.605 70.303V70.8384H119.139C119.509 71.2091 119.509 71.2091 119.962 71.7445C120.784 72.7329 121.647 73.6802 122.469 74.6275L122.839 75.0393V75.5748L123.62 75.863C123.99 76.2749 124.36 76.7279 124.73 77.181C125.47 78.0871 126.21 79.0343 126.992 79.8992C128.307 81.4231 128.307 81.4231 128.883 82.1644V82.6998L129.335 82.9058C129.993 83.2764 130.322 83.6471 130.733 84.3061V84.8003H131.226L131.308 85.3357L131.514 85.8711L132.295 86.1182C132.747 86.6537 133.158 87.1479 133.569 87.6833C133.816 88.0128 134.063 88.3834 134.309 88.7129C134.474 88.8777 134.597 89.0424 134.762 89.2483C135.214 89.8661 135.707 90.4839 136.201 91.1017L136.694 91.7607C137.023 92.1725 137.393 92.5844 137.722 93.0374L138.174 93.614L138.585 94.1494L138.873 94.5613V95.0967H139.407L139.654 96.1675H140.188C140.641 96.7441 141.093 97.3207 141.545 97.8973C141.833 98.3092 142.121 98.6798 142.408 99.0917L142.861 99.7095C143.518 100.616 144.217 101.522 144.916 102.428C146.478 104.446 148 106.505 149.521 108.564L149.973 109.141L150.343 109.718L150.713 110.171C151.001 110.706 151.124 111.118 151.247 111.694H151.782C152.275 112.353 152.727 113.012 153.221 113.671L153.632 114.289C154.084 114.948 154.495 115.566 154.947 116.184C155.194 116.554 155.441 116.925 155.687 117.296C156.263 118.161 156.88 119.025 157.455 119.89C158.072 120.796 158.73 121.703 159.346 122.609L159.716 123.144C160.374 124.091 161.032 125.08 161.69 126.027C162.718 127.468 163.704 128.951 164.65 130.434L165.225 131.258L166.171 132.74C166.5 133.317 166.5 133.317 166.5 133.852H167.034L167.281 135.17H167.815C168.226 135.747 168.596 136.365 168.966 136.982C169.213 137.353 169.46 137.724 169.665 138.136L170.076 138.753C170.488 139.412 170.899 140.071 171.31 140.771L171.762 141.43C172.05 141.883 172.338 142.295 172.625 142.748L172.995 143.366L173.324 143.901C173.612 144.396 173.777 144.89 173.9 145.467H174.393C174.722 145.878 174.722 145.878 175.092 146.537L175.503 147.279L175.997 148.102C176.325 148.679 176.695 149.297 177.065 149.873C177.148 150.038 177.271 150.203 177.353 150.368C178.258 151.891 179.162 153.374 180.067 154.857L180.519 155.557C181.177 156.628 181.793 157.657 182.451 158.687L182.78 159.14C183.027 159.552 183.273 159.964 183.561 160.376C183.89 161.035 183.89 161.035 183.89 161.817H184.424L184.671 163.135H185.206L186.316 165.112L186.644 165.689C186.85 166.059 187.056 166.43 187.261 166.801C187.467 167.171 187.672 167.542 187.878 167.871C188.124 168.324 188.371 168.778 188.618 169.189L189.152 169.437L188.947 168.942C188.207 166.924 187.59 164.865 187.056 162.764L186.768 161.694C186.11 159.099 185.452 156.504 184.836 153.868C184.63 153.003 184.424 152.097 184.219 151.191C182.944 145.755 181.67 140.277 180.519 134.758C180.067 132.493 179.532 130.269 178.998 128.004C178.751 126.933 178.628 125.986 178.628 124.874C178.463 124.256 178.258 123.679 178.093 123.062C177.97 122.485 177.847 121.95 177.764 121.414L177.641 120.92C177.23 118.82 176.86 116.76 176.49 114.701C176.243 113.301 175.955 111.9 175.709 110.459C175.174 107.741 174.722 104.981 174.311 102.222C174.147 100.986 173.982 99.7918 173.777 98.5563C172.502 90.9781 172.502 90.9781 172.338 87.7657L172.297 87.1891L172.05 86.9419C171.968 86.4065 171.885 85.8711 171.803 85.3769L171.68 84.3473L171.556 83.2764L171.392 82.1232C170.981 78.6225 170.57 75.1217 170.2 71.621L170.118 70.7149C169.583 65.7314 169.213 60.748 168.884 55.7645C168.884 55.5174 168.843 55.2703 168.843 55.0232C168.802 54.5701 168.761 54.1171 168.761 53.6641C168.679 52.6756 168.596 51.6872 168.473 50.6987C168.309 49.3396 168.309 47.9805 168.268 46.5802V45.7564C168.226 45.1799 168.226 44.6033 168.226 44.0267C168.226 43.1618 168.185 42.2969 168.185 41.432C168.103 38.5078 168.062 35.6248 168.062 32.7006V31.8769C168.103 28.5821 168.35 25.6991 169.419 22.569C169.46 22.4043 169.542 22.1983 169.583 22.0336C170.611 18.9859 172.009 16.4736 173.9 13.8789C174.064 13.5906 174.27 13.3023 174.434 12.9728L174.928 12.3138H175.462L175.668 11.8608C176.038 11.1606 176.49 10.6664 177.024 10.131L177.6 9.5544L178.093 9.14253H178.628V8.60713C179.121 8.23646 179.655 7.90698 180.19 7.5363L180.807 7.04208C185.247 3.54131 190.92 1.23492 196.47 0.411209C202.143 -0.330125 207.611 -0.1242 213.079 1.48204Z" fill="#0288FD" fill-opacity="0.15"/>
</svg>
