<svg preserveAspectRatio="none" width="100%" height="100%" overflow="visible" style="display: block;" viewBox="0 0 24 24" fill="none" xmlns="http://www.w3.org/2000/svg">
<g id="flowbite:sale-percent-outline">
<path id="Vector" d="M8.891 15.107L15.11 8.89M9.927 8.37H9.937M13.026 15.624H13.036M14.08 3.902C14.3575 4.19875 14.6952 4.43276 15.0705 4.58833C15.4457 4.74389 15.85 4.81743 16.256 4.804C16.6457 4.79076 17.0339 4.85774 17.3966 5.00081C17.7593 5.14387 18.0887 5.35995 18.3644 5.63564C18.6401 5.91133 18.8561 6.24074 18.9992 6.60343C19.1423 6.96612 19.2092 7.35434 19.196 7.744C19.1824 8.14996 19.2558 8.55413 19.4112 8.92942C19.5666 9.30471 19.8004 9.64245 20.097 9.92C20.382 10.1863 20.6092 10.5084 20.7645 10.8662C20.9199 11.224 21 11.6099 21 12C21 12.3901 20.9199 12.776 20.7645 13.1338C20.6092 13.4916 20.382 13.8137 20.097 14.08C19.8006 14.3574 19.5668 14.695 19.4114 15.0701C19.256 15.4452 19.1826 15.8492 19.196 16.255C19.2095 16.6447 19.1428 17.0331 18.9998 17.3959C18.8568 17.7587 18.6408 18.0883 18.365 18.364C18.0893 18.6398 17.7597 18.8558 17.3969 18.9988C17.0341 19.1418 16.6457 19.2085 16.256 19.195C15.85 19.1816 15.4457 19.2551 15.0705 19.4107C14.6952 19.5662 14.3575 19.8002 14.08 20.097C13.8137 20.382 13.4916 20.6092 13.1338 20.7645C12.776 20.9199 12.3901 21 12 21C11.6099 21 11.224 20.9199 10.8662 20.7645C10.5084 20.6092 10.1863 20.382 9.92 20.097C9.64254 19.8002 9.30484 19.5662 8.92955 19.4107C8.55425 19.2551 8.15004 19.1816 7.744 19.195C7.35434 19.2082 6.96612 19.1413 6.60343 18.9982C6.24074 18.8551 5.91133 18.6391 5.63564 18.3634C5.35995 18.0877 5.14387 17.7583 5.00081 17.3956C4.85774 17.0329 4.79076 16.6447 4.804 16.255C4.81756 15.849 4.74418 15.4449 4.58878 15.0696C4.43339 14.6943 4.19957 14.3566 3.903 14.079C3.61841 13.8124 3.39155 13.4903 3.23647 13.1325C3.08138 12.7747 3.00136 12.3889 3.00136 11.999C3.00136 11.6091 3.08138 11.2233 3.23647 10.8655C3.39155 10.5077 3.61841 10.1856 3.903 9.919C4.19957 9.64145 4.43339 9.30371 4.58878 8.92842C4.74418 8.55313 4.81756 8.14896 4.804 7.743C4.79075 7.35325 4.85776 6.96494 5.00089 6.60219C5.14401 6.23943 5.36018 5.90997 5.63598 5.63426C5.91178 5.35856 6.24131 5.1425 6.60412 4.9995C6.96693 4.8565 7.35526 4.78962 7.745 4.803C8.15096 4.81656 8.55513 4.74318 8.93042 4.58778C9.30571 4.43239 9.64345 4.19857 9.921 3.902C10.1873 3.61718 10.5093 3.3901 10.8671 3.23485C11.2248 3.07961 11.6106 2.9995 12.0005 2.9995C12.3904 2.9995 12.7762 3.07961 13.1339 3.23485C13.4917 3.3901 13.8137 3.61718 14.08 3.902Z" stroke="white" stroke-width="2" stroke-linecap="round" stroke-linejoin="round"/>
</g>
</svg>
