<svg preserveAspectRatio="none" width="100%" height="100%" overflow="visible" style="display: block;" viewBox="0 0 297.065 155.803" fill="none" xmlns="http://www.w3.org/2000/svg">
<path id="Ellipse 15" opacity="0.2" d="M297.065 1.52588e-05C297.065 20.4604 293.223 40.7204 285.759 59.6233C278.294 78.5263 267.354 95.7019 253.561 110.17C239.768 124.637 223.394 136.114 205.374 143.943C187.353 151.773 168.038 155.803 148.533 155.803C129.027 155.803 109.712 151.773 91.6916 143.943C73.6708 136.114 57.2967 124.637 43.5042 110.17C29.7117 95.7019 18.7708 78.5262 11.3064 59.6233C3.84191 40.7204 -1.70523e-06 20.4604 0 1.63804e-06L67.979 7.87186e-06C67.979 11.0963 70.0626 22.0839 74.1108 32.3355C78.159 42.5871 84.0925 51.9019 91.5726 59.7482C99.0527 67.5944 107.933 73.8184 117.706 78.0647C127.479 82.3111 137.954 84.4967 148.533 84.4967C159.111 84.4967 169.586 82.3111 179.359 78.0647C189.132 73.8184 198.012 67.5944 205.493 59.7482C212.973 51.9019 218.906 42.5871 222.954 32.3355C227.003 22.0839 229.086 11.0963 229.086 1.52588e-05H297.065Z" fill="url(#paint0_linear_0_4)"/>
<defs>
<linearGradient id="paint0_linear_0_4" x1="242.603" y1="122.046" x2="19.6459" y2="8.84486" gradientUnits="userSpaceOnUse">
<stop stop-color="#0058CB"/>
<stop offset="1" stop-color="#0288FD"/>
</linearGradient>
</defs>
</svg>
