<svg preserveAspectRatio="none" width="100%" height="100%" overflow="visible" style="display: block;" viewBox="0 0 434.926 217.463" fill="none" xmlns="http://www.w3.org/2000/svg">
<path id="Ellipse 15" opacity="0.08" d="M434.926 1.52588e-05C434.926 28.5576 429.301 56.8356 418.372 83.2194C407.444 109.603 391.426 133.576 371.232 153.769C351.039 173.963 327.066 189.981 300.682 200.909C274.298 211.838 246.02 217.463 217.463 217.463C188.905 217.463 160.627 211.838 134.243 200.909C107.86 189.981 83.8867 173.963 63.6934 153.769C43.5001 133.576 27.4819 109.603 16.5534 83.2194C5.62484 56.8356 -2.49659e-06 28.5576 0 -3.75241e-06L85.1647 3.69292e-06C85.1647 17.3736 88.5867 34.5771 95.2353 50.6283C101.884 66.6794 111.629 81.2639 123.914 93.5489C136.199 105.834 150.783 115.579 166.835 122.228C182.886 128.876 200.089 132.298 217.463 132.298C234.836 132.298 252.04 128.876 268.091 122.228C284.142 115.579 298.727 105.834 311.012 93.5489C323.297 81.2639 333.042 66.6794 339.69 50.6283C346.339 34.5772 349.761 17.3736 349.761 1.52588e-05L434.926 1.52588e-05Z" fill="url(#paint0_linear_0_103)"/>
<defs>
<linearGradient id="paint0_linear_0_103" x1="355.189" y1="170.346" x2="35.3378" y2="1.99023e-06" gradientUnits="userSpaceOnUse">
<stop stop-color="#0058CB"/>
<stop offset="1" stop-color="#0288FD"/>
</linearGradient>
</defs>
</svg>
