<svg preserveAspectRatio="none" width="100%" height="100%" overflow="visible" style="display: block;" viewBox="0 0 36.6667 36.6667" fill="none" xmlns="http://www.w3.org/2000/svg">
<g id="Group">
<path id="Vector" fill-rule="evenodd" clip-rule="evenodd" d="M7.33333 3.66667H29.3333C31.2783 3.66667 33.1435 4.43928 34.5188 5.81455C35.894 7.18982 36.6667 9.05508 36.6667 11V29.3333C36.6667 31.2783 35.894 33.1435 34.5188 34.5188C33.1435 35.894 31.2783 36.6667 29.3333 36.6667H7.33333C5.38841 36.6667 3.52315 35.894 2.14788 34.5188C0.772617 33.1435 8.9407e-08 31.2783 8.9407e-08 29.3333V11C8.9407e-08 9.05508 0.772617 7.18982 2.14788 5.81455C3.52315 4.43928 5.38841 3.66667 7.33333 3.66667ZM7.33333 7.33333C6.36087 7.33333 5.42824 7.71964 4.74061 8.40728C4.05298 9.09491 3.66667 10.0275 3.66667 11V29.3333C3.66667 30.3058 4.05298 31.2384 4.74061 31.9261C5.42824 32.6137 6.36087 33 7.33333 33H29.3333C30.3058 33 31.2384 32.6137 31.9261 31.9261C32.6137 31.2384 33 30.3058 33 29.3333V11C33 10.0275 32.6137 9.09491 31.9261 8.40728C31.2384 7.71964 30.3058 7.33333 29.3333 7.33333H7.33333Z" fill="#616EFF"/>
<path id="Vector_2" fill-rule="evenodd" clip-rule="evenodd" d="M1.83333 14.6667C1.83333 14.1804 2.02649 13.7141 2.3703 13.3703C2.71412 13.0265 3.18044 12.8333 3.66667 12.8333H33C33.4862 12.8333 33.9525 13.0265 34.2964 13.3703C34.6402 13.7141 34.8333 14.1804 34.8333 14.6667C34.8333 15.1529 34.6402 15.6192 34.2964 15.963C33.9525 16.3068 33.4862 16.5 33 16.5H3.66667C3.18044 16.5 2.71412 16.3068 2.3703 15.963C2.02649 15.6192 1.83333 15.1529 1.83333 14.6667ZM11 8.9407e-08C11.4862 8.9407e-08 11.9525 0.193154 12.2964 0.536971C12.6402 0.880788 12.8333 1.3471 12.8333 1.83333V9.16667C12.8333 9.6529 12.6402 10.1192 12.2964 10.463C11.9525 10.8068 11.4862 11 11 11C10.5138 11 10.0475 10.8068 9.70364 10.463C9.35982 10.1192 9.16667 9.6529 9.16667 9.16667V1.83333C9.16667 1.3471 9.35982 0.880788 9.70364 0.536971C10.0475 0.193154 10.5138 8.9407e-08 11 8.9407e-08ZM25.6667 8.9407e-08C26.1529 8.9407e-08 26.6192 0.193154 26.963 0.536971C27.3068 0.880788 27.5 1.3471 27.5 1.83333V9.16667C27.5 9.6529 27.3068 10.1192 26.963 10.463C26.6192 10.8068 26.1529 11 25.6667 11C25.1804 11 24.7141 10.8068 24.3703 10.463C24.0265 10.1192 23.8333 9.6529 23.8333 9.16667V1.83333C23.8333 1.3471 24.0265 0.880788 24.3703 0.536971C24.7141 0.193154 25.1804 8.9407e-08 25.6667 8.9407e-08Z" fill="#616EFF"/>
<path id="Vector_3" d="M11 20.1667C11 20.6529 10.8068 21.1192 10.463 21.463C10.1192 21.8068 9.6529 22 9.16667 22C8.68044 22 8.21412 21.8068 7.87031 21.463C7.52649 21.1192 7.33333 20.6529 7.33333 20.1667C7.33333 19.6804 7.52649 19.2141 7.87031 18.8703C8.21412 18.5265 8.68044 18.3333 9.16667 18.3333C9.6529 18.3333 10.1192 18.5265 10.463 18.8703C10.8068 19.2141 11 19.6804 11 20.1667ZM11 27.5C11 27.9862 10.8068 28.4525 10.463 28.7964C10.1192 29.1402 9.6529 29.3333 9.16667 29.3333C8.68044 29.3333 8.21412 29.1402 7.87031 28.7964C7.52649 28.4525 7.33333 27.9862 7.33333 27.5C7.33333 27.0138 7.52649 26.5475 7.87031 26.2036C8.21412 25.8598 8.68044 25.6667 9.16667 25.6667C9.6529 25.6667 10.1192 25.8598 10.463 26.2036C10.8068 26.5475 11 27.0138 11 27.5ZM20.1667 20.1667C20.1667 20.6529 19.9735 21.1192 19.6297 21.463C19.2859 21.8068 18.8196 22 18.3333 22C17.8471 22 17.3808 21.8068 17.037 21.463C16.6932 21.1192 16.5 20.6529 16.5 20.1667C16.5 19.6804 16.6932 19.2141 17.037 18.8703C17.3808 18.5265 17.8471 18.3333 18.3333 18.3333C18.8196 18.3333 19.2859 18.5265 19.6297 18.8703C19.9735 19.2141 20.1667 19.6804 20.1667 20.1667ZM20.1667 27.5C20.1667 27.9862 19.9735 28.4525 19.6297 28.7964C19.2859 29.1402 18.8196 29.3333 18.3333 29.3333C17.8471 29.3333 17.3808 29.1402 17.037 28.7964C16.6932 28.4525 16.5 27.9862 16.5 27.5C16.5 27.0138 16.6932 26.5475 17.037 26.2036C17.3808 25.8598 17.8471 25.6667 18.3333 25.6667C18.8196 25.6667 19.2859 25.8598 19.6297 26.2036C19.9735 26.5475 20.1667 27.0138 20.1667 27.5ZM29.3333 20.1667C29.3333 20.6529 29.1402 21.1192 28.7964 21.463C28.4525 21.8068 27.9862 22 27.5 22C27.0138 22 26.5475 21.8068 26.2036 21.463C25.8598 21.1192 25.6667 20.6529 25.6667 20.1667C25.6667 19.6804 25.8598 19.2141 26.2036 18.8703C26.5475 18.5265 27.0138 18.3333 27.5 18.3333C27.9862 18.3333 28.4525 18.5265 28.7964 18.8703C29.1402 19.2141 29.3333 19.6804 29.3333 20.1667ZM29.3333 27.5C29.3333 27.9862 29.1402 28.4525 28.7964 28.7964C28.4525 29.1402 27.9862 29.3333 27.5 29.3333C27.0138 29.3333 26.5475 29.1402 26.2036 28.7964C25.8598 28.4525 25.6667 27.9862 25.6667 27.5C25.6667 27.0138 25.8598 26.5475 26.2036 26.2036C26.5475 25.8598 27.0138 25.6667 27.5 25.6667C27.9862 25.6667 28.4525 25.8598 28.7964 26.2036C29.1402 26.5475 29.3333 27.0138 29.3333 27.5Z" fill="#616EFF"/>
</g>
</svg>
