<svg preserveAspectRatio="none" width="100%" height="100%" overflow="visible" style="display: block;" viewBox="0 0 284.031 142.016" fill="none" xmlns="http://www.w3.org/2000/svg">
<path id="Ellipse 14" opacity="0.22" d="M284.031 1.52588e-05C284.031 18.6498 280.358 37.1169 273.221 54.347C266.084 71.5771 255.623 87.2328 242.436 100.42C229.248 113.608 213.593 124.068 196.363 131.205C179.132 138.342 160.665 142.016 142.016 142.016C123.366 142.016 104.899 138.342 87.6685 131.205C70.4384 124.068 54.7827 113.608 41.5954 100.42C28.408 87.2328 17.9472 71.5771 10.8103 54.347C3.67334 37.1169 -1.63041e-06 18.6497 0 2.8434e-06L56.8014 7.80913e-06C56.8014 11.1905 59.0055 22.2714 63.2879 32.61C67.5703 42.9487 73.8472 52.3426 81.76 60.2555C89.6729 68.1684 99.0668 74.4452 109.405 78.7276C119.744 83.01 130.825 85.2142 142.016 85.2142C153.206 85.2142 164.287 83.01 174.626 78.7276C184.964 74.4452 194.358 68.1684 202.271 60.2555C210.184 52.3426 216.461 42.9487 220.743 32.6101C225.026 22.2714 227.23 11.1905 227.23 1.52588e-05H284.031Z" fill="url(#paint0_linear_0_4)"/>
<defs>
<linearGradient id="paint0_linear_0_4" x1="252.711" y1="-111.899" x2="38.0572" y2="267.73" gradientUnits="userSpaceOnUse">
<stop stop-color="#A5CCFF"/>
<stop offset="0.756912" stop-color="#0A66EA"/>
</linearGradient>
</defs>
</svg>
