<svg preserveAspectRatio="none" width="100%" height="100%" overflow="visible" style="display: block;" viewBox="0 0 1030.5 1029.81" fill="none" xmlns="http://www.w3.org/2000/svg">
<g id="Group" opacity="0.75">
<path id="Vector" fill-rule="evenodd" clip-rule="evenodd" d="M771.948 514.904C771.948 656.578 657.02 771.428 515.251 771.428C373.482 771.428 258.554 656.578 258.554 514.904C258.554 373.23 373.482 258.38 515.251 258.38C657.02 258.38 771.948 373.23 771.948 514.904ZM515.251 772.666C657.704 772.666 773.186 657.262 773.186 514.904C773.186 372.547 657.704 257.143 515.251 257.143C372.798 257.143 257.316 372.547 257.316 514.904C257.316 657.262 372.798 772.666 515.251 772.666Z" fill="url(#paint0_linear_0_4)"/>
<path id="Vector_2" fill-rule="evenodd" clip-rule="evenodd" d="M797.678 514.905C797.678 670.781 671.231 797.144 515.25 797.144C359.269 797.144 232.822 670.781 232.822 514.904C232.822 359.029 359.269 232.666 515.25 232.666C671.231 232.667 797.678 359.029 797.678 514.905ZM515.25 798.381C671.915 798.381 798.916 671.465 798.916 514.905C798.916 358.345 671.915 231.429 515.25 231.429C358.586 231.429 231.584 358.345 231.584 514.904C231.584 671.465 358.586 798.381 515.25 798.381Z" fill="url(#paint1_linear_0_4)"/>
<path id="Vector_3" fill-rule="evenodd" clip-rule="evenodd" d="M823.412 514.904C823.412 684.981 685.444 822.856 515.252 822.856C345.06 822.856 207.092 684.981 207.092 514.904C207.092 344.826 345.06 206.951 515.252 206.951C685.444 206.951 823.412 344.826 823.412 514.904ZM515.252 824.094C686.128 824.094 824.65 685.664 824.65 514.904C824.65 344.143 686.128 205.714 515.252 205.714C344.376 205.714 205.854 344.143 205.854 514.904C205.854 685.664 344.376 824.094 515.252 824.094Z" fill="url(#paint2_linear_0_4)"/>
<path id="Vector_4" fill-rule="evenodd" clip-rule="evenodd" d="M849.139 514.904C849.139 699.184 699.651 848.571 515.248 848.571C330.845 848.571 181.357 699.184 181.357 514.904C181.357 330.625 330.845 181.237 515.248 181.237C699.651 181.237 849.139 330.625 849.139 514.904ZM515.248 849.809C700.335 849.809 850.378 699.867 850.378 514.904C850.378 329.942 700.335 180 515.248 180C330.161 180 180.118 329.942 180.118 514.904C180.118 699.867 330.161 849.809 515.248 849.809Z" fill="url(#paint3_linear_0_4)"/>
<path id="Vector_5" fill-rule="evenodd" clip-rule="evenodd" d="M874.874 514.903C874.874 713.383 713.865 874.284 515.251 874.284C316.637 874.284 155.628 713.383 155.628 514.903C155.628 316.423 316.637 155.522 515.251 155.522C713.865 155.522 874.874 316.423 874.874 514.903ZM515.251 875.521C714.549 875.521 876.112 714.067 876.112 514.903C876.112 315.739 714.549 154.285 515.251 154.285C315.953 154.285 154.39 315.739 154.39 514.903C154.39 714.067 315.953 875.521 515.251 875.521Z" fill="url(#paint4_linear_0_4)"/>
<path id="Vector_6" fill-rule="evenodd" clip-rule="evenodd" d="M900.605 514.904C900.604 727.586 728.075 899.999 515.249 899.999C302.424 899.999 129.895 727.586 129.895 514.904C129.895 302.221 302.424 129.808 515.25 129.808C728.075 129.808 900.605 302.221 900.605 514.904ZM515.249 901.236C728.759 901.236 901.842 728.269 901.842 514.904C901.843 301.538 728.758 128.571 515.25 128.571C301.74 128.571 128.657 301.538 128.657 514.904C128.657 728.269 301.74 901.236 515.249 901.236Z" fill="url(#paint5_linear_0_4)"/>
<path id="Vector_7" fill-rule="evenodd" clip-rule="evenodd" d="M926.336 514.906C926.336 741.79 742.287 925.715 515.25 925.715C288.214 925.715 104.164 741.79 104.164 514.906C104.164 288.022 288.214 104.096 515.25 104.096C742.287 104.096 926.336 288.022 926.336 514.906ZM515.25 926.953C742.971 926.953 927.574 742.473 927.574 514.906C927.574 287.339 742.971 102.859 515.25 102.859C287.53 102.859 102.926 287.339 102.926 514.906C102.926 742.473 287.53 926.953 515.25 926.953Z" fill="url(#paint6_linear_0_4)"/>
<path id="Vector_8" fill-rule="evenodd" clip-rule="evenodd" d="M952.065 514.903C952.065 755.988 756.497 951.425 515.25 951.425C274.002 951.425 78.4321 755.988 78.4321 514.903C78.4321 273.817 274.002 78.3785 515.25 78.3785C756.497 78.3786 952.065 273.817 952.065 514.903ZM515.25 952.663C757.181 952.663 953.304 756.671 953.304 514.903C953.304 273.134 757.181 77.1413 515.25 77.1412C273.318 77.1412 77.194 273.133 77.194 514.903C77.1939 756.671 273.318 952.663 515.25 952.663Z" fill="url(#paint7_linear_0_4)"/>
<path id="Vector_9" fill-rule="evenodd" clip-rule="evenodd" d="M977.801 514.905C977.801 770.192 770.712 977.144 515.253 977.144C259.794 977.144 52.7037 770.192 52.7038 514.905C52.7038 259.618 259.794 52.6666 515.253 52.6666C770.712 52.6666 977.801 259.618 977.801 514.905ZM515.253 978.382C771.396 978.382 979.04 770.876 979.04 514.905C979.04 258.934 771.396 51.4294 515.253 51.4293C259.11 51.4293 51.4658 258.934 51.4657 514.905C51.4657 770.876 259.11 978.382 515.253 978.382Z" fill="url(#paint8_linear_0_4)"/>
<path id="Vector_10" fill-rule="evenodd" clip-rule="evenodd" d="M1003.53 514.902C1003.53 784.39 784.921 1002.85 515.251 1002.85C245.581 1002.85 26.9698 784.39 26.9698 514.902C26.9699 245.413 245.581 26.949 515.251 26.9491C784.921 26.9491 1003.53 245.413 1003.53 514.902ZM515.251 1004.09C785.605 1004.09 1004.77 785.074 1004.77 514.902C1004.77 244.73 785.605 25.7119 515.251 25.7119C244.897 25.7119 25.7318 244.73 25.7318 514.902C25.7318 785.074 244.897 1004.09 515.251 1004.09Z" fill="url(#paint9_linear_0_4)"/>
<path id="Vector_11" fill-rule="evenodd" clip-rule="evenodd" d="M1029.26 514.904C1029.26 798.595 799.132 1028.57 515.251 1028.57C231.369 1028.57 1.23804 798.595 1.23807 514.904C1.2381 231.213 231.37 1.23721 515.251 1.23724C799.132 1.23726 1029.26 231.213 1029.26 514.904ZM515.251 1029.81C799.816 1029.81 1030.5 799.278 1030.5 514.904C1030.5 230.531 799.816 2.88161e-05 515.251 0C230.686 -2.88161e-05 2.88349e-05 230.53 0 514.904C-2.88359e-05 799.278 230.686 1029.81 515.251 1029.81Z" fill="url(#paint10_linear_0_4)"/>
</g>
<defs>
<linearGradient id="paint0_linear_0_4" x1="644.215" y1="456.865" x2="300.143" y2="456.865" gradientUnits="userSpaceOnUse">
<stop offset="0.29001" stop-color="#893BF7" stop-opacity="0"/>
<stop offset="0.90001" stop-color="#0288FD"/>
</linearGradient>
<linearGradient id="paint1_linear_0_4" x1="657.08" y1="451.076" x2="278.684" y2="451.076" gradientUnits="userSpaceOnUse">
<stop offset="0.29001" stop-color="#893BF7" stop-opacity="0"/>
<stop offset="0.90001" stop-color="#0288FD"/>
</linearGradient>
<linearGradient id="paint2_linear_0_4" x1="669.947" y1="445.284" x2="257.225" y2="445.284" gradientUnits="userSpaceOnUse">
<stop offset="0.29001" stop-color="#893BF7" stop-opacity="0"/>
<stop offset="0.90001" stop-color="#0288FD"/>
</linearGradient>
<linearGradient id="paint3_linear_0_4" x1="682.81" y1="439.495" x2="235.763" y2="439.495" gradientUnits="userSpaceOnUse">
<stop offset="0.29001" stop-color="#893BF7" stop-opacity="0"/>
<stop offset="0.90001" stop-color="#0288FD"/>
</linearGradient>
<linearGradient id="paint4_linear_0_4" x1="695.678" y1="433.704" x2="214.307" y2="433.704" gradientUnits="userSpaceOnUse">
<stop offset="0.29001" stop-color="#893BF7" stop-opacity="0"/>
<stop offset="0.90001" stop-color="#0288FD"/>
</linearGradient>
<linearGradient id="paint5_linear_0_4" x1="708.541" y1="427.913" x2="192.846" y2="427.913" gradientUnits="userSpaceOnUse">
<stop offset="0.29001" stop-color="#893BF7" stop-opacity="0"/>
<stop offset="0.90001" stop-color="#0288FD"/>
</linearGradient>
<linearGradient id="paint6_linear_0_4" x1="721.407" y1="422.126" x2="171.387" y2="422.126" gradientUnits="userSpaceOnUse">
<stop offset="0.29001" stop-color="#893BF7" stop-opacity="0"/>
<stop offset="0.90001" stop-color="#0288FD"/>
</linearGradient>
<linearGradient id="paint7_linear_0_4" x1="734.273" y1="416.333" x2="149.928" y2="416.333" gradientUnits="userSpaceOnUse">
<stop offset="0.29001" stop-color="#893BF7" stop-opacity="0"/>
<stop offset="0.90001" stop-color="#0288FD"/>
</linearGradient>
<linearGradient id="paint8_linear_0_4" x1="747.141" y1="410.545" x2="128.472" y2="410.545" gradientUnits="userSpaceOnUse">
<stop offset="0.29001" stop-color="#893BF7" stop-opacity="0"/>
<stop offset="0.90001" stop-color="#0288FD"/>
</linearGradient>
<linearGradient id="paint9_linear_0_4" x1="760.004" y1="404.752" x2="107.011" y2="404.752" gradientUnits="userSpaceOnUse">
<stop offset="0.29001" stop-color="#893BF7" stop-opacity="0"/>
<stop offset="0.90001" stop-color="#0288FD"/>
</linearGradient>
<linearGradient id="paint10_linear_0_4" x1="772.87" y1="398.965" x2="85.5512" y2="398.965" gradientUnits="userSpaceOnUse">
<stop offset="0.29001" stop-color="#893BF7" stop-opacity="0"/>
<stop offset="0.90001" stop-color="#0288FD"/>
</linearGradient>
</defs>
</svg>
