<svg preserveAspectRatio="none" width="100%" height="100%" overflow="visible" style="display: block;" viewBox="0 0 18 18" fill="none" xmlns="http://www.w3.org/2000/svg">
<g id="mdi:gift-outline">
<path id="Vector" d="M16.5 9V15C16.5 15.3978 16.342 15.7794 16.0607 16.0607C15.7794 16.342 15.3978 16.5 15 16.5H3C2.60218 16.5 2.22064 16.342 1.93934 16.0607C1.65804 15.7794 1.5 15.3978 1.5 15V9C1.30109 9 1.11032 8.92098 0.96967 8.78033C0.829018 8.63968 0.75 8.44891 0.75 8.25V6C0.75 5.60218 0.908035 5.22064 1.18934 4.93934C1.47064 4.65804 1.85218 4.5 2.25 4.5H4.6275C4.54274 4.25905 4.49962 4.00542 4.5 3.75C4.5 3.15326 4.73705 2.58097 5.15901 2.15901C5.58097 1.73705 6.15326 1.5 6.75 1.5C7.5 1.5 8.16 1.875 8.5725 2.43V2.4225L9 3L9.4275 2.4225V2.43C9.84 1.875 10.5 1.5 11.25 1.5C11.8467 1.5 12.419 1.73705 12.841 2.15901C13.2629 2.58097 13.5 3.15326 13.5 3.75C13.5004 4.00542 13.4573 4.25905 13.3725 4.5H15.75C16.1478 4.5 16.5294 4.65804 16.8107 4.93934C17.092 5.22064 17.25 5.60218 17.25 6V8.25C17.25 8.44891 17.171 8.63968 17.0303 8.78033C16.8897 8.92098 16.6989 9 16.5 9ZM3 15H8.25V9H3V15ZM15 15V9H9.75V15H15ZM6.75 3C6.55109 3 6.36032 3.07902 6.21967 3.21967C6.07902 3.36032 6 3.55109 6 3.75C6 3.94891 6.07902 4.13968 6.21967 4.28033C6.36032 4.42098 6.55109 4.5 6.75 4.5C6.94891 4.5 7.13968 4.42098 7.28033 4.28033C7.42098 4.13968 7.5 3.94891 7.5 3.75C7.5 3.55109 7.42098 3.36032 7.28033 3.21967C7.13968 3.07902 6.94891 3 6.75 3ZM11.25 3C11.0511 3 10.8603 3.07902 10.7197 3.21967C10.579 3.36032 10.5 3.55109 10.5 3.75C10.5 3.94891 10.579 4.13968 10.7197 4.28033C10.8603 4.42098 11.0511 4.5 11.25 4.5C11.4489 4.5 11.6397 4.42098 11.7803 4.28033C11.921 4.13968 12 3.94891 12 3.75C12 3.55109 11.921 3.36032 11.7803 3.21967C11.6397 3.07902 11.4489 3 11.25 3ZM2.25 6V7.5H8.25V6H2.25ZM9.75 6V7.5H15.75V6H9.75Z" fill="#0288FD"/>
</g>
</svg>
