<svg preserveAspectRatio="none" width="100%" height="100%" overflow="visible" style="display: block;" viewBox="0 0 22 22" fill="none" xmlns="http://www.w3.org/2000/svg">
<g id="SVG">
<g id="Group 38240">
<path id="Vector" d="M3.35087 1.79398C3.12862 2.02113 3 2.37477 3 2.83276V19.1688C3 19.6268 3.12862 19.9805 3.35087 20.2076L3.40572 20.2575L12.7817 11.107V10.8909L3.40572 1.74043L3.35087 1.79398Z" fill="url(#paint0_linear_0_11)"/>
<path id="Vector_2" d="M15.9025 14.1585L12.7806 11.1068V10.8907L15.9063 7.83902L15.9763 7.87872L19.6779 9.93504C20.7343 10.5186 20.7343 11.4789 19.6779 12.0662L15.9763 14.1188L15.9025 14.1585Z" fill="url(#paint1_linear_0_11)"/>
<path id="Vector_3" d="M15.9764 14.1186L12.7807 10.9986L3.34988 20.2072C3.70074 20.5673 4.27291 20.6107 4.92358 20.2506L15.9764 14.1186" fill="url(#paint2_linear_0_11)"/>
<path id="Vector_4" d="M15.9764 7.8783L4.92358 1.74628C4.27291 1.38986 3.70074 1.43326 3.34988 1.79337L12.7807 10.9983L15.9764 7.8783Z" fill="url(#paint3_linear_0_11)"/>
</g>
</g>
<defs>
<linearGradient id="paint0_linear_0_11" x1="11.9492" y1="19.339" x2="-0.444153" y2="6.64526" gradientUnits="userSpaceOnUse">
<stop stop-color="#00A0FF"/>
<stop offset="0.0066" stop-color="#00A1FF"/>
<stop offset="0.2601" stop-color="#00BEFF"/>
<stop offset="0.5122" stop-color="#00D2FF"/>
<stop offset="0.7604" stop-color="#00DFFF"/>
<stop offset="1" stop-color="#00E3FF"/>
</linearGradient>
<linearGradient id="paint1_linear_0_11" x1="21.0535" y1="10.9977" x2="2.74641" y2="10.9977" gradientUnits="userSpaceOnUse">
<stop stop-color="#FFE000"/>
<stop offset="0.4087" stop-color="#FFBD00"/>
<stop offset="0.7754" stop-color="#FFA500"/>
<stop offset="1" stop-color="#FF9C00"/>
</linearGradient>
<linearGradient id="paint2_linear_0_11" x1="14.2387" y1="9.30248" x2="-2.56778" y2="-7.9112" gradientUnits="userSpaceOnUse">
<stop stop-color="#FF3A44"/>
<stop offset="1" stop-color="#C31162"/>
</linearGradient>
<linearGradient id="paint3_linear_0_11" x1="0.975936" y1="25.6419" x2="8.48077" y2="17.9553" gradientUnits="userSpaceOnUse">
<stop stop-color="#32A071"/>
<stop offset="0.0685" stop-color="#2DA771"/>
<stop offset="0.4762" stop-color="#15CF74"/>
<stop offset="0.8009" stop-color="#06E775"/>
<stop offset="1" stop-color="#00F076"/>
</linearGradient>
</defs>
</svg>
